%TF.GenerationSoftware,KiCad,Pcbnew,7.0.1*%
%TF.CreationDate,2023-03-28T23:12:02-03:00*%
%TF.ProjectId,CeilingFanControl,4365696c-696e-4674-9661-6e436f6e7472,rev?*%
%TF.SameCoordinates,Original*%
%TF.FileFunction,Plated,1,2,PTH,Drill*%
%TF.FilePolarity,Positive*%
%FSLAX46Y46*%
G04 Gerber Fmt 4.6, Leading zero omitted, Abs format (unit mm)*
G04 Created by KiCad (PCBNEW 7.0.1) date 2023-03-28 23:12:02*
%MOMM*%
%LPD*%
G01*
G04 APERTURE LIST*
%TA.AperFunction,ComponentDrill*%
%ADD10C,0.800000*%
%TD*%
%TA.AperFunction,ComponentDrill*%
%ADD11C,0.900000*%
%TD*%
%TA.AperFunction,ComponentDrill*%
%ADD12C,0.950000*%
%TD*%
%TA.AperFunction,ComponentDrill*%
%ADD13C,1.000000*%
%TD*%
%TA.AperFunction,ComponentDrill*%
%ADD14C,1.100000*%
%TD*%
G04 APERTURE END LIST*
D10*
%TO.C,R1*%
X22120000Y-71500000D03*
%TO.C,R2*%
X22120000Y-75500000D03*
%TO.C,U1*%
X23400000Y-44475000D03*
X23400000Y-47015000D03*
X23400000Y-49555000D03*
X31020000Y-44475000D03*
X31020000Y-47015000D03*
X31020000Y-49555000D03*
%TO.C,R1*%
X32280000Y-71500000D03*
%TO.C,R2*%
X32280000Y-75500000D03*
%TO.C,R3*%
X35900000Y-24420000D03*
X35900000Y-34580000D03*
%TO.C,R4*%
X39620000Y-43400000D03*
%TO.C,R7*%
X40200000Y-57120000D03*
X40200000Y-67280000D03*
%TO.C,U2*%
X41050000Y-30480000D03*
X41050000Y-38100000D03*
%TO.C,C2*%
X41200000Y-23800000D03*
X41200000Y-26300000D03*
%TO.C,U3*%
X42400000Y-48975000D03*
X42400000Y-51515000D03*
X42400000Y-54055000D03*
%TO.C,U2*%
X43590000Y-30480000D03*
X43590000Y-38100000D03*
X46130000Y-30480000D03*
X46130000Y-38100000D03*
%TO.C,Y1*%
X46750000Y-25300000D03*
%TO.C,U2*%
X48670000Y-30480000D03*
X48670000Y-38100000D03*
%TO.C,R4*%
X49780000Y-43400000D03*
%TO.C,U3*%
X50020000Y-48975000D03*
X50020000Y-51515000D03*
X50020000Y-54055000D03*
%TO.C,U2*%
X51210000Y-30480000D03*
X51210000Y-38100000D03*
%TO.C,Y1*%
X51650000Y-25300000D03*
%TO.C,R8*%
X52700000Y-57120000D03*
X52700000Y-67280000D03*
%TO.C,R5*%
X53620000Y-43400000D03*
%TO.C,U2*%
X53750000Y-30480000D03*
X53750000Y-38100000D03*
%TO.C,U4*%
X55400000Y-48975000D03*
X55400000Y-51515000D03*
X55400000Y-54055000D03*
%TO.C,U2*%
X56290000Y-30480000D03*
X56290000Y-38100000D03*
%TO.C,C1*%
X57200000Y-23800000D03*
X57200000Y-26300000D03*
%TO.C,U2*%
X58830000Y-30480000D03*
X58830000Y-38100000D03*
X61370000Y-30480000D03*
X61370000Y-38100000D03*
%TO.C,U4*%
X63020000Y-48975000D03*
X63020000Y-51515000D03*
X63020000Y-54055000D03*
%TO.C,R5*%
X63780000Y-43400000D03*
%TO.C,R9*%
X65900000Y-57320000D03*
X65900000Y-67480000D03*
%TO.C,R6*%
X67420000Y-43400000D03*
%TO.C,U5*%
X68900000Y-48975000D03*
X68900000Y-51515000D03*
X68900000Y-54055000D03*
X76520000Y-48975000D03*
X76520000Y-51515000D03*
X76520000Y-54055000D03*
%TO.C,R6*%
X77580000Y-43400000D03*
D11*
%TO.C,D1*%
X23310000Y-57980000D03*
%TO.C,D2*%
X23400000Y-53990000D03*
%TO.C,D3*%
X23410000Y-66000000D03*
%TO.C,D4*%
X23430000Y-61990000D03*
%TO.C,D1*%
X30930000Y-57980000D03*
%TO.C,D2*%
X31020000Y-53990000D03*
%TO.C,D3*%
X31030000Y-66000000D03*
%TO.C,D4*%
X31050000Y-61990000D03*
D12*
%TO.C,J3*%
X27732500Y-24550000D03*
X27732500Y-27050000D03*
X27732500Y-29550000D03*
X27732500Y-32050000D03*
%TO.C,J2*%
X72667500Y-24550000D03*
X72667500Y-27050000D03*
X72667500Y-29550000D03*
X72667500Y-32050000D03*
D13*
%TO.C,J1*%
X38200000Y-70740000D03*
X38200000Y-78260000D03*
X43200000Y-70740000D03*
X43200000Y-78260000D03*
%TO.C,J4*%
X55700000Y-70740000D03*
X55700000Y-78260000D03*
X60700000Y-70740000D03*
X60700000Y-78260000D03*
X65700000Y-70740000D03*
X65700000Y-78260000D03*
X70700000Y-70740000D03*
X70700000Y-78260000D03*
X75700000Y-70740000D03*
X75700000Y-78260000D03*
D14*
%TO.C,Q1*%
X46645000Y-60420000D03*
X46645000Y-62960000D03*
X46645000Y-65500000D03*
%TO.C,Q2*%
X59645000Y-59960000D03*
X59645000Y-62500000D03*
X59645000Y-65040000D03*
%TO.C,Q3*%
X73045000Y-60060000D03*
X73045000Y-62600000D03*
X73045000Y-65140000D03*
M02*
