%TF.GenerationSoftware,KiCad,Pcbnew,7.0.1*%
%TF.CreationDate,2023-03-28T23:11:37-03:00*%
%TF.ProjectId,CeilingFanControl,4365696c-696e-4674-9661-6e436f6e7472,rev?*%
%TF.SameCoordinates,Original*%
%TF.FileFunction,Copper,L1,Top*%
%TF.FilePolarity,Positive*%
%FSLAX46Y46*%
G04 Gerber Fmt 4.6, Leading zero omitted, Abs format (unit mm)*
G04 Created by KiCad (PCBNEW 7.0.1) date 2023-03-28 23:11:37*
%MOMM*%
%LPD*%
G01*
G04 APERTURE LIST*
G04 Aperture macros list*
%AMRoundRect*
0 Rectangle with rounded corners*
0 $1 Rounding radius*
0 $2 $3 $4 $5 $6 $7 $8 $9 X,Y pos of 4 corners*
0 Add a 4 corners polygon primitive as box body*
4,1,4,$2,$3,$4,$5,$6,$7,$8,$9,$2,$3,0*
0 Add four circle primitives for the rounded corners*
1,1,$1+$1,$2,$3*
1,1,$1+$1,$4,$5*
1,1,$1+$1,$6,$7*
1,1,$1+$1,$8,$9*
0 Add four rect primitives between the rounded corners*
20,1,$1+$1,$2,$3,$4,$5,0*
20,1,$1+$1,$4,$5,$6,$7,0*
20,1,$1+$1,$6,$7,$8,$9,0*
20,1,$1+$1,$8,$9,$2,$3,0*%
G04 Aperture macros list end*
%TA.AperFunction,ComponentPad*%
%ADD10R,2.000000X1.905000*%
%TD*%
%TA.AperFunction,ComponentPad*%
%ADD11O,2.000000X1.905000*%
%TD*%
%TA.AperFunction,ComponentPad*%
%ADD12R,1.600000X1.600000*%
%TD*%
%TA.AperFunction,ComponentPad*%
%ADD13O,1.600000X1.600000*%
%TD*%
%TA.AperFunction,ComponentPad*%
%ADD14C,1.600000*%
%TD*%
%TA.AperFunction,ComponentPad*%
%ADD15O,2.000000X1.750000*%
%TD*%
%TA.AperFunction,ComponentPad*%
%ADD16R,1.800000X1.800000*%
%TD*%
%TA.AperFunction,ComponentPad*%
%ADD17O,1.800000X1.800000*%
%TD*%
%TA.AperFunction,ComponentPad*%
%ADD18RoundRect,0.250000X-0.725000X0.600000X-0.725000X-0.600000X0.725000X-0.600000X0.725000X0.600000X0*%
%TD*%
%TA.AperFunction,ComponentPad*%
%ADD19O,1.950000X1.700000*%
%TD*%
%TA.AperFunction,ComponentPad*%
%ADD20RoundRect,0.250000X0.725000X-0.600000X0.725000X0.600000X-0.725000X0.600000X-0.725000X-0.600000X0*%
%TD*%
%TA.AperFunction,ComponentPad*%
%ADD21C,1.500000*%
%TD*%
%TA.AperFunction,NonConductor*%
%ADD22C,0.200000*%
%TD*%
%ADD23C,0.200000*%
%TA.AperFunction,Conductor*%
%ADD24C,0.250000*%
%TD*%
%TA.AperFunction,Conductor*%
%ADD25C,1.500000*%
%TD*%
%TA.AperFunction,Profile*%
%ADD26C,0.200000*%
%TD*%
G04 APERTURE END LIST*
D10*
X73045000Y-65140000D03*
D11*
X73045000Y-62600000D03*
X73045000Y-60060000D03*
D12*
X23400000Y-44475000D03*
D13*
X23400000Y-47015000D03*
X23400000Y-49555000D03*
X31020000Y-49555000D03*
X31020000Y-47015000D03*
X31020000Y-44475000D03*
D14*
X63780000Y-43400000D03*
D13*
X53620000Y-43400000D03*
D14*
X35900000Y-24420000D03*
D13*
X35900000Y-34580000D03*
D10*
X46645000Y-65500000D03*
D11*
X46645000Y-62960000D03*
X46645000Y-60420000D03*
D15*
X55700000Y-70740000D03*
X55700000Y-78260000D03*
X60700000Y-70740000D03*
X60700000Y-78260000D03*
X65700000Y-70740000D03*
X65700000Y-78260000D03*
X70700000Y-78260000D03*
X70700000Y-70740000D03*
X75700000Y-78260000D03*
X75700000Y-70740000D03*
D16*
X31020000Y-53990000D03*
D17*
X23400000Y-53990000D03*
D16*
X23310000Y-57980000D03*
D17*
X30930000Y-57980000D03*
D12*
X42400000Y-48975000D03*
D13*
X42400000Y-51515000D03*
X42400000Y-54055000D03*
X50020000Y-54055000D03*
X50020000Y-51515000D03*
X50020000Y-48975000D03*
D12*
X41050000Y-38100000D03*
D13*
X43590000Y-38100000D03*
X46130000Y-38100000D03*
X48670000Y-38100000D03*
X51210000Y-38100000D03*
X53750000Y-38100000D03*
X56290000Y-38100000D03*
X58830000Y-38100000D03*
X61370000Y-38100000D03*
X61370000Y-30480000D03*
X58830000Y-30480000D03*
X56290000Y-30480000D03*
X53750000Y-30480000D03*
X51210000Y-30480000D03*
X48670000Y-30480000D03*
X46130000Y-30480000D03*
X43590000Y-30480000D03*
X41050000Y-30480000D03*
D14*
X65900000Y-67480000D03*
D13*
X65900000Y-57320000D03*
D10*
X59645000Y-65040000D03*
D11*
X59645000Y-62500000D03*
X59645000Y-59960000D03*
D14*
X67420000Y-43400000D03*
D13*
X77580000Y-43400000D03*
D12*
X55400000Y-48975000D03*
D13*
X55400000Y-51515000D03*
X55400000Y-54055000D03*
X63020000Y-54055000D03*
X63020000Y-51515000D03*
X63020000Y-48975000D03*
D14*
X52700000Y-67280000D03*
D13*
X52700000Y-57120000D03*
D18*
X72667500Y-24550000D03*
D19*
X72667500Y-27050000D03*
X72667500Y-29550000D03*
X72667500Y-32050000D03*
D14*
X41200000Y-26300000D03*
X41200000Y-23800000D03*
X40200000Y-67280000D03*
D13*
X40200000Y-57120000D03*
D12*
X68900000Y-48975000D03*
D13*
X68900000Y-51515000D03*
X68900000Y-54055000D03*
X76520000Y-54055000D03*
X76520000Y-51515000D03*
X76520000Y-48975000D03*
D16*
X23410000Y-66000000D03*
D17*
X31030000Y-66000000D03*
D14*
X32280000Y-71500000D03*
D13*
X22120000Y-71500000D03*
D16*
X31050000Y-61990000D03*
D17*
X23430000Y-61990000D03*
D14*
X49780000Y-43400000D03*
D13*
X39620000Y-43400000D03*
D20*
X27732500Y-32050000D03*
D19*
X27732500Y-29550000D03*
X27732500Y-27050000D03*
X27732500Y-24550000D03*
D14*
X57200000Y-26300000D03*
X57200000Y-23800000D03*
D21*
X51650000Y-25300000D03*
X46750000Y-25300000D03*
D15*
X38200000Y-70740000D03*
X38200000Y-78260000D03*
X43200000Y-78260000D03*
X43200000Y-70740000D03*
D14*
X32280000Y-75500000D03*
D13*
X22120000Y-75500000D03*
D22*
X20200000Y-20000000D02*
X80200000Y-20000000D01*
X80200000Y-80000000D01*
X20200000Y-80000000D01*
X20200000Y-20000000D01*
X20200000Y-20000000D02*
X80200000Y-20000000D01*
X80200000Y-80000000D01*
X20200000Y-80000000D01*
X20200000Y-20000000D01*
D23*
D22*
X67276189Y-76562619D02*
X67276189Y-75562619D01*
X67276189Y-75562619D02*
X67038094Y-75562619D01*
X67038094Y-75562619D02*
X66895237Y-75610238D01*
X66895237Y-75610238D02*
X66799999Y-75705476D01*
X66799999Y-75705476D02*
X66752380Y-75800714D01*
X66752380Y-75800714D02*
X66704761Y-75991190D01*
X66704761Y-75991190D02*
X66704761Y-76134047D01*
X66704761Y-76134047D02*
X66752380Y-76324523D01*
X66752380Y-76324523D02*
X66799999Y-76419761D01*
X66799999Y-76419761D02*
X66895237Y-76515000D01*
X66895237Y-76515000D02*
X67038094Y-76562619D01*
X67038094Y-76562619D02*
X67276189Y-76562619D01*
X66276189Y-76562619D02*
X66276189Y-75562619D01*
X65228571Y-76562619D02*
X65561904Y-76086428D01*
X65799999Y-76562619D02*
X65799999Y-75562619D01*
X65799999Y-75562619D02*
X65419047Y-75562619D01*
X65419047Y-75562619D02*
X65323809Y-75610238D01*
X65323809Y-75610238D02*
X65276190Y-75657857D01*
X65276190Y-75657857D02*
X65228571Y-75753095D01*
X65228571Y-75753095D02*
X65228571Y-75895952D01*
X65228571Y-75895952D02*
X65276190Y-75991190D01*
X65276190Y-75991190D02*
X65323809Y-76038809D01*
X65323809Y-76038809D02*
X65419047Y-76086428D01*
X65419047Y-76086428D02*
X65799999Y-76086428D01*
X64847618Y-75657857D02*
X64799999Y-75610238D01*
X64799999Y-75610238D02*
X64704761Y-75562619D01*
X64704761Y-75562619D02*
X64466666Y-75562619D01*
X64466666Y-75562619D02*
X64371428Y-75610238D01*
X64371428Y-75610238D02*
X64323809Y-75657857D01*
X64323809Y-75657857D02*
X64276190Y-75753095D01*
X64276190Y-75753095D02*
X64276190Y-75848333D01*
X64276190Y-75848333D02*
X64323809Y-75991190D01*
X64323809Y-75991190D02*
X64895237Y-76562619D01*
X64895237Y-76562619D02*
X64276190Y-76562619D01*
D23*
D22*
X58990476Y-76662619D02*
X59466666Y-76662619D01*
X59466666Y-76662619D02*
X59466666Y-75662619D01*
X58704761Y-76376904D02*
X58228571Y-76376904D01*
X58799999Y-76662619D02*
X58466666Y-75662619D01*
X58466666Y-75662619D02*
X58133333Y-76662619D01*
X57799999Y-76662619D02*
X57799999Y-75662619D01*
X57799999Y-75662619D02*
X57466666Y-76376904D01*
X57466666Y-76376904D02*
X57133333Y-75662619D01*
X57133333Y-75662619D02*
X57133333Y-76662619D01*
X56657142Y-76662619D02*
X56657142Y-75662619D01*
X56657142Y-75662619D02*
X56276190Y-75662619D01*
X56276190Y-75662619D02*
X56180952Y-75710238D01*
X56180952Y-75710238D02*
X56133333Y-75757857D01*
X56133333Y-75757857D02*
X56085714Y-75853095D01*
X56085714Y-75853095D02*
X56085714Y-75995952D01*
X56085714Y-75995952D02*
X56133333Y-76091190D01*
X56133333Y-76091190D02*
X56180952Y-76138809D01*
X56180952Y-76138809D02*
X56276190Y-76186428D01*
X56276190Y-76186428D02*
X56657142Y-76186428D01*
D23*
D22*
X43680951Y-76176904D02*
X43204761Y-76176904D01*
X43776189Y-76462619D02*
X43442856Y-75462619D01*
X43442856Y-75462619D02*
X43109523Y-76462619D01*
X42204761Y-76367380D02*
X42252380Y-76415000D01*
X42252380Y-76415000D02*
X42395237Y-76462619D01*
X42395237Y-76462619D02*
X42490475Y-76462619D01*
X42490475Y-76462619D02*
X42633332Y-76415000D01*
X42633332Y-76415000D02*
X42728570Y-76319761D01*
X42728570Y-76319761D02*
X42776189Y-76224523D01*
X42776189Y-76224523D02*
X42823808Y-76034047D01*
X42823808Y-76034047D02*
X42823808Y-75891190D01*
X42823808Y-75891190D02*
X42776189Y-75700714D01*
X42776189Y-75700714D02*
X42728570Y-75605476D01*
X42728570Y-75605476D02*
X42633332Y-75510238D01*
X42633332Y-75510238D02*
X42490475Y-75462619D01*
X42490475Y-75462619D02*
X42395237Y-75462619D01*
X42395237Y-75462619D02*
X42252380Y-75510238D01*
X42252380Y-75510238D02*
X42204761Y-75557857D01*
X41014284Y-76462619D02*
X41014284Y-75462619D01*
X40538094Y-76462619D02*
X40538094Y-75462619D01*
X40538094Y-75462619D02*
X39966666Y-76462619D01*
X39966666Y-76462619D02*
X39966666Y-75462619D01*
D23*
D22*
X71485714Y-76367380D02*
X71533333Y-76415000D01*
X71533333Y-76415000D02*
X71676190Y-76462619D01*
X71676190Y-76462619D02*
X71771428Y-76462619D01*
X71771428Y-76462619D02*
X71914285Y-76415000D01*
X71914285Y-76415000D02*
X72009523Y-76319761D01*
X72009523Y-76319761D02*
X72057142Y-76224523D01*
X72057142Y-76224523D02*
X72104761Y-76034047D01*
X72104761Y-76034047D02*
X72104761Y-75891190D01*
X72104761Y-75891190D02*
X72057142Y-75700714D01*
X72057142Y-75700714D02*
X72009523Y-75605476D01*
X72009523Y-75605476D02*
X71914285Y-75510238D01*
X71914285Y-75510238D02*
X71771428Y-75462619D01*
X71771428Y-75462619D02*
X71676190Y-75462619D01*
X71676190Y-75462619D02*
X71533333Y-75510238D01*
X71533333Y-75510238D02*
X71485714Y-75557857D01*
X70866666Y-75462619D02*
X70676190Y-75462619D01*
X70676190Y-75462619D02*
X70580952Y-75510238D01*
X70580952Y-75510238D02*
X70485714Y-75605476D01*
X70485714Y-75605476D02*
X70438095Y-75795952D01*
X70438095Y-75795952D02*
X70438095Y-76129285D01*
X70438095Y-76129285D02*
X70485714Y-76319761D01*
X70485714Y-76319761D02*
X70580952Y-76415000D01*
X70580952Y-76415000D02*
X70676190Y-76462619D01*
X70676190Y-76462619D02*
X70866666Y-76462619D01*
X70866666Y-76462619D02*
X70961904Y-76415000D01*
X70961904Y-76415000D02*
X71057142Y-76319761D01*
X71057142Y-76319761D02*
X71104761Y-76129285D01*
X71104761Y-76129285D02*
X71104761Y-75795952D01*
X71104761Y-75795952D02*
X71057142Y-75605476D01*
X71057142Y-75605476D02*
X70961904Y-75510238D01*
X70961904Y-75510238D02*
X70866666Y-75462619D01*
X70009523Y-76462619D02*
X70009523Y-75462619D01*
X70009523Y-75462619D02*
X69676190Y-76176904D01*
X69676190Y-76176904D02*
X69342857Y-75462619D01*
X69342857Y-75462619D02*
X69342857Y-76462619D01*
D23*
D22*
X76876189Y-76462619D02*
X76876189Y-75462619D01*
X76876189Y-75462619D02*
X76638094Y-75462619D01*
X76638094Y-75462619D02*
X76495237Y-75510238D01*
X76495237Y-75510238D02*
X76399999Y-75605476D01*
X76399999Y-75605476D02*
X76352380Y-75700714D01*
X76352380Y-75700714D02*
X76304761Y-75891190D01*
X76304761Y-75891190D02*
X76304761Y-76034047D01*
X76304761Y-76034047D02*
X76352380Y-76224523D01*
X76352380Y-76224523D02*
X76399999Y-76319761D01*
X76399999Y-76319761D02*
X76495237Y-76415000D01*
X76495237Y-76415000D02*
X76638094Y-76462619D01*
X76638094Y-76462619D02*
X76876189Y-76462619D01*
X75876189Y-76462619D02*
X75876189Y-75462619D01*
X74828571Y-76462619D02*
X75161904Y-75986428D01*
X75399999Y-76462619D02*
X75399999Y-75462619D01*
X75399999Y-75462619D02*
X75019047Y-75462619D01*
X75019047Y-75462619D02*
X74923809Y-75510238D01*
X74923809Y-75510238D02*
X74876190Y-75557857D01*
X74876190Y-75557857D02*
X74828571Y-75653095D01*
X74828571Y-75653095D02*
X74828571Y-75795952D01*
X74828571Y-75795952D02*
X74876190Y-75891190D01*
X74876190Y-75891190D02*
X74923809Y-75938809D01*
X74923809Y-75938809D02*
X75019047Y-75986428D01*
X75019047Y-75986428D02*
X75399999Y-75986428D01*
X73876190Y-76462619D02*
X74447618Y-76462619D01*
X74161904Y-76462619D02*
X74161904Y-75462619D01*
X74161904Y-75462619D02*
X74257142Y-75605476D01*
X74257142Y-75605476D02*
X74352380Y-75700714D01*
X74352380Y-75700714D02*
X74447618Y-75748333D01*
D10*
X73045000Y-65140000D03*
D11*
X73045000Y-62600000D03*
X73045000Y-60060000D03*
D12*
X23400000Y-44475000D03*
D13*
X23400000Y-47015000D03*
X23400000Y-49555000D03*
X31020000Y-49555000D03*
X31020000Y-47015000D03*
X31020000Y-44475000D03*
D14*
X63780000Y-43400000D03*
D13*
X53620000Y-43400000D03*
D14*
X35900000Y-24420000D03*
D13*
X35900000Y-34580000D03*
D10*
X46645000Y-65500000D03*
D11*
X46645000Y-62960000D03*
X46645000Y-60420000D03*
D15*
X55700000Y-70740000D03*
X55700000Y-78260000D03*
X60700000Y-70740000D03*
X60700000Y-78260000D03*
X65700000Y-70740000D03*
X65700000Y-78260000D03*
X70700000Y-78260000D03*
X70700000Y-70740000D03*
X75700000Y-78260000D03*
X75700000Y-70740000D03*
D16*
X31020000Y-53990000D03*
D17*
X23400000Y-53990000D03*
D16*
X23310000Y-57980000D03*
D17*
X30930000Y-57980000D03*
D12*
X42400000Y-48975000D03*
D13*
X42400000Y-51515000D03*
X42400000Y-54055000D03*
X50020000Y-54055000D03*
X50020000Y-51515000D03*
X50020000Y-48975000D03*
D12*
X41050000Y-38100000D03*
D13*
X43590000Y-38100000D03*
X46130000Y-38100000D03*
X48670000Y-38100000D03*
X51210000Y-38100000D03*
X53750000Y-38100000D03*
X56290000Y-38100000D03*
X58830000Y-38100000D03*
X61370000Y-38100000D03*
X61370000Y-30480000D03*
X58830000Y-30480000D03*
X56290000Y-30480000D03*
X53750000Y-30480000D03*
X51210000Y-30480000D03*
X48670000Y-30480000D03*
X46130000Y-30480000D03*
X43590000Y-30480000D03*
X41050000Y-30480000D03*
D14*
X65900000Y-67480000D03*
D13*
X65900000Y-57320000D03*
D10*
X59645000Y-65040000D03*
D11*
X59645000Y-62500000D03*
X59645000Y-59960000D03*
D14*
X67420000Y-43400000D03*
D13*
X77580000Y-43400000D03*
D12*
X55400000Y-48975000D03*
D13*
X55400000Y-51515000D03*
X55400000Y-54055000D03*
X63020000Y-54055000D03*
X63020000Y-51515000D03*
X63020000Y-48975000D03*
D14*
X52700000Y-67280000D03*
D13*
X52700000Y-57120000D03*
D18*
X72667500Y-24550000D03*
D19*
X72667500Y-27050000D03*
X72667500Y-29550000D03*
X72667500Y-32050000D03*
D14*
X41200000Y-26300000D03*
X41200000Y-23800000D03*
X40200000Y-67280000D03*
D13*
X40200000Y-57120000D03*
D12*
X68900000Y-48975000D03*
D13*
X68900000Y-51515000D03*
X68900000Y-54055000D03*
X76520000Y-54055000D03*
X76520000Y-51515000D03*
X76520000Y-48975000D03*
D16*
X23410000Y-66000000D03*
D17*
X31030000Y-66000000D03*
D14*
X32280000Y-71500000D03*
D13*
X22120000Y-71500000D03*
D16*
X31050000Y-61990000D03*
D17*
X23430000Y-61990000D03*
D14*
X49780000Y-43400000D03*
D13*
X39620000Y-43400000D03*
D20*
X27732500Y-32050000D03*
D19*
X27732500Y-29550000D03*
X27732500Y-27050000D03*
X27732500Y-24550000D03*
D14*
X57200000Y-26300000D03*
X57200000Y-23800000D03*
D21*
X51650000Y-25300000D03*
X46750000Y-25300000D03*
D15*
X38200000Y-70740000D03*
X38200000Y-78260000D03*
X43200000Y-78260000D03*
X43200000Y-70740000D03*
D14*
X32280000Y-75500000D03*
D13*
X22120000Y-75500000D03*
D24*
X60200000Y-28300000D02*
X52200000Y-28300000D01*
X27732500Y-24550000D02*
X35770000Y-24550000D01*
X37580000Y-24420000D02*
X35900000Y-24420000D01*
X72667500Y-24550000D02*
X63950000Y-24550000D01*
X35770000Y-24550000D02*
X35900000Y-24420000D01*
X51210000Y-29290000D02*
X51210000Y-30480000D01*
X39800000Y-22200000D02*
X37580000Y-24420000D01*
X61600000Y-22200000D02*
X39800000Y-22200000D01*
X63950000Y-24550000D02*
X60200000Y-28300000D01*
X52200000Y-28300000D02*
X51210000Y-29290000D01*
X63950000Y-24550000D02*
X61600000Y-22200000D01*
X25500000Y-23800000D02*
X25500000Y-25900000D01*
X26650000Y-27050000D02*
X27732500Y-27050000D01*
X72667500Y-27050000D02*
X66950000Y-27050000D01*
X75500000Y-25700000D02*
X75500000Y-23200000D01*
X73800000Y-21500000D02*
X27800000Y-21500000D01*
X25500000Y-25900000D02*
X26650000Y-27050000D01*
X75500000Y-23200000D02*
X73800000Y-21500000D01*
X63520000Y-30480000D02*
X61370000Y-30480000D01*
X27800000Y-21500000D02*
X25500000Y-23800000D01*
X66950000Y-27050000D02*
X63520000Y-30480000D01*
X72667500Y-27050000D02*
X74150000Y-27050000D01*
X74150000Y-27050000D02*
X75500000Y-25700000D01*
X26550000Y-29550000D02*
X27732500Y-29550000D01*
X60350000Y-32000000D02*
X68600000Y-32000000D01*
X71050000Y-29550000D02*
X72667500Y-29550000D01*
X24000000Y-27000000D02*
X26550000Y-29550000D01*
X75124520Y-20624520D02*
X26675480Y-20624520D01*
X26675480Y-20624520D02*
X24000000Y-23300000D01*
X74250000Y-29550000D02*
X76900000Y-26900000D01*
X72667500Y-29550000D02*
X74250000Y-29550000D01*
X76900000Y-26900000D02*
X76900000Y-22400000D01*
X58830000Y-30480000D02*
X60350000Y-32000000D01*
X76900000Y-22400000D02*
X75124520Y-20624520D01*
X68600000Y-32000000D02*
X71050000Y-29550000D01*
X24000000Y-23300000D02*
X24000000Y-27000000D01*
X52650000Y-26300000D02*
X57200000Y-26300000D01*
X48670000Y-30480000D02*
X48670000Y-28280000D01*
X51650000Y-25300000D02*
X52650000Y-26300000D01*
X48670000Y-28280000D02*
X51650000Y-25300000D01*
X45750000Y-26300000D02*
X46750000Y-25300000D01*
X41200000Y-26300000D02*
X45750000Y-26300000D01*
X46130000Y-25920000D02*
X46750000Y-25300000D01*
X46130000Y-30480000D02*
X46130000Y-25920000D01*
X21300000Y-70680000D02*
X22120000Y-71500000D01*
X21900000Y-58000000D02*
X21300000Y-58600000D01*
X21300000Y-58600000D02*
X21300000Y-70680000D01*
X23390000Y-58000000D02*
X21900000Y-58000000D01*
X23390000Y-54000000D02*
X23390000Y-58000000D01*
X23400000Y-47015000D02*
X28300000Y-51915000D01*
X28500000Y-60500000D02*
X28500000Y-63490000D01*
X28300000Y-51915000D02*
X28300000Y-55290000D01*
X29785489Y-59224511D02*
X29775489Y-59224511D01*
X31010000Y-58000000D02*
X29785489Y-59224511D01*
X28500000Y-63490000D02*
X31010000Y-66000000D01*
X28300000Y-55290000D02*
X31010000Y-58000000D01*
X29775489Y-59224511D02*
X28500000Y-60500000D01*
D25*
X60200000Y-74000000D02*
X62200000Y-74000000D01*
X60200000Y-74000000D02*
X56440000Y-74000000D01*
X61836618Y-78260000D02*
X62300000Y-77796618D01*
X62200000Y-74000000D02*
X67440000Y-74000000D01*
X62300000Y-77796618D02*
X62300000Y-74100000D01*
X67440000Y-74000000D02*
X70700000Y-70740000D01*
X60700000Y-78260000D02*
X61836618Y-78260000D01*
X38200000Y-74000000D02*
X56440000Y-74000000D01*
X62300000Y-74100000D02*
X62200000Y-74000000D01*
X60700000Y-70740000D02*
X61240000Y-70740000D01*
X32280000Y-75500000D02*
X36700000Y-75500000D01*
X61240000Y-70740000D02*
X62300000Y-71800000D01*
X62300000Y-71800000D02*
X62300000Y-74100000D01*
X36700000Y-75500000D02*
X38200000Y-74000000D01*
X38200000Y-78260000D02*
X38200000Y-70740000D01*
X70780000Y-62600000D02*
X73045000Y-62600000D01*
X40200000Y-67280000D02*
X43200000Y-64280000D01*
X33600000Y-71500000D02*
X37820000Y-67280000D01*
X46645000Y-62960000D02*
X48380000Y-62960000D01*
X44145000Y-62960000D02*
X46645000Y-62960000D01*
X65900000Y-67480000D02*
X70780000Y-62600000D01*
X43200000Y-70740000D02*
X43200000Y-63905000D01*
X37820000Y-67280000D02*
X40200000Y-67280000D01*
X32280000Y-71500000D02*
X33600000Y-71500000D01*
X48380000Y-62960000D02*
X52700000Y-67280000D01*
X60920000Y-62500000D02*
X65900000Y-67480000D01*
X43200000Y-64280000D02*
X43200000Y-63905000D01*
X52700000Y-67280000D02*
X57480000Y-62500000D01*
X59645000Y-62500000D02*
X60920000Y-62500000D01*
X43200000Y-63905000D02*
X44145000Y-62960000D01*
X57480000Y-62500000D02*
X59645000Y-62500000D01*
D24*
X46645000Y-60420000D02*
X46645000Y-57430000D01*
X46645000Y-57430000D02*
X50020000Y-54055000D01*
X59645000Y-59960000D02*
X59645000Y-57430000D01*
X59645000Y-57430000D02*
X63020000Y-54055000D01*
X73045000Y-60060000D02*
X73045000Y-57530000D01*
X73045000Y-57530000D02*
X76520000Y-54055000D01*
X35900000Y-42135000D02*
X31020000Y-47015000D01*
X35900000Y-34580000D02*
X39280000Y-34580000D01*
X41200000Y-36500000D02*
X52150000Y-36500000D01*
X52150000Y-36500000D02*
X53750000Y-38100000D01*
X39280000Y-34580000D02*
X41200000Y-36500000D01*
X35900000Y-34580000D02*
X35900000Y-42135000D01*
X63700000Y-33000000D02*
X46110000Y-33000000D01*
X67550000Y-46350000D02*
X70700000Y-43200000D01*
X46110000Y-33000000D02*
X43590000Y-30480000D01*
X49780000Y-43400000D02*
X51380000Y-41800000D01*
X51380000Y-41800000D02*
X54900000Y-41800000D01*
X59450000Y-46350000D02*
X67550000Y-46350000D01*
X70700000Y-43200000D02*
X70700000Y-40000000D01*
X59450000Y-46350000D02*
X54900000Y-41800000D01*
X70700000Y-40000000D02*
X63700000Y-33000000D01*
X39620000Y-46195000D02*
X39620000Y-43400000D01*
X39620000Y-46195000D02*
X42400000Y-48975000D01*
X63780000Y-41920000D02*
X67200000Y-38500000D01*
X44570000Y-34000000D02*
X41050000Y-30480000D01*
X63200000Y-34000000D02*
X44570000Y-34000000D01*
X67200000Y-38000000D02*
X63200000Y-34000000D01*
X63780000Y-43400000D02*
X63780000Y-41920000D01*
X67200000Y-38500000D02*
X67200000Y-38000000D01*
X53620000Y-43400000D02*
X53620000Y-47195000D01*
X53620000Y-47195000D02*
X55400000Y-48975000D01*
X42700000Y-41000000D02*
X55200000Y-41000000D01*
X59500000Y-45300000D02*
X65520000Y-45300000D01*
X41050000Y-39350000D02*
X42700000Y-41000000D01*
X55200000Y-41000000D02*
X59500000Y-45300000D01*
X65520000Y-45300000D02*
X67620000Y-43200000D01*
X41050000Y-38100000D02*
X41050000Y-39350000D01*
X72005000Y-48975000D02*
X77780000Y-43200000D01*
X68900000Y-48975000D02*
X72005000Y-48975000D01*
X46200000Y-54500000D02*
X43580000Y-57120000D01*
X46200000Y-54500000D02*
X46200000Y-52795000D01*
X46200000Y-52795000D02*
X50020000Y-48975000D01*
X43580000Y-57120000D02*
X40200000Y-57120000D01*
X59200000Y-52795000D02*
X63020000Y-48975000D01*
X57080000Y-57120000D02*
X52700000Y-57120000D01*
X59200000Y-55000000D02*
X59200000Y-52795000D01*
X59200000Y-55000000D02*
X57080000Y-57120000D01*
X72400000Y-54900000D02*
X72400000Y-53095000D01*
X69980000Y-57320000D02*
X72400000Y-54900000D01*
X65900000Y-57320000D02*
X69980000Y-57320000D01*
X72400000Y-53095000D02*
X76520000Y-48975000D01*
D25*
X46645000Y-67345000D02*
X50040000Y-70740000D01*
X50040000Y-70740000D02*
X55700000Y-70740000D01*
X46645000Y-65500000D02*
X46645000Y-67345000D01*
X65700000Y-70740000D02*
X65345000Y-70740000D01*
X65345000Y-70740000D02*
X59645000Y-65040000D01*
X77040000Y-78260000D02*
X78600000Y-76700000D01*
X78600000Y-76700000D02*
X78600000Y-73200000D01*
X73045000Y-65140000D02*
X73045000Y-68085000D01*
X78600000Y-73200000D02*
X76140000Y-70740000D01*
X76140000Y-70740000D02*
X75700000Y-70740000D01*
X75700000Y-78260000D02*
X77040000Y-78260000D01*
X73045000Y-68085000D02*
X75700000Y-70740000D01*
D24*
X31010000Y-54000000D02*
X33000000Y-54000000D01*
X33000000Y-54000000D02*
X33700000Y-54700000D01*
X23400000Y-44475000D02*
X31010000Y-52085000D01*
X33700000Y-61100000D02*
X32800000Y-62000000D01*
X32800000Y-62000000D02*
X31010000Y-62000000D01*
X33700000Y-54700000D02*
X33700000Y-61100000D01*
X31010000Y-52085000D02*
X31010000Y-54000000D01*
X24600000Y-67210000D02*
X24600000Y-73020000D01*
X23390000Y-66000000D02*
X23390000Y-62000000D01*
X24600000Y-73020000D02*
X22120000Y-75500000D01*
X23390000Y-66000000D02*
X24600000Y-67210000D01*
%TA.AperFunction,Conductor*%
G36*
X25085079Y-20814233D02*
G01*
X25129812Y-20852439D01*
X25152325Y-20906789D01*
X25147709Y-20965436D01*
X25116971Y-21015596D01*
X23443625Y-22688939D01*
X23436102Y-22695874D01*
X23397157Y-22728954D01*
X23350617Y-22790177D01*
X23348517Y-22792863D01*
X23300015Y-22853202D01*
X23288713Y-22871424D01*
X23256198Y-22941700D01*
X23254726Y-22944772D01*
X23220332Y-23014123D01*
X23213211Y-23034353D01*
X23196566Y-23109970D01*
X23195788Y-23113289D01*
X23177104Y-23188420D01*
X23174500Y-23209690D01*
X23174500Y-23287097D01*
X23174454Y-23290509D01*
X23172356Y-23367925D01*
X23174500Y-23390466D01*
X23174500Y-26961328D01*
X23174084Y-26971553D01*
X23169937Y-27022483D01*
X23180317Y-27098682D01*
X23180731Y-27102063D01*
X23189104Y-27179035D01*
X23193993Y-27199903D01*
X23220693Y-27272579D01*
X23221826Y-27275796D01*
X23246547Y-27349164D01*
X23255813Y-27368499D01*
X23256095Y-27368941D01*
X23256096Y-27368942D01*
X23291439Y-27424236D01*
X23297485Y-27433694D01*
X23299283Y-27436592D01*
X23339225Y-27502974D01*
X23352423Y-27519856D01*
X23352799Y-27520232D01*
X23352800Y-27520233D01*
X23407170Y-27574603D01*
X23409514Y-27577011D01*
X23440749Y-27609986D01*
X23462796Y-27633260D01*
X23480256Y-27647689D01*
X25938927Y-30106360D01*
X25945863Y-30113883D01*
X25978956Y-30152843D01*
X26040213Y-30199410D01*
X26042846Y-30201469D01*
X26081046Y-30232174D01*
X26103207Y-30249987D01*
X26121418Y-30261283D01*
X26121899Y-30261505D01*
X26121901Y-30261507D01*
X26191704Y-30293801D01*
X26194761Y-30295267D01*
X26231191Y-30313335D01*
X26278903Y-30354638D01*
X26402566Y-30533796D01*
X26440706Y-30573503D01*
X26537083Y-30673841D01*
X26568344Y-30730148D01*
X26567696Y-30794550D01*
X26535307Y-30850218D01*
X26408866Y-30976659D01*
X26315840Y-31127477D01*
X26260106Y-31295671D01*
X26249500Y-31399497D01*
X26249500Y-31796000D01*
X29215500Y-31796000D01*
X29215500Y-31399497D01*
X29204893Y-31295671D01*
X29149159Y-31127477D01*
X29056132Y-30976657D01*
X28929611Y-30850136D01*
X28896367Y-30791194D01*
X28898411Y-30723555D01*
X28935154Y-30666728D01*
X28979361Y-30627564D01*
X28979362Y-30627563D01*
X29137688Y-30433650D01*
X29262857Y-30216850D01*
X29351628Y-29982780D01*
X29401702Y-29737500D01*
X29411782Y-29487365D01*
X29381607Y-29238851D01*
X29311959Y-28998396D01*
X29204641Y-28772228D01*
X29203988Y-28771282D01*
X29062433Y-28566203D01*
X28900414Y-28397526D01*
X28889016Y-28385659D01*
X28889013Y-28385656D01*
X28887488Y-28384069D01*
X28855627Y-28325294D01*
X28858318Y-28258493D01*
X28894804Y-28202474D01*
X28979362Y-28127563D01*
X29137688Y-27933650D01*
X29262857Y-27716850D01*
X29351628Y-27482780D01*
X29401702Y-27237500D01*
X29411782Y-26987365D01*
X29381607Y-26738851D01*
X29311959Y-26498396D01*
X29204641Y-26272228D01*
X29204640Y-26272226D01*
X29062433Y-26066203D01*
X28948640Y-25947734D01*
X28889016Y-25885659D01*
X28889013Y-25885656D01*
X28887488Y-25884069D01*
X28855627Y-25825294D01*
X28858318Y-25758493D01*
X28894804Y-25702474D01*
X28979362Y-25627563D01*
X29137688Y-25433650D01*
X29137688Y-25433649D01*
X29144121Y-25425771D01*
X29146044Y-25427341D01*
X29181010Y-25392379D01*
X29244007Y-25375500D01*
X34684843Y-25375500D01*
X34735457Y-25386113D01*
X34777541Y-25416160D01*
X34880256Y-25527738D01*
X35076491Y-25680474D01*
X35295190Y-25798828D01*
X35530386Y-25879571D01*
X35775665Y-25920500D01*
X36024332Y-25920500D01*
X36024335Y-25920500D01*
X36269614Y-25879571D01*
X36504810Y-25798828D01*
X36723509Y-25680474D01*
X36919744Y-25527738D01*
X37088164Y-25344785D01*
X37115733Y-25302585D01*
X37161248Y-25260686D01*
X37221218Y-25245500D01*
X37541328Y-25245500D01*
X37551553Y-25245916D01*
X37557331Y-25246386D01*
X37602485Y-25250063D01*
X37678718Y-25239676D01*
X37682062Y-25239267D01*
X37742887Y-25232652D01*
X37759039Y-25230896D01*
X37779891Y-25226009D01*
X37780395Y-25225823D01*
X37780400Y-25225823D01*
X37852583Y-25199303D01*
X37855773Y-25198180D01*
X37928662Y-25173622D01*
X37928667Y-25173618D01*
X37929171Y-25173449D01*
X37948489Y-25164192D01*
X37948936Y-25163906D01*
X37948942Y-25163904D01*
X38013759Y-25122473D01*
X38016579Y-25120722D01*
X38082517Y-25081050D01*
X38082523Y-25081043D01*
X38082982Y-25080768D01*
X38099854Y-25067579D01*
X38106996Y-25060437D01*
X38154639Y-25012792D01*
X38156972Y-25010521D01*
X38212875Y-24957569D01*
X38212877Y-24957564D01*
X38213264Y-24957199D01*
X38227688Y-24939744D01*
X38650044Y-24517388D01*
X39692031Y-23475402D01*
X39744286Y-23444004D01*
X39805167Y-23440813D01*
X39860419Y-23466577D01*
X39897108Y-23515265D01*
X39906646Y-23575479D01*
X39887004Y-23799999D01*
X39906951Y-24027999D01*
X39966186Y-24249070D01*
X40062912Y-24456497D01*
X40112900Y-24527888D01*
X41110904Y-23529885D01*
X41167388Y-23497273D01*
X41232610Y-23497273D01*
X41289094Y-23529885D01*
X42287097Y-24527888D01*
X42287099Y-24527888D01*
X42337087Y-24456498D01*
X42433813Y-24249070D01*
X42493048Y-24027999D01*
X42512995Y-23800000D01*
X42493048Y-23572000D01*
X42433813Y-23350929D01*
X42365648Y-23204750D01*
X42354113Y-23143260D01*
X42373576Y-23083800D01*
X42419238Y-23041032D01*
X42479843Y-23025500D01*
X55920157Y-23025500D01*
X55980762Y-23041032D01*
X56026424Y-23083800D01*
X56045887Y-23143260D01*
X56034352Y-23204750D01*
X55966186Y-23350929D01*
X55906951Y-23572000D01*
X55887004Y-23800000D01*
X55906951Y-24027999D01*
X55966186Y-24249070D01*
X56062912Y-24456497D01*
X56112900Y-24527888D01*
X57110904Y-23529885D01*
X57167388Y-23497273D01*
X57232610Y-23497273D01*
X57289094Y-23529885D01*
X58287097Y-24527888D01*
X58287099Y-24527888D01*
X58337087Y-24456498D01*
X58433813Y-24249070D01*
X58493048Y-24027999D01*
X58512995Y-23800000D01*
X58493048Y-23572000D01*
X58433813Y-23350929D01*
X58365648Y-23204750D01*
X58354113Y-23143260D01*
X58373576Y-23083800D01*
X58419238Y-23041032D01*
X58479843Y-23025500D01*
X61205877Y-23025500D01*
X61254095Y-23035091D01*
X61294972Y-23062405D01*
X62693471Y-24460904D01*
X62726083Y-24517388D01*
X62726083Y-24582610D01*
X62693471Y-24639094D01*
X59894971Y-27437595D01*
X59854094Y-27464909D01*
X59805876Y-27474500D01*
X58445537Y-27474500D01*
X58389264Y-27461236D01*
X58344839Y-27424236D01*
X58321615Y-27371291D01*
X58324482Y-27313548D01*
X58352835Y-27263163D01*
X58376460Y-27237499D01*
X58388164Y-27224785D01*
X58524173Y-27016607D01*
X58624063Y-26788881D01*
X58685108Y-26547821D01*
X58705643Y-26300000D01*
X58685108Y-26052179D01*
X58624063Y-25811119D01*
X58524173Y-25583393D01*
X58524172Y-25583391D01*
X58524171Y-25583389D01*
X58388166Y-25375217D01*
X58219744Y-25192262D01*
X58188314Y-25167799D01*
X58023509Y-25039526D01*
X57992237Y-25022602D01*
X57954825Y-24991741D01*
X57931840Y-24949034D01*
X57926689Y-24900809D01*
X57927888Y-24887097D01*
X57200001Y-24159210D01*
X57200000Y-24159210D01*
X56472109Y-24887099D01*
X56473309Y-24900812D01*
X56468157Y-24949036D01*
X56445173Y-24991742D01*
X56407760Y-25022603D01*
X56376494Y-25039523D01*
X56180255Y-25192262D01*
X56011834Y-25375216D01*
X55984265Y-25417415D01*
X55938752Y-25459314D01*
X55878782Y-25474500D01*
X53227884Y-25474500D01*
X53161901Y-25455842D01*
X53115460Y-25405393D01*
X53102314Y-25338095D01*
X53105471Y-25300000D01*
X53085620Y-25060437D01*
X53026610Y-24827409D01*
X52930049Y-24607272D01*
X52798571Y-24406031D01*
X52635764Y-24229175D01*
X52446067Y-24081528D01*
X52234656Y-23967118D01*
X52234655Y-23967117D01*
X52234652Y-23967116D01*
X52024180Y-23894862D01*
X52007297Y-23889066D01*
X51770192Y-23849500D01*
X51529808Y-23849500D01*
X51292703Y-23889066D01*
X51292700Y-23889066D01*
X51292700Y-23889067D01*
X51065347Y-23967116D01*
X50853931Y-24081529D01*
X50664232Y-24229178D01*
X50501432Y-24406027D01*
X50501430Y-24406029D01*
X50501429Y-24406031D01*
X50407370Y-24549999D01*
X50369949Y-24607275D01*
X50285632Y-24799500D01*
X50273390Y-24827409D01*
X50214380Y-25060437D01*
X50205806Y-25163904D01*
X50194529Y-25300000D01*
X50211747Y-25507792D01*
X50204479Y-25561563D01*
X50175272Y-25607292D01*
X48113631Y-27668933D01*
X48106108Y-27675869D01*
X48067157Y-27708954D01*
X48020617Y-27770177D01*
X48018517Y-27772863D01*
X47970015Y-27833202D01*
X47958713Y-27851424D01*
X47926198Y-27921700D01*
X47924726Y-27924772D01*
X47890332Y-27994123D01*
X47883211Y-28014353D01*
X47866566Y-28089970D01*
X47865788Y-28093289D01*
X47847104Y-28168420D01*
X47844500Y-28189690D01*
X47844500Y-28267097D01*
X47844454Y-28270509D01*
X47842356Y-28347925D01*
X47844500Y-28370466D01*
X47844500Y-29159478D01*
X47831697Y-29214817D01*
X47795891Y-29258910D01*
X47650252Y-29372265D01*
X47492701Y-29543412D01*
X47434285Y-29579321D01*
X47365715Y-29579321D01*
X47307299Y-29543412D01*
X47149747Y-29372265D01*
X47149746Y-29372264D01*
X47149744Y-29372262D01*
X47004108Y-29258909D01*
X46968303Y-29214817D01*
X46955500Y-29159478D01*
X46955500Y-26842981D01*
X46969076Y-26786088D01*
X47006878Y-26741455D01*
X47060761Y-26718700D01*
X47079684Y-26715541D01*
X47107297Y-26710934D01*
X47334656Y-26632882D01*
X47546067Y-26518472D01*
X47735764Y-26370825D01*
X47898571Y-26193969D01*
X48030049Y-25992728D01*
X48126610Y-25772591D01*
X48185620Y-25539563D01*
X48205471Y-25300000D01*
X48185620Y-25060437D01*
X48126610Y-24827409D01*
X48030049Y-24607272D01*
X47898571Y-24406031D01*
X47735764Y-24229175D01*
X47546067Y-24081528D01*
X47334656Y-23967118D01*
X47334655Y-23967117D01*
X47334652Y-23967116D01*
X47124180Y-23894862D01*
X47107297Y-23889066D01*
X46870192Y-23849500D01*
X46629808Y-23849500D01*
X46392703Y-23889066D01*
X46392700Y-23889066D01*
X46392700Y-23889067D01*
X46165347Y-23967116D01*
X45953931Y-24081529D01*
X45764232Y-24229178D01*
X45601432Y-24406027D01*
X45601430Y-24406029D01*
X45601429Y-24406031D01*
X45507370Y-24549999D01*
X45469949Y-24607275D01*
X45385632Y-24799500D01*
X45373390Y-24827409D01*
X45314380Y-25060437D01*
X45305806Y-25163904D01*
X45294529Y-25299999D01*
X45297686Y-25338095D01*
X45284540Y-25405393D01*
X45238099Y-25455842D01*
X45172116Y-25474500D01*
X42521218Y-25474500D01*
X42461248Y-25459314D01*
X42415735Y-25417415D01*
X42388165Y-25375216D01*
X42219744Y-25192262D01*
X42188314Y-25167799D01*
X42023509Y-25039526D01*
X41992237Y-25022602D01*
X41954825Y-24991741D01*
X41931840Y-24949034D01*
X41926689Y-24900809D01*
X41927888Y-24887097D01*
X41200001Y-24159210D01*
X41200000Y-24159210D01*
X40472109Y-24887099D01*
X40473309Y-24900812D01*
X40468157Y-24949036D01*
X40445173Y-24991742D01*
X40407760Y-25022603D01*
X40376494Y-25039523D01*
X40180255Y-25192262D01*
X40011833Y-25375217D01*
X39875828Y-25583389D01*
X39775935Y-25811123D01*
X39715354Y-26050355D01*
X39714892Y-26052179D01*
X39694357Y-26300000D01*
X39714892Y-26547821D01*
X39714892Y-26547824D01*
X39714893Y-26547825D01*
X39775935Y-26788876D01*
X39775936Y-26788879D01*
X39775937Y-26788881D01*
X39805536Y-26856360D01*
X39875828Y-27016610D01*
X40011833Y-27224782D01*
X40011836Y-27224785D01*
X40180256Y-27407738D01*
X40376491Y-27560474D01*
X40595190Y-27678828D01*
X40830386Y-27759571D01*
X41075665Y-27800500D01*
X41324332Y-27800500D01*
X41324335Y-27800500D01*
X41569614Y-27759571D01*
X41804810Y-27678828D01*
X42023509Y-27560474D01*
X42219744Y-27407738D01*
X42388164Y-27224785D01*
X42399826Y-27206934D01*
X42415735Y-27182585D01*
X42461248Y-27140686D01*
X42521218Y-27125500D01*
X45178500Y-27125500D01*
X45241500Y-27142381D01*
X45287619Y-27188500D01*
X45304500Y-27251500D01*
X45304500Y-29159478D01*
X45291697Y-29214817D01*
X45255891Y-29258910D01*
X45110252Y-29372265D01*
X44952701Y-29543412D01*
X44894285Y-29579321D01*
X44825715Y-29579321D01*
X44767299Y-29543412D01*
X44609747Y-29372265D01*
X44609746Y-29372264D01*
X44609744Y-29372262D01*
X44413509Y-29219526D01*
X44194810Y-29101172D01*
X44194809Y-29101171D01*
X44194806Y-29101170D01*
X44027994Y-29043904D01*
X43959614Y-29020429D01*
X43714335Y-28979500D01*
X43465665Y-28979500D01*
X43220386Y-29020429D01*
X43220383Y-29020429D01*
X43220383Y-29020430D01*
X42985193Y-29101170D01*
X42766489Y-29219527D01*
X42570252Y-29372265D01*
X42412701Y-29543412D01*
X42354285Y-29579321D01*
X42285715Y-29579321D01*
X42227299Y-29543412D01*
X42069747Y-29372265D01*
X42069746Y-29372264D01*
X42069744Y-29372262D01*
X41873509Y-29219526D01*
X41654810Y-29101172D01*
X41654809Y-29101171D01*
X41654806Y-29101170D01*
X41487994Y-29043904D01*
X41419614Y-29020429D01*
X41174335Y-28979500D01*
X40925665Y-28979500D01*
X40680386Y-29020429D01*
X40680383Y-29020429D01*
X40680383Y-29020430D01*
X40445193Y-29101170D01*
X40226489Y-29219527D01*
X40030255Y-29372262D01*
X39861833Y-29555217D01*
X39725828Y-29763389D01*
X39625935Y-29991123D01*
X39568774Y-30216850D01*
X39564892Y-30232179D01*
X39544357Y-30480000D01*
X39564892Y-30727821D01*
X39564892Y-30727824D01*
X39564893Y-30727825D01*
X39625935Y-30968876D01*
X39625936Y-30968879D01*
X39625937Y-30968881D01*
X39629348Y-30976657D01*
X39725828Y-31196610D01*
X39861833Y-31404782D01*
X39987995Y-31541830D01*
X40030256Y-31587738D01*
X40226491Y-31740474D01*
X40445190Y-31858828D01*
X40680386Y-31939571D01*
X40925665Y-31980500D01*
X41174335Y-31980500D01*
X41174337Y-31980500D01*
X41240398Y-31969476D01*
X41289244Y-31961325D01*
X41348423Y-31965613D01*
X41399078Y-31996511D01*
X43958927Y-34556360D01*
X43965863Y-34563883D01*
X43998956Y-34602843D01*
X44060213Y-34649410D01*
X44062846Y-34651469D01*
X44122791Y-34699653D01*
X44123207Y-34699987D01*
X44141424Y-34711287D01*
X44211713Y-34743806D01*
X44214750Y-34745260D01*
X44283650Y-34779433D01*
X44283652Y-34779433D01*
X44284129Y-34779670D01*
X44304338Y-34786786D01*
X44379988Y-34803437D01*
X44383242Y-34804199D01*
X44457900Y-34822766D01*
X44458427Y-34822897D01*
X44479679Y-34825500D01*
X44480221Y-34825500D01*
X44557097Y-34825500D01*
X44560508Y-34825545D01*
X44637392Y-34827629D01*
X44637393Y-34827628D01*
X44637925Y-34827643D01*
X44660466Y-34825500D01*
X62805877Y-34825500D01*
X62854095Y-34835091D01*
X62894972Y-34862405D01*
X66193471Y-38160904D01*
X66226083Y-38217388D01*
X66226083Y-38282610D01*
X66193471Y-38339094D01*
X63223631Y-41308933D01*
X63216108Y-41315869D01*
X63177157Y-41348954D01*
X63130617Y-41410177D01*
X63128517Y-41412863D01*
X63080015Y-41473202D01*
X63068713Y-41491424D01*
X63036198Y-41561700D01*
X63034726Y-41564772D01*
X63000332Y-41634123D01*
X62993211Y-41654353D01*
X62976566Y-41729970D01*
X62975788Y-41733289D01*
X62957106Y-41808414D01*
X62954500Y-41829696D01*
X62954500Y-41907097D01*
X62954454Y-41910509D01*
X62952356Y-41987925D01*
X62954500Y-42010466D01*
X62954500Y-42079478D01*
X62941697Y-42134817D01*
X62905891Y-42178910D01*
X62760255Y-42292262D01*
X62591833Y-42475217D01*
X62455828Y-42683389D01*
X62355935Y-42911123D01*
X62294893Y-43152174D01*
X62294892Y-43152179D01*
X62274357Y-43400000D01*
X62294892Y-43647821D01*
X62294892Y-43647824D01*
X62294893Y-43647825D01*
X62355935Y-43888876D01*
X62355936Y-43888879D01*
X62355937Y-43888881D01*
X62455827Y-44116607D01*
X62455828Y-44116609D01*
X62562305Y-44279585D01*
X62582714Y-44343293D01*
X62567636Y-44408469D01*
X62521320Y-44456741D01*
X62456822Y-44474500D01*
X59894124Y-44474500D01*
X59845906Y-44464909D01*
X59805029Y-44437595D01*
X55811073Y-40443639D01*
X55804136Y-40436115D01*
X55771043Y-40397156D01*
X55709836Y-40350628D01*
X55707147Y-40348526D01*
X55646792Y-40300012D01*
X55628581Y-40288716D01*
X55558284Y-40256192D01*
X55555209Y-40254718D01*
X55485881Y-40220335D01*
X55465653Y-40213212D01*
X55390037Y-40196567D01*
X55386718Y-40195789D01*
X55311589Y-40177106D01*
X55290317Y-40174500D01*
X55289779Y-40174500D01*
X55212903Y-40174500D01*
X55209491Y-40174454D01*
X55132074Y-40172356D01*
X55109534Y-40174500D01*
X43094124Y-40174500D01*
X43045906Y-40164909D01*
X43005029Y-40137595D01*
X42393140Y-39525706D01*
X42360528Y-39469220D01*
X42360529Y-39403996D01*
X42393140Y-39347516D01*
X42405472Y-39335185D01*
X42437248Y-39282620D01*
X42488658Y-39235142D01*
X42557475Y-39222418D01*
X42622464Y-39248373D01*
X42766491Y-39360474D01*
X42985190Y-39478828D01*
X43220386Y-39559571D01*
X43465665Y-39600500D01*
X43714332Y-39600500D01*
X43714335Y-39600500D01*
X43959614Y-39559571D01*
X44194810Y-39478828D01*
X44413509Y-39360474D01*
X44609744Y-39207738D01*
X44767298Y-39036588D01*
X44825715Y-39000679D01*
X44894285Y-39000679D01*
X44952701Y-39036588D01*
X45048673Y-39140841D01*
X45110256Y-39207738D01*
X45306491Y-39360474D01*
X45525190Y-39478828D01*
X45760386Y-39559571D01*
X46005665Y-39600500D01*
X46254332Y-39600500D01*
X46254335Y-39600500D01*
X46499614Y-39559571D01*
X46734810Y-39478828D01*
X46953509Y-39360474D01*
X47149744Y-39207738D01*
X47307298Y-39036588D01*
X47365715Y-39000679D01*
X47434285Y-39000679D01*
X47492701Y-39036588D01*
X47588673Y-39140841D01*
X47650256Y-39207738D01*
X47846491Y-39360474D01*
X48065190Y-39478828D01*
X48300386Y-39559571D01*
X48545665Y-39600500D01*
X48794332Y-39600500D01*
X48794335Y-39600500D01*
X49039614Y-39559571D01*
X49274810Y-39478828D01*
X49493509Y-39360474D01*
X49689744Y-39207738D01*
X49858164Y-39024785D01*
X49950627Y-38883260D01*
X49995250Y-38841848D01*
X50054083Y-38826192D01*
X50113388Y-38839948D01*
X50159322Y-38879905D01*
X50204189Y-38943981D01*
X50366018Y-39105810D01*
X50553501Y-39237087D01*
X50760929Y-39333813D01*
X50956000Y-39386082D01*
X50956000Y-37972000D01*
X50972881Y-37909000D01*
X51019000Y-37862881D01*
X51082000Y-37846000D01*
X51338000Y-37846000D01*
X51401000Y-37862881D01*
X51447119Y-37909000D01*
X51464000Y-37972000D01*
X51464000Y-39386082D01*
X51659070Y-39333813D01*
X51866498Y-39237087D01*
X52053981Y-39105810D01*
X52215808Y-38943983D01*
X52260676Y-38879905D01*
X52306609Y-38839948D01*
X52365915Y-38826191D01*
X52424748Y-38841847D01*
X52469373Y-38883260D01*
X52561833Y-39024783D01*
X52668673Y-39140841D01*
X52730256Y-39207738D01*
X52926491Y-39360474D01*
X53145190Y-39478828D01*
X53380386Y-39559571D01*
X53625665Y-39600500D01*
X53874332Y-39600500D01*
X53874335Y-39600500D01*
X54119614Y-39559571D01*
X54354810Y-39478828D01*
X54573509Y-39360474D01*
X54769744Y-39207738D01*
X54927298Y-39036588D01*
X54985715Y-39000679D01*
X55054285Y-39000679D01*
X55112701Y-39036588D01*
X55208673Y-39140841D01*
X55270256Y-39207738D01*
X55466491Y-39360474D01*
X55685190Y-39478828D01*
X55920386Y-39559571D01*
X56165665Y-39600500D01*
X56414332Y-39600500D01*
X56414335Y-39600500D01*
X56659614Y-39559571D01*
X56894810Y-39478828D01*
X57113509Y-39360474D01*
X57309744Y-39207738D01*
X57467298Y-39036588D01*
X57525715Y-39000679D01*
X57594285Y-39000679D01*
X57652701Y-39036588D01*
X57748673Y-39140841D01*
X57810256Y-39207738D01*
X58006491Y-39360474D01*
X58225190Y-39478828D01*
X58460386Y-39559571D01*
X58705665Y-39600500D01*
X58954332Y-39600500D01*
X58954335Y-39600500D01*
X59199614Y-39559571D01*
X59434810Y-39478828D01*
X59653509Y-39360474D01*
X59849744Y-39207738D01*
X60007298Y-39036588D01*
X60065715Y-39000679D01*
X60134285Y-39000679D01*
X60192701Y-39036588D01*
X60288673Y-39140841D01*
X60350256Y-39207738D01*
X60546491Y-39360474D01*
X60765190Y-39478828D01*
X61000386Y-39559571D01*
X61245665Y-39600500D01*
X61494332Y-39600500D01*
X61494335Y-39600500D01*
X61739614Y-39559571D01*
X61974810Y-39478828D01*
X62193509Y-39360474D01*
X62389744Y-39207738D01*
X62558164Y-39024785D01*
X62567939Y-39009824D01*
X62694171Y-38816610D01*
X62694170Y-38816610D01*
X62694173Y-38816607D01*
X62794063Y-38588881D01*
X62855108Y-38347821D01*
X62875643Y-38100000D01*
X62855108Y-37852179D01*
X62794063Y-37611119D01*
X62694173Y-37383393D01*
X62694172Y-37383391D01*
X62694171Y-37383389D01*
X62558166Y-37175217D01*
X62389744Y-36992262D01*
X62226000Y-36864815D01*
X62193509Y-36839526D01*
X61974810Y-36721172D01*
X61974809Y-36721171D01*
X61974806Y-36721170D01*
X61777863Y-36653560D01*
X61739614Y-36640429D01*
X61494335Y-36599500D01*
X61245665Y-36599500D01*
X61000386Y-36640429D01*
X61000383Y-36640429D01*
X61000383Y-36640430D01*
X60765193Y-36721170D01*
X60546489Y-36839527D01*
X60350252Y-36992265D01*
X60192701Y-37163412D01*
X60134285Y-37199321D01*
X60065715Y-37199321D01*
X60007299Y-37163412D01*
X59849747Y-36992265D01*
X59849746Y-36992264D01*
X59849744Y-36992262D01*
X59653509Y-36839526D01*
X59434810Y-36721172D01*
X59434809Y-36721171D01*
X59434806Y-36721170D01*
X59237863Y-36653560D01*
X59199614Y-36640429D01*
X58954335Y-36599500D01*
X58705665Y-36599500D01*
X58460386Y-36640429D01*
X58460383Y-36640429D01*
X58460383Y-36640430D01*
X58225193Y-36721170D01*
X58006489Y-36839527D01*
X57810252Y-36992265D01*
X57652701Y-37163412D01*
X57594285Y-37199321D01*
X57525715Y-37199321D01*
X57467299Y-37163412D01*
X57309747Y-36992265D01*
X57309746Y-36992264D01*
X57309744Y-36992262D01*
X57113509Y-36839526D01*
X56894810Y-36721172D01*
X56894809Y-36721171D01*
X56894806Y-36721170D01*
X56697863Y-36653560D01*
X56659614Y-36640429D01*
X56414335Y-36599500D01*
X56165665Y-36599500D01*
X55920386Y-36640429D01*
X55920383Y-36640429D01*
X55920383Y-36640430D01*
X55685193Y-36721170D01*
X55466489Y-36839527D01*
X55270252Y-36992265D01*
X55112701Y-37163412D01*
X55054285Y-37199321D01*
X54985715Y-37199321D01*
X54927299Y-37163412D01*
X54769747Y-36992265D01*
X54769746Y-36992264D01*
X54769744Y-36992262D01*
X54573509Y-36839526D01*
X54354810Y-36721172D01*
X54354809Y-36721171D01*
X54354806Y-36721170D01*
X54157863Y-36653560D01*
X54119614Y-36640429D01*
X53874335Y-36599500D01*
X53625665Y-36599500D01*
X53603489Y-36603200D01*
X53510753Y-36618674D01*
X53451575Y-36614385D01*
X53400921Y-36583487D01*
X52761073Y-35943639D01*
X52754136Y-35936115D01*
X52721043Y-35897156D01*
X52659836Y-35850628D01*
X52657147Y-35848526D01*
X52596792Y-35800012D01*
X52578581Y-35788716D01*
X52508284Y-35756192D01*
X52505209Y-35754718D01*
X52435881Y-35720335D01*
X52415653Y-35713212D01*
X52340037Y-35696567D01*
X52336718Y-35695789D01*
X52261589Y-35677106D01*
X52240317Y-35674500D01*
X52239779Y-35674500D01*
X52162903Y-35674500D01*
X52159491Y-35674454D01*
X52082074Y-35672356D01*
X52059534Y-35674500D01*
X41594123Y-35674500D01*
X41545905Y-35664909D01*
X41505028Y-35637595D01*
X40702524Y-34835091D01*
X39891073Y-34023639D01*
X39884136Y-34016115D01*
X39851043Y-33977156D01*
X39789836Y-33930628D01*
X39787147Y-33928526D01*
X39726792Y-33880012D01*
X39708581Y-33868716D01*
X39638284Y-33836192D01*
X39635209Y-33834718D01*
X39565881Y-33800335D01*
X39545653Y-33793212D01*
X39470037Y-33776567D01*
X39466718Y-33775789D01*
X39391589Y-33757106D01*
X39370317Y-33754500D01*
X39369779Y-33754500D01*
X39292903Y-33754500D01*
X39289491Y-33754454D01*
X39212074Y-33752356D01*
X39189534Y-33754500D01*
X37221218Y-33754500D01*
X37161248Y-33739314D01*
X37115735Y-33697415D01*
X37088165Y-33655216D01*
X36919744Y-33472262D01*
X36834224Y-33405699D01*
X36723509Y-33319526D01*
X36504810Y-33201172D01*
X36504809Y-33201171D01*
X36504806Y-33201170D01*
X36348012Y-33147343D01*
X36269614Y-33120429D01*
X36024335Y-33079500D01*
X35775665Y-33079500D01*
X35530386Y-33120429D01*
X35530383Y-33120429D01*
X35530383Y-33120430D01*
X35295193Y-33201170D01*
X35076489Y-33319527D01*
X34880255Y-33472262D01*
X34711833Y-33655217D01*
X34575828Y-33863389D01*
X34475935Y-34091123D01*
X34414893Y-34332174D01*
X34414892Y-34332179D01*
X34394357Y-34580000D01*
X34414892Y-34827821D01*
X34414892Y-34827824D01*
X34414893Y-34827825D01*
X34475935Y-35068876D01*
X34575828Y-35296610D01*
X34711833Y-35504782D01*
X34880255Y-35687737D01*
X35025891Y-35801090D01*
X35061697Y-35845183D01*
X35074500Y-35900522D01*
X35074500Y-41740877D01*
X35064909Y-41789095D01*
X35037597Y-41829969D01*
X33063430Y-43804135D01*
X32689245Y-44178320D01*
X32632342Y-44211042D01*
X32566701Y-44210703D01*
X32510139Y-44177394D01*
X32478006Y-44120156D01*
X32476096Y-44112616D01*
X32444063Y-43986119D01*
X32344173Y-43758393D01*
X32344172Y-43758391D01*
X32344171Y-43758389D01*
X32208166Y-43550217D01*
X32039744Y-43367262D01*
X31968872Y-43312100D01*
X31843509Y-43214526D01*
X31624810Y-43096172D01*
X31624809Y-43096171D01*
X31624806Y-43096170D01*
X31436491Y-43031522D01*
X31389614Y-43015429D01*
X31144335Y-42974500D01*
X30895665Y-42974500D01*
X30650386Y-43015429D01*
X30650383Y-43015429D01*
X30650383Y-43015430D01*
X30415193Y-43096170D01*
X30196489Y-43214527D01*
X30000255Y-43367262D01*
X29831833Y-43550217D01*
X29695828Y-43758389D01*
X29595935Y-43986123D01*
X29539064Y-44210703D01*
X29534892Y-44227179D01*
X29514357Y-44475000D01*
X29534892Y-44722821D01*
X29534892Y-44722824D01*
X29534893Y-44722825D01*
X29595935Y-44963876D01*
X29695828Y-45191610D01*
X29831833Y-45399782D01*
X30000255Y-45582737D01*
X30080980Y-45645568D01*
X30116786Y-45689661D01*
X30129589Y-45745000D01*
X30116786Y-45800339D01*
X30080980Y-45844432D01*
X30000255Y-45907262D01*
X29831833Y-46090217D01*
X29695828Y-46298389D01*
X29595935Y-46526123D01*
X29536489Y-46760873D01*
X29534892Y-46767179D01*
X29514357Y-47015000D01*
X29534892Y-47262821D01*
X29534892Y-47262824D01*
X29534893Y-47262825D01*
X29595935Y-47503876D01*
X29595936Y-47503879D01*
X29595937Y-47503881D01*
X29613387Y-47543662D01*
X29695828Y-47731610D01*
X29831833Y-47939782D01*
X29990919Y-48112595D01*
X30000256Y-48122738D01*
X30196491Y-48275474D01*
X30213793Y-48284837D01*
X30226087Y-48291491D01*
X30272462Y-48334727D01*
X30291909Y-48395074D01*
X30279504Y-48457252D01*
X30238389Y-48505516D01*
X30176019Y-48549188D01*
X30014189Y-48711018D01*
X29882912Y-48898501D01*
X29786186Y-49105929D01*
X29726949Y-49327005D01*
X29725760Y-49340602D01*
X29700201Y-49406323D01*
X29643333Y-49448019D01*
X29572968Y-49452630D01*
X29511145Y-49418712D01*
X28215171Y-48122738D01*
X24937405Y-44844971D01*
X24910091Y-44804094D01*
X24900500Y-44755876D01*
X24900500Y-43618385D01*
X24894086Y-43547804D01*
X24879544Y-43501137D01*
X24843478Y-43385394D01*
X24785676Y-43289779D01*
X24755471Y-43239813D01*
X24635186Y-43119528D01*
X24489607Y-43031522D01*
X24327195Y-42980913D01*
X24263029Y-42975082D01*
X24256616Y-42974500D01*
X22543384Y-42974500D01*
X22537505Y-42975034D01*
X22472804Y-42980913D01*
X22310392Y-43031522D01*
X22164813Y-43119528D01*
X22044528Y-43239813D01*
X21956522Y-43385392D01*
X21905913Y-43547804D01*
X21899500Y-43618385D01*
X21899500Y-45331615D01*
X21905913Y-45402195D01*
X21956522Y-45564607D01*
X22044528Y-45710186D01*
X22164813Y-45830471D01*
X22216721Y-45861851D01*
X22256634Y-45900178D01*
X22276277Y-45951909D01*
X22271861Y-46007068D01*
X22244238Y-46055016D01*
X22211834Y-46090216D01*
X22075828Y-46298389D01*
X21975935Y-46526123D01*
X21916489Y-46760873D01*
X21914892Y-46767179D01*
X21894357Y-47015000D01*
X21914892Y-47262821D01*
X21914892Y-47262824D01*
X21914893Y-47262825D01*
X21975935Y-47503876D01*
X21975936Y-47503879D01*
X21975937Y-47503881D01*
X21993387Y-47543662D01*
X22075828Y-47731610D01*
X22211833Y-47939782D01*
X22370919Y-48112595D01*
X22380256Y-48122738D01*
X22414640Y-48149500D01*
X22460980Y-48185568D01*
X22496786Y-48229661D01*
X22509589Y-48285000D01*
X22496786Y-48340339D01*
X22460980Y-48384432D01*
X22380255Y-48447262D01*
X22211833Y-48630217D01*
X22075828Y-48838389D01*
X21975935Y-49066123D01*
X21914893Y-49307174D01*
X21914892Y-49307179D01*
X21894357Y-49555000D01*
X21914892Y-49802821D01*
X21914892Y-49802824D01*
X21914893Y-49802825D01*
X21975935Y-50043876D01*
X22075828Y-50271610D01*
X22211833Y-50479782D01*
X22211836Y-50479785D01*
X22380256Y-50662738D01*
X22576491Y-50815474D01*
X22795190Y-50933828D01*
X23030386Y-51014571D01*
X23275665Y-51055500D01*
X23524332Y-51055500D01*
X23524335Y-51055500D01*
X23769614Y-51014571D01*
X24004810Y-50933828D01*
X24223509Y-50815474D01*
X24419744Y-50662738D01*
X24588164Y-50479785D01*
X24724173Y-50271607D01*
X24824063Y-50043881D01*
X24858006Y-49909840D01*
X24890138Y-49852603D01*
X24946701Y-49819294D01*
X25012342Y-49818955D01*
X25069245Y-49851678D01*
X27437595Y-52220028D01*
X27464909Y-52260905D01*
X27474500Y-52309123D01*
X27474500Y-55251328D01*
X27474084Y-55261553D01*
X27469937Y-55312483D01*
X27480317Y-55388682D01*
X27480731Y-55392063D01*
X27489104Y-55469035D01*
X27493993Y-55489903D01*
X27520693Y-55562579D01*
X27521826Y-55565796D01*
X27546547Y-55639164D01*
X27555813Y-55658499D01*
X27556095Y-55658941D01*
X27556096Y-55658942D01*
X27580287Y-55696789D01*
X27597485Y-55723694D01*
X27599283Y-55726592D01*
X27639225Y-55792974D01*
X27652423Y-55809856D01*
X27652799Y-55810232D01*
X27652800Y-55810233D01*
X27707170Y-55864603D01*
X27709514Y-55867011D01*
X27762796Y-55923260D01*
X27780256Y-55937689D01*
X29338387Y-57495820D01*
X29370561Y-57550713D01*
X29371810Y-57614328D01*
X29361430Y-57657569D01*
X29344317Y-57728852D01*
X29324551Y-57980000D01*
X29344317Y-58231150D01*
X29379554Y-58377926D01*
X29378304Y-58441541D01*
X29346130Y-58496434D01*
X29299281Y-58543283D01*
X29275156Y-58562146D01*
X29272521Y-58563731D01*
X29255622Y-58576943D01*
X29200923Y-58631643D01*
X29198478Y-58634023D01*
X29142234Y-58687299D01*
X29127802Y-58704763D01*
X27943631Y-59888933D01*
X27936108Y-59895869D01*
X27897157Y-59928954D01*
X27850617Y-59990177D01*
X27848517Y-59992863D01*
X27800015Y-60053202D01*
X27788713Y-60071424D01*
X27756198Y-60141700D01*
X27754726Y-60144772D01*
X27720332Y-60214123D01*
X27713211Y-60234353D01*
X27713098Y-60234862D01*
X27713099Y-60234862D01*
X27701346Y-60288257D01*
X27696566Y-60309970D01*
X27695788Y-60313289D01*
X27677104Y-60388420D01*
X27674500Y-60409690D01*
X27674500Y-60487097D01*
X27674454Y-60490509D01*
X27672356Y-60567925D01*
X27674500Y-60590466D01*
X27674500Y-63451328D01*
X27674084Y-63461553D01*
X27669937Y-63512483D01*
X27680317Y-63588682D01*
X27680731Y-63592063D01*
X27689104Y-63669035D01*
X27693993Y-63689903D01*
X27720693Y-63762579D01*
X27721826Y-63765796D01*
X27746547Y-63839164D01*
X27755813Y-63858499D01*
X27756095Y-63858941D01*
X27756096Y-63858942D01*
X27780992Y-63897892D01*
X27797485Y-63923694D01*
X27799283Y-63926592D01*
X27839225Y-63992974D01*
X27852423Y-64009856D01*
X27852799Y-64010232D01*
X27852800Y-64010233D01*
X27907170Y-64064603D01*
X27909514Y-64067011D01*
X27962796Y-64123260D01*
X27980256Y-64137689D01*
X29422899Y-65580333D01*
X29455073Y-65635226D01*
X29456323Y-65698841D01*
X29444317Y-65748850D01*
X29424551Y-66000000D01*
X29444317Y-66251148D01*
X29503127Y-66496111D01*
X29599535Y-66728862D01*
X29731163Y-66943658D01*
X29894775Y-67135224D01*
X30086341Y-67298836D01*
X30301137Y-67430464D01*
X30301139Y-67430464D01*
X30301141Y-67430466D01*
X30533889Y-67526873D01*
X30778852Y-67585683D01*
X31030000Y-67605449D01*
X31281148Y-67585683D01*
X31526111Y-67526873D01*
X31758859Y-67430466D01*
X31973659Y-67298836D01*
X32165224Y-67135224D01*
X32328836Y-66943659D01*
X32460466Y-66728859D01*
X32556873Y-66496111D01*
X32615683Y-66251148D01*
X32635449Y-66000000D01*
X32615683Y-65748852D01*
X32556873Y-65503889D01*
X32460466Y-65271141D01*
X32411914Y-65191912D01*
X32328836Y-65056341D01*
X32165224Y-64864775D01*
X31973658Y-64701163D01*
X31758862Y-64569535D01*
X31526111Y-64473127D01*
X31281148Y-64414317D01*
X31030000Y-64394551D01*
X30778850Y-64414317D01*
X30696584Y-64434067D01*
X30632969Y-64432817D01*
X30578077Y-64400644D01*
X29981472Y-63804038D01*
X29950049Y-63751702D01*
X29946917Y-63690734D01*
X29972811Y-63635450D01*
X30021653Y-63598828D01*
X30081976Y-63589463D01*
X30091544Y-63590332D01*
X30093383Y-63590500D01*
X30093384Y-63590500D01*
X32006615Y-63590500D01*
X32006616Y-63590500D01*
X32077196Y-63584086D01*
X32239606Y-63533478D01*
X32385185Y-63445472D01*
X32505472Y-63325185D01*
X32593478Y-63179606D01*
X32644086Y-63017196D01*
X32650500Y-62946616D01*
X32650500Y-62946611D01*
X32650980Y-62941329D01*
X32673267Y-62880438D01*
X32722883Y-62838692D01*
X32786687Y-62827148D01*
X32822485Y-62830063D01*
X32898718Y-62819676D01*
X32902062Y-62819267D01*
X32962887Y-62812652D01*
X32979039Y-62810896D01*
X32999891Y-62806009D01*
X33000395Y-62805823D01*
X33000400Y-62805823D01*
X33072583Y-62779303D01*
X33075773Y-62778180D01*
X33148662Y-62753622D01*
X33148667Y-62753618D01*
X33149171Y-62753449D01*
X33168489Y-62744192D01*
X33168936Y-62743906D01*
X33168942Y-62743904D01*
X33233759Y-62702473D01*
X33236579Y-62700722D01*
X33302517Y-62661050D01*
X33302523Y-62661043D01*
X33302982Y-62660768D01*
X33319855Y-62647578D01*
X33374603Y-62592829D01*
X33377052Y-62590446D01*
X33433255Y-62537209D01*
X33447685Y-62519747D01*
X34256381Y-61711051D01*
X34263868Y-61704148D01*
X34302843Y-61671044D01*
X34349438Y-61609747D01*
X34351405Y-61607230D01*
X34399653Y-61547209D01*
X34399654Y-61547205D01*
X34399992Y-61546786D01*
X34411281Y-61528586D01*
X34411505Y-61528101D01*
X34411507Y-61528099D01*
X34443822Y-61458249D01*
X34445275Y-61455220D01*
X34450311Y-61445066D01*
X34479432Y-61386350D01*
X34479432Y-61386347D01*
X34479668Y-61385873D01*
X34486786Y-61365657D01*
X34486899Y-61365141D01*
X34486901Y-61365138D01*
X34503458Y-61289915D01*
X34504181Y-61286829D01*
X34522766Y-61212100D01*
X34522766Y-61212096D01*
X34522897Y-61211570D01*
X34525500Y-61190321D01*
X34525500Y-61112904D01*
X34525546Y-61109492D01*
X34526168Y-61086522D01*
X34527629Y-61032609D01*
X34527628Y-61032606D01*
X34527643Y-61032075D01*
X34525500Y-61009535D01*
X34525500Y-54738668D01*
X34525916Y-54728440D01*
X34529042Y-54690058D01*
X34530063Y-54677514D01*
X34519680Y-54601317D01*
X34519274Y-54598002D01*
X34510954Y-54521495D01*
X34510953Y-54521493D01*
X34510895Y-54520956D01*
X34506007Y-54500102D01*
X34479307Y-54427423D01*
X34478174Y-54424205D01*
X34453450Y-54350829D01*
X34444190Y-54331504D01*
X34402483Y-54266254D01*
X34400685Y-54263355D01*
X34360777Y-54197029D01*
X34347572Y-54180138D01*
X34292846Y-54125412D01*
X34290465Y-54122967D01*
X34237204Y-54066739D01*
X34222999Y-54055000D01*
X40894357Y-54055000D01*
X40914892Y-54302821D01*
X40914892Y-54302824D01*
X40914893Y-54302825D01*
X40975935Y-54543876D01*
X40975936Y-54543879D01*
X40975937Y-54543881D01*
X40998348Y-54594972D01*
X41075828Y-54771610D01*
X41211833Y-54979782D01*
X41313306Y-55090011D01*
X41380256Y-55162738D01*
X41576491Y-55315474D01*
X41795190Y-55433828D01*
X42030386Y-55514571D01*
X42275665Y-55555500D01*
X42524332Y-55555500D01*
X42524335Y-55555500D01*
X42769614Y-55514571D01*
X43004810Y-55433828D01*
X43223509Y-55315474D01*
X43419744Y-55162738D01*
X43588164Y-54979785D01*
X43724173Y-54771607D01*
X43824063Y-54543881D01*
X43885108Y-54302821D01*
X43905643Y-54055000D01*
X43885108Y-53807179D01*
X43824063Y-53566119D01*
X43724173Y-53338393D01*
X43724172Y-53338391D01*
X43724171Y-53338389D01*
X43588166Y-53130217D01*
X43419744Y-52947262D01*
X43419740Y-52947259D01*
X43223509Y-52794526D01*
X43206847Y-52785509D01*
X43193911Y-52778508D01*
X43147536Y-52735271D01*
X43128090Y-52674923D01*
X43140495Y-52612745D01*
X43181612Y-52564481D01*
X43243983Y-52520808D01*
X43405810Y-52358981D01*
X43537087Y-52171498D01*
X43633813Y-51964070D01*
X43686082Y-51769000D01*
X41113918Y-51769000D01*
X41166186Y-51964070D01*
X41262912Y-52171498D01*
X41394189Y-52358981D01*
X41556016Y-52520808D01*
X41618388Y-52564481D01*
X41659505Y-52612745D01*
X41671910Y-52674923D01*
X41652464Y-52735271D01*
X41606089Y-52778508D01*
X41576492Y-52794525D01*
X41380255Y-52947262D01*
X41211833Y-53130217D01*
X41075828Y-53338389D01*
X40975935Y-53566123D01*
X40914893Y-53807174D01*
X40914892Y-53807179D01*
X40894357Y-54055000D01*
X34222999Y-54055000D01*
X34219746Y-54052312D01*
X33611073Y-53443639D01*
X33604136Y-53436115D01*
X33571043Y-53397156D01*
X33509836Y-53350628D01*
X33507147Y-53348526D01*
X33446792Y-53300012D01*
X33428581Y-53288716D01*
X33358284Y-53256192D01*
X33355209Y-53254718D01*
X33285881Y-53220335D01*
X33265653Y-53213212D01*
X33190037Y-53196567D01*
X33186718Y-53195789D01*
X33111589Y-53177106D01*
X33090317Y-53174500D01*
X33089779Y-53174500D01*
X33012903Y-53174500D01*
X33009491Y-53174454D01*
X32932074Y-53172356D01*
X32909534Y-53174500D01*
X32746500Y-53174500D01*
X32683500Y-53157619D01*
X32637381Y-53111500D01*
X32620500Y-53048500D01*
X32620500Y-53033385D01*
X32614086Y-52962804D01*
X32596584Y-52906637D01*
X32563478Y-52800394D01*
X32550247Y-52778508D01*
X32475471Y-52654813D01*
X32355186Y-52534528D01*
X32209607Y-52446522D01*
X32047195Y-52395913D01*
X31983028Y-52390082D01*
X31976616Y-52389500D01*
X31976615Y-52389500D01*
X31961500Y-52389500D01*
X31898500Y-52372619D01*
X31852381Y-52326500D01*
X31835500Y-52263500D01*
X31835500Y-52123672D01*
X31835916Y-52113447D01*
X31836340Y-52108227D01*
X31840063Y-52062515D01*
X31829678Y-51986297D01*
X31829265Y-51982914D01*
X31820896Y-51905963D01*
X31816008Y-51885103D01*
X31789309Y-51812429D01*
X31788176Y-51809211D01*
X31763453Y-51735837D01*
X31754190Y-51716504D01*
X31712493Y-51651270D01*
X31710694Y-51648372D01*
X31671050Y-51582483D01*
X31671046Y-51582479D01*
X31670772Y-51582023D01*
X31657579Y-51565146D01*
X31632706Y-51540273D01*
X31602827Y-51510394D01*
X31600484Y-51507986D01*
X31547210Y-51451746D01*
X31529744Y-51437311D01*
X31156287Y-51063854D01*
X31122369Y-51002030D01*
X31126981Y-50931663D01*
X31168679Y-50874795D01*
X31234403Y-50849238D01*
X31247999Y-50848048D01*
X31469070Y-50788813D01*
X31676498Y-50692087D01*
X31863981Y-50560810D01*
X32025810Y-50398981D01*
X32157087Y-50211498D01*
X32253813Y-50004070D01*
X32306082Y-49809000D01*
X30892000Y-49809000D01*
X30829000Y-49792119D01*
X30782881Y-49746000D01*
X30766000Y-49683000D01*
X30766000Y-49427000D01*
X30782881Y-49364000D01*
X30829000Y-49317881D01*
X30892000Y-49301000D01*
X32306082Y-49301000D01*
X32253813Y-49105929D01*
X32157087Y-48898501D01*
X32025810Y-48711018D01*
X31863981Y-48549189D01*
X31801611Y-48505517D01*
X31760494Y-48457252D01*
X31748090Y-48395072D01*
X31767538Y-48334724D01*
X31813913Y-48291490D01*
X31843509Y-48275474D01*
X32039744Y-48122738D01*
X32208164Y-47939785D01*
X32344173Y-47731607D01*
X32444063Y-47503881D01*
X32505108Y-47262821D01*
X32525643Y-47015000D01*
X32505108Y-46767179D01*
X32505105Y-46767170D01*
X32504584Y-46760873D01*
X32511852Y-46707101D01*
X32541057Y-46661374D01*
X35802432Y-43400000D01*
X38114357Y-43400000D01*
X38134892Y-43647821D01*
X38134892Y-43647824D01*
X38134893Y-43647825D01*
X38195935Y-43888876D01*
X38295828Y-44116610D01*
X38431833Y-44324782D01*
X38600255Y-44507737D01*
X38745891Y-44621090D01*
X38781697Y-44665183D01*
X38794500Y-44720522D01*
X38794500Y-46156328D01*
X38794084Y-46166553D01*
X38789937Y-46217483D01*
X38800317Y-46293682D01*
X38800731Y-46297063D01*
X38809104Y-46374035D01*
X38813993Y-46394903D01*
X38840693Y-46467579D01*
X38841826Y-46470796D01*
X38866547Y-46544164D01*
X38875813Y-46563499D01*
X38917485Y-46628694D01*
X38919283Y-46631592D01*
X38959225Y-46697974D01*
X38972423Y-46714856D01*
X38972799Y-46715232D01*
X38972800Y-46715233D01*
X39027170Y-46769603D01*
X39029514Y-46772011D01*
X39082796Y-46828260D01*
X39100256Y-46842689D01*
X40862595Y-48605028D01*
X40889909Y-48645905D01*
X40899500Y-48694123D01*
X40899500Y-49831615D01*
X40905913Y-49902195D01*
X40956522Y-50064607D01*
X41044528Y-50210186D01*
X41164813Y-50330471D01*
X41215155Y-50360903D01*
X41310394Y-50418478D01*
X41367833Y-50436376D01*
X41422092Y-50470305D01*
X41452685Y-50526514D01*
X41451720Y-50590503D01*
X41419444Y-50645764D01*
X41394187Y-50671020D01*
X41262912Y-50858501D01*
X41166186Y-51065929D01*
X41113917Y-51261000D01*
X43686082Y-51261000D01*
X43633813Y-51065929D01*
X43537087Y-50858501D01*
X43405810Y-50671018D01*
X43380557Y-50645765D01*
X43348280Y-50590504D01*
X43347314Y-50526515D01*
X43377907Y-50470305D01*
X43432163Y-50436377D01*
X43489606Y-50418478D01*
X43635185Y-50330472D01*
X43755472Y-50210185D01*
X43843478Y-50064606D01*
X43894086Y-49902196D01*
X43900500Y-49831616D01*
X43900500Y-48118384D01*
X43894086Y-48047804D01*
X43843478Y-47885394D01*
X43808706Y-47827875D01*
X43755471Y-47739813D01*
X43635186Y-47619528D01*
X43489607Y-47531522D01*
X43327195Y-47480913D01*
X43263028Y-47475082D01*
X43256616Y-47474500D01*
X43256615Y-47474500D01*
X42119123Y-47474500D01*
X42070905Y-47464909D01*
X42030028Y-47437595D01*
X40482405Y-45889971D01*
X40455091Y-45849094D01*
X40445500Y-45800876D01*
X40445500Y-44720522D01*
X40458303Y-44665183D01*
X40494109Y-44621090D01*
X40639744Y-44507738D01*
X40808164Y-44324785D01*
X40944173Y-44116607D01*
X41044063Y-43888881D01*
X41105108Y-43647821D01*
X41125643Y-43400000D01*
X41105108Y-43152179D01*
X41044063Y-42911119D01*
X40944173Y-42683393D01*
X40944172Y-42683391D01*
X40944171Y-42683389D01*
X40808166Y-42475217D01*
X40639744Y-42292262D01*
X40581039Y-42246570D01*
X40443509Y-42139526D01*
X40224810Y-42021172D01*
X40224809Y-42021171D01*
X40224806Y-42021170D01*
X40027930Y-41953583D01*
X39989614Y-41940429D01*
X39744335Y-41899500D01*
X39495665Y-41899500D01*
X39250386Y-41940429D01*
X39250383Y-41940429D01*
X39250383Y-41940430D01*
X39015193Y-42021170D01*
X38796489Y-42139527D01*
X38600255Y-42292262D01*
X38431833Y-42475217D01*
X38295828Y-42683389D01*
X38195935Y-42911123D01*
X38134893Y-43152174D01*
X38134892Y-43152179D01*
X38114357Y-43400000D01*
X35802432Y-43400000D01*
X36456381Y-42746051D01*
X36463868Y-42739148D01*
X36502843Y-42706044D01*
X36549438Y-42644747D01*
X36551405Y-42642230D01*
X36599653Y-42582209D01*
X36599654Y-42582205D01*
X36599992Y-42581786D01*
X36611281Y-42563586D01*
X36611505Y-42563101D01*
X36611507Y-42563099D01*
X36643822Y-42493249D01*
X36645275Y-42490220D01*
X36652717Y-42475215D01*
X36679432Y-42421350D01*
X36679432Y-42421347D01*
X36679668Y-42420873D01*
X36686786Y-42400657D01*
X36686899Y-42400141D01*
X36686901Y-42400138D01*
X36703458Y-42324915D01*
X36704181Y-42321829D01*
X36722766Y-42247100D01*
X36722766Y-42247096D01*
X36722897Y-42246570D01*
X36725500Y-42225321D01*
X36725500Y-42147904D01*
X36725546Y-42144492D01*
X36727643Y-42067075D01*
X36725500Y-42044535D01*
X36725500Y-35900522D01*
X36738303Y-35845183D01*
X36774109Y-35801090D01*
X36831794Y-35756192D01*
X36919744Y-35687738D01*
X37088164Y-35504785D01*
X37115733Y-35462585D01*
X37161248Y-35420686D01*
X37221218Y-35405500D01*
X38885877Y-35405500D01*
X38934095Y-35415091D01*
X38974972Y-35442405D01*
X39989203Y-36456637D01*
X40019216Y-36504630D01*
X40025189Y-36560920D01*
X40005919Y-36614143D01*
X39965293Y-36653560D01*
X39814813Y-36744528D01*
X39694528Y-36864813D01*
X39606522Y-37010392D01*
X39555913Y-37172804D01*
X39549500Y-37243385D01*
X39549500Y-38956615D01*
X39555913Y-39027195D01*
X39606522Y-39189607D01*
X39694528Y-39335186D01*
X39814813Y-39455471D01*
X39930995Y-39525706D01*
X39960394Y-39543478D01*
X40122804Y-39594086D01*
X40183733Y-39599622D01*
X40230028Y-39613093D01*
X40267877Y-39642968D01*
X40291732Y-39684873D01*
X40296546Y-39699162D01*
X40305813Y-39718499D01*
X40347485Y-39783694D01*
X40349283Y-39786592D01*
X40389225Y-39852974D01*
X40402423Y-39869856D01*
X40402799Y-39870232D01*
X40402800Y-39870233D01*
X40457170Y-39924603D01*
X40459514Y-39927011D01*
X40512796Y-39983260D01*
X40530256Y-39997689D01*
X42088926Y-41556359D01*
X42095853Y-41563871D01*
X42128956Y-41602843D01*
X42128959Y-41602846D01*
X42162825Y-41628590D01*
X42190174Y-41649380D01*
X42192836Y-41651460D01*
X42253213Y-41699992D01*
X42271418Y-41711284D01*
X42295511Y-41722430D01*
X42341750Y-41743823D01*
X42344758Y-41745265D01*
X42374128Y-41759831D01*
X42414125Y-41779668D01*
X42434339Y-41786786D01*
X42434862Y-41786901D01*
X42510057Y-41803452D01*
X42513210Y-41804191D01*
X42587900Y-41822766D01*
X42587901Y-41822766D01*
X42588428Y-41822897D01*
X42609679Y-41825500D01*
X42610221Y-41825500D01*
X42687096Y-41825500D01*
X42690508Y-41825546D01*
X42694265Y-41825647D01*
X42767391Y-41827629D01*
X42767392Y-41827628D01*
X42767924Y-41827643D01*
X42790465Y-41825500D01*
X49039198Y-41825500D01*
X49102798Y-41842730D01*
X49149005Y-41889707D01*
X49165181Y-41953583D01*
X49146902Y-42016890D01*
X49099167Y-42062313D01*
X49067450Y-42079478D01*
X48956492Y-42139525D01*
X48760255Y-42292262D01*
X48591833Y-42475217D01*
X48455828Y-42683389D01*
X48355935Y-42911123D01*
X48294893Y-43152174D01*
X48294892Y-43152179D01*
X48274357Y-43400000D01*
X48294892Y-43647821D01*
X48294892Y-43647824D01*
X48294893Y-43647825D01*
X48355935Y-43888876D01*
X48455828Y-44116610D01*
X48591833Y-44324782D01*
X48760255Y-44507737D01*
X48760256Y-44507738D01*
X48956491Y-44660474D01*
X49175190Y-44778828D01*
X49410386Y-44859571D01*
X49655665Y-44900500D01*
X49904332Y-44900500D01*
X49904335Y-44900500D01*
X50149614Y-44859571D01*
X50384810Y-44778828D01*
X50603509Y-44660474D01*
X50799744Y-44507738D01*
X50968164Y-44324785D01*
X51104173Y-44116607D01*
X51204063Y-43888881D01*
X51265108Y-43647821D01*
X51285643Y-43400000D01*
X51265108Y-43152179D01*
X51265105Y-43152169D01*
X51264584Y-43145874D01*
X51271852Y-43092102D01*
X51301057Y-43046375D01*
X51685028Y-42662404D01*
X51725906Y-42635091D01*
X51774124Y-42625500D01*
X52128364Y-42625500D01*
X52188333Y-42640686D01*
X52233847Y-42682584D01*
X52253934Y-42741095D01*
X52243752Y-42802113D01*
X52195935Y-42911123D01*
X52134893Y-43152174D01*
X52134892Y-43152179D01*
X52114357Y-43400000D01*
X52134892Y-43647821D01*
X52134892Y-43647824D01*
X52134893Y-43647825D01*
X52195935Y-43888876D01*
X52295828Y-44116610D01*
X52431833Y-44324782D01*
X52600255Y-44507737D01*
X52745891Y-44621090D01*
X52781697Y-44665183D01*
X52794500Y-44720522D01*
X52794500Y-47156328D01*
X52794084Y-47166553D01*
X52789937Y-47217483D01*
X52800317Y-47293682D01*
X52800731Y-47297063D01*
X52809104Y-47374035D01*
X52813993Y-47394903D01*
X52840693Y-47467579D01*
X52841826Y-47470796D01*
X52866547Y-47544164D01*
X52875813Y-47563499D01*
X52917485Y-47628694D01*
X52919283Y-47631592D01*
X52959225Y-47697974D01*
X52972423Y-47714856D01*
X52972799Y-47715232D01*
X52972800Y-47715233D01*
X53027171Y-47769604D01*
X53029515Y-47772012D01*
X53082796Y-47828260D01*
X53100256Y-47842689D01*
X53862595Y-48605028D01*
X53889909Y-48645905D01*
X53899500Y-48694123D01*
X53899500Y-49831615D01*
X53905913Y-49902195D01*
X53956522Y-50064607D01*
X54044528Y-50210186D01*
X54164813Y-50330471D01*
X54215155Y-50360903D01*
X54310394Y-50418478D01*
X54367833Y-50436376D01*
X54422092Y-50470305D01*
X54452685Y-50526514D01*
X54451720Y-50590503D01*
X54419444Y-50645764D01*
X54394187Y-50671020D01*
X54262912Y-50858501D01*
X54166186Y-51065929D01*
X54113917Y-51261000D01*
X56686082Y-51261000D01*
X56633813Y-51065929D01*
X56537087Y-50858501D01*
X56405810Y-50671018D01*
X56380557Y-50645765D01*
X56348280Y-50590504D01*
X56347314Y-50526515D01*
X56377907Y-50470305D01*
X56432163Y-50436377D01*
X56489606Y-50418478D01*
X56635185Y-50330472D01*
X56755472Y-50210185D01*
X56843478Y-50064606D01*
X56894086Y-49902196D01*
X56900500Y-49831616D01*
X56900500Y-48118384D01*
X56894086Y-48047804D01*
X56843478Y-47885394D01*
X56808706Y-47827875D01*
X56755471Y-47739813D01*
X56635186Y-47619528D01*
X56489607Y-47531522D01*
X56327195Y-47480913D01*
X56263028Y-47475082D01*
X56256616Y-47474500D01*
X56256615Y-47474500D01*
X55119124Y-47474500D01*
X55070906Y-47464909D01*
X55030029Y-47437595D01*
X54482405Y-46889971D01*
X54455091Y-46849094D01*
X54445500Y-46800876D01*
X54445500Y-44720522D01*
X54458303Y-44665183D01*
X54494109Y-44621090D01*
X54639744Y-44507738D01*
X54808164Y-44324785D01*
X54944173Y-44116607D01*
X55044063Y-43888881D01*
X55105108Y-43647821D01*
X55119029Y-43479811D01*
X55144372Y-43413862D01*
X55201232Y-43371919D01*
X55271728Y-43367176D01*
X55333693Y-43401126D01*
X58838927Y-46906360D01*
X58845863Y-46913883D01*
X58878956Y-46952843D01*
X58940213Y-46999410D01*
X58942846Y-47001469D01*
X58954766Y-47011050D01*
X59003207Y-47049987D01*
X59021424Y-47061287D01*
X59091713Y-47093806D01*
X59094750Y-47095260D01*
X59163650Y-47129433D01*
X59163652Y-47129433D01*
X59164129Y-47129670D01*
X59184338Y-47136786D01*
X59259988Y-47153437D01*
X59263242Y-47154199D01*
X59337900Y-47172766D01*
X59338427Y-47172897D01*
X59359679Y-47175500D01*
X59360221Y-47175500D01*
X59437097Y-47175500D01*
X59440508Y-47175545D01*
X59517392Y-47177629D01*
X59517393Y-47177628D01*
X59517925Y-47177643D01*
X59540466Y-47175500D01*
X67511328Y-47175500D01*
X67521553Y-47175916D01*
X67527331Y-47176386D01*
X67572485Y-47180063D01*
X67648718Y-47169676D01*
X67652062Y-47169267D01*
X67712887Y-47162652D01*
X67729039Y-47160896D01*
X67749891Y-47156009D01*
X67750395Y-47155823D01*
X67750400Y-47155823D01*
X67822583Y-47129303D01*
X67825773Y-47128180D01*
X67898662Y-47103622D01*
X67898667Y-47103618D01*
X67899171Y-47103449D01*
X67918489Y-47094192D01*
X67918936Y-47093906D01*
X67918942Y-47093904D01*
X67983759Y-47052473D01*
X67986579Y-47050722D01*
X68052517Y-47011050D01*
X68052523Y-47011043D01*
X68052982Y-47010768D01*
X68069854Y-46997579D01*
X68070233Y-46997200D01*
X68124639Y-46942792D01*
X68126972Y-46940521D01*
X68182875Y-46887569D01*
X68182877Y-46887565D01*
X68183262Y-46887201D01*
X68197685Y-46869746D01*
X71256369Y-43811062D01*
X71263884Y-43804135D01*
X71302843Y-43771044D01*
X71349412Y-43709783D01*
X71351454Y-43707170D01*
X71399653Y-43647209D01*
X71399653Y-43647207D01*
X71399991Y-43646788D01*
X71411284Y-43628582D01*
X71443791Y-43558316D01*
X71445268Y-43555234D01*
X71447757Y-43550217D01*
X71479433Y-43486350D01*
X71479433Y-43486349D01*
X71479668Y-43485876D01*
X71486784Y-43465666D01*
X71486899Y-43465141D01*
X71486901Y-43465138D01*
X71503445Y-43389970D01*
X71504194Y-43386774D01*
X71522766Y-43312100D01*
X71522766Y-43312098D01*
X71522897Y-43311572D01*
X71525500Y-43290321D01*
X71525500Y-43212903D01*
X71525546Y-43209491D01*
X71526497Y-43174380D01*
X71527629Y-43132608D01*
X71527628Y-43132605D01*
X71527643Y-43132074D01*
X71525500Y-43109534D01*
X71525500Y-40038681D01*
X71525916Y-40028453D01*
X71530064Y-39977515D01*
X71519684Y-39901341D01*
X71519269Y-39897950D01*
X71510897Y-39820972D01*
X71506006Y-39800098D01*
X71479309Y-39727429D01*
X71478176Y-39724211D01*
X71453453Y-39650837D01*
X71444190Y-39631504D01*
X71402493Y-39566270D01*
X71400694Y-39563372D01*
X71388724Y-39543478D01*
X71361050Y-39497483D01*
X71361046Y-39497479D01*
X71360772Y-39497023D01*
X71347579Y-39480146D01*
X71322904Y-39455471D01*
X71292827Y-39425394D01*
X71290484Y-39422986D01*
X71237210Y-39366746D01*
X71219744Y-39352311D01*
X64908029Y-33040595D01*
X64877291Y-32990436D01*
X64872675Y-32931789D01*
X64895188Y-32877439D01*
X64939921Y-32839233D01*
X64997124Y-32825500D01*
X68561328Y-32825500D01*
X68571553Y-32825916D01*
X68577331Y-32826386D01*
X68622485Y-32830063D01*
X68698718Y-32819676D01*
X68702062Y-32819267D01*
X68762887Y-32812652D01*
X68779039Y-32810896D01*
X68799891Y-32806009D01*
X68800395Y-32805823D01*
X68800400Y-32805823D01*
X68872583Y-32779303D01*
X68875773Y-32778180D01*
X68948662Y-32753622D01*
X68948667Y-32753618D01*
X68949171Y-32753449D01*
X68968489Y-32744192D01*
X68968936Y-32743906D01*
X68968942Y-32743904D01*
X69033759Y-32702473D01*
X69036579Y-32700722D01*
X69102517Y-32661050D01*
X69102523Y-32661043D01*
X69102982Y-32660768D01*
X69119854Y-32647579D01*
X69120233Y-32647200D01*
X69174639Y-32592792D01*
X69176972Y-32590521D01*
X69232875Y-32537569D01*
X69232877Y-32537565D01*
X69233262Y-32537201D01*
X69247685Y-32519746D01*
X69463431Y-32304000D01*
X71208061Y-32304000D01*
X71239330Y-32449091D01*
X71325520Y-32663585D01*
X71446724Y-32860433D01*
X71599451Y-33033961D01*
X71779304Y-33179184D01*
X71981112Y-33291920D01*
X72199078Y-33368932D01*
X72413500Y-33405699D01*
X72413500Y-32304000D01*
X72921500Y-32304000D01*
X72921500Y-33401930D01*
X73022832Y-33393306D01*
X73246536Y-33335057D01*
X73457186Y-33239838D01*
X73648705Y-33110393D01*
X73815601Y-32950437D01*
X73953057Y-32764586D01*
X74057129Y-32558169D01*
X74124818Y-32337140D01*
X74129062Y-32304000D01*
X72921500Y-32304000D01*
X72413500Y-32304000D01*
X71208061Y-32304000D01*
X69463431Y-32304000D01*
X71195742Y-30571690D01*
X71253041Y-30538864D01*
X71319077Y-30539529D01*
X71375706Y-30573503D01*
X71510984Y-30714341D01*
X71651684Y-30820070D01*
X71686976Y-30861153D01*
X71701762Y-30913258D01*
X71693307Y-30966758D01*
X71663173Y-31011764D01*
X71519398Y-31149562D01*
X71381942Y-31335413D01*
X71277870Y-31541830D01*
X71210181Y-31762859D01*
X71205938Y-31796000D01*
X74126939Y-31796000D01*
X74095669Y-31650908D01*
X74009479Y-31436414D01*
X73888275Y-31239566D01*
X73735548Y-31066038D01*
X73679407Y-31020707D01*
X73643356Y-30973697D01*
X73632773Y-30915408D01*
X73649998Y-30858725D01*
X73691223Y-30816180D01*
X73726978Y-30793570D01*
X73726978Y-30793569D01*
X73726981Y-30793568D01*
X73914362Y-30627563D01*
X74072688Y-30433650D01*
X74072688Y-30433649D01*
X74079121Y-30425771D01*
X74081044Y-30427341D01*
X74116010Y-30392379D01*
X74179007Y-30375500D01*
X74211328Y-30375500D01*
X74221553Y-30375916D01*
X74227331Y-30376386D01*
X74272485Y-30380063D01*
X74348718Y-30369676D01*
X74352062Y-30369267D01*
X74412887Y-30362652D01*
X74429039Y-30360896D01*
X74449891Y-30356009D01*
X74450395Y-30355823D01*
X74450400Y-30355823D01*
X74522583Y-30329303D01*
X74525773Y-30328180D01*
X74598662Y-30303622D01*
X74598667Y-30303618D01*
X74599171Y-30303449D01*
X74618489Y-30294192D01*
X74618936Y-30293906D01*
X74618942Y-30293904D01*
X74683759Y-30252473D01*
X74686579Y-30250722D01*
X74752517Y-30211050D01*
X74752523Y-30211043D01*
X74752982Y-30210768D01*
X74769854Y-30197579D01*
X74770233Y-30197200D01*
X74824639Y-30142792D01*
X74826972Y-30140521D01*
X74882875Y-30087569D01*
X74882877Y-30087565D01*
X74883262Y-30087201D01*
X74897685Y-30069746D01*
X77456381Y-27511051D01*
X77463868Y-27504148D01*
X77502843Y-27471044D01*
X77549438Y-27409747D01*
X77551405Y-27407230D01*
X77599653Y-27347209D01*
X77599655Y-27347203D01*
X77599992Y-27346785D01*
X77611285Y-27328577D01*
X77611504Y-27328101D01*
X77611507Y-27328099D01*
X77643801Y-27258293D01*
X77645268Y-27255234D01*
X77672465Y-27200400D01*
X77679433Y-27186350D01*
X77679433Y-27186349D01*
X77679668Y-27185876D01*
X77686784Y-27165666D01*
X77686899Y-27165141D01*
X77686901Y-27165138D01*
X77703445Y-27089970D01*
X77704194Y-27086774D01*
X77722766Y-27012100D01*
X77722766Y-27012098D01*
X77722897Y-27011572D01*
X77725500Y-26990321D01*
X77725500Y-26912903D01*
X77725546Y-26909491D01*
X77725726Y-26902841D01*
X77727629Y-26832608D01*
X77727628Y-26832605D01*
X77727643Y-26832074D01*
X77725500Y-26809534D01*
X77725500Y-22438681D01*
X77725916Y-22428453D01*
X77730064Y-22377515D01*
X77728005Y-22362404D01*
X77719680Y-22301314D01*
X77719269Y-22297950D01*
X77710897Y-22220972D01*
X77706006Y-22200098D01*
X77679309Y-22127429D01*
X77678176Y-22124211D01*
X77653453Y-22050837D01*
X77644190Y-22031504D01*
X77602493Y-21966270D01*
X77600694Y-21963372D01*
X77561050Y-21897483D01*
X77561046Y-21897479D01*
X77560772Y-21897023D01*
X77547579Y-21880146D01*
X77547200Y-21879767D01*
X77492826Y-21825393D01*
X77490483Y-21822985D01*
X77437208Y-21766744D01*
X77419746Y-21752313D01*
X76683029Y-21015595D01*
X76652292Y-20965436D01*
X76647676Y-20906789D01*
X76670189Y-20852439D01*
X76714922Y-20814233D01*
X76772125Y-20800500D01*
X79273500Y-20800500D01*
X79336500Y-20817381D01*
X79382619Y-20863500D01*
X79399500Y-20926500D01*
X79399500Y-71643994D01*
X79385767Y-71701197D01*
X79347561Y-71745930D01*
X79293211Y-71768443D01*
X79234564Y-71763827D01*
X79184405Y-71733089D01*
X78305982Y-70854666D01*
X77234872Y-69783555D01*
X77224535Y-69771851D01*
X77221028Y-69767345D01*
X77210825Y-69754236D01*
X77146345Y-69694878D01*
X77142636Y-69691319D01*
X77123239Y-69671922D01*
X77102320Y-69654204D01*
X77098435Y-69650773D01*
X77033968Y-69591428D01*
X77015283Y-69579220D01*
X77002768Y-69569888D01*
X76985740Y-69555466D01*
X76910486Y-69510624D01*
X76906070Y-69507867D01*
X76832726Y-69459950D01*
X76812287Y-69450984D01*
X76798407Y-69443839D01*
X76779238Y-69432417D01*
X76779237Y-69432416D01*
X76779236Y-69432416D01*
X76697603Y-69400562D01*
X76692793Y-69398570D01*
X76612591Y-69363390D01*
X76612589Y-69363389D01*
X76612588Y-69363389D01*
X76590959Y-69357912D01*
X76576091Y-69353149D01*
X76569666Y-69350642D01*
X76556912Y-69344828D01*
X76444553Y-69285857D01*
X76251495Y-69221404D01*
X76202301Y-69190984D01*
X74532405Y-67521088D01*
X74505091Y-67480211D01*
X74495500Y-67431993D01*
X74495500Y-66684847D01*
X74505091Y-66636629D01*
X74532402Y-66595754D01*
X74600472Y-66527685D01*
X74688478Y-66382106D01*
X74739086Y-66219696D01*
X74745500Y-66149116D01*
X74745500Y-64130884D01*
X74739086Y-64060304D01*
X74688478Y-63897894D01*
X74652974Y-63839164D01*
X74600471Y-63752313D01*
X74499933Y-63651775D01*
X74470255Y-63604739D01*
X74463718Y-63549509D01*
X74481594Y-63496848D01*
X74569888Y-63352767D01*
X74669457Y-63112384D01*
X74730197Y-62859386D01*
X74750611Y-62600000D01*
X74730197Y-62340614D01*
X74669457Y-62087616D01*
X74569888Y-61847233D01*
X74569886Y-61847229D01*
X74433940Y-61625386D01*
X74264962Y-61427538D01*
X74262937Y-61425808D01*
X74258667Y-61420167D01*
X74258522Y-61419997D01*
X74258532Y-61419988D01*
X74230342Y-61382745D01*
X74218770Y-61329991D01*
X74230348Y-61277239D01*
X74258533Y-61240012D01*
X74258522Y-61240003D01*
X74258682Y-61239814D01*
X74262946Y-61234183D01*
X74264962Y-61232462D01*
X74433940Y-61034613D01*
X74569888Y-60812767D01*
X74669457Y-60572384D01*
X74730197Y-60319386D01*
X74750611Y-60060000D01*
X74730197Y-59800614D01*
X74669457Y-59547616D01*
X74569888Y-59307233D01*
X74569886Y-59307229D01*
X74433940Y-59085386D01*
X74264962Y-58887537D01*
X74067117Y-58718563D01*
X74067115Y-58718561D01*
X74067113Y-58718560D01*
X73930663Y-58634943D01*
X73886565Y-58589078D01*
X73870500Y-58527512D01*
X73870500Y-57924123D01*
X73880091Y-57875905D01*
X73907405Y-57835028D01*
X74952041Y-56790392D01*
X76170923Y-55571509D01*
X76221576Y-55540613D01*
X76280755Y-55536325D01*
X76395662Y-55555500D01*
X76395665Y-55555500D01*
X76644332Y-55555500D01*
X76644335Y-55555500D01*
X76889614Y-55514571D01*
X77124810Y-55433828D01*
X77343509Y-55315474D01*
X77539744Y-55162738D01*
X77708164Y-54979785D01*
X77844173Y-54771607D01*
X77944063Y-54543881D01*
X78005108Y-54302821D01*
X78025643Y-54055000D01*
X78005108Y-53807179D01*
X77944063Y-53566119D01*
X77844173Y-53338393D01*
X77844172Y-53338391D01*
X77844171Y-53338389D01*
X77708166Y-53130217D01*
X77539741Y-52947259D01*
X77459019Y-52884430D01*
X77423212Y-52840337D01*
X77410410Y-52784998D01*
X77423213Y-52729659D01*
X77459017Y-52685569D01*
X77539744Y-52622738D01*
X77708164Y-52439785D01*
X77708173Y-52439772D01*
X77844171Y-52231610D01*
X77844170Y-52231610D01*
X77844173Y-52231607D01*
X77944063Y-52003881D01*
X78005108Y-51762821D01*
X78025643Y-51515000D01*
X78005108Y-51267179D01*
X77944063Y-51026119D01*
X77844173Y-50798393D01*
X77844172Y-50798391D01*
X77844171Y-50798389D01*
X77708166Y-50590217D01*
X77539742Y-50407260D01*
X77459020Y-50344432D01*
X77423213Y-50300339D01*
X77410410Y-50245000D01*
X77423213Y-50189661D01*
X77459020Y-50145568D01*
X77539744Y-50082738D01*
X77708164Y-49899785D01*
X77844173Y-49691607D01*
X77944063Y-49463881D01*
X78005108Y-49222821D01*
X78025643Y-48975000D01*
X78005108Y-48727179D01*
X77944063Y-48486119D01*
X77844173Y-48258393D01*
X77844172Y-48258391D01*
X77844171Y-48258389D01*
X77708166Y-48050217D01*
X77539744Y-47867262D01*
X77415810Y-47770800D01*
X77343509Y-47714526D01*
X77124810Y-47596172D01*
X77124809Y-47596171D01*
X77124806Y-47596170D01*
X76936491Y-47531522D01*
X76889614Y-47515429D01*
X76644335Y-47474500D01*
X76395665Y-47474500D01*
X76150386Y-47515429D01*
X76150383Y-47515429D01*
X76150383Y-47515430D01*
X75915193Y-47596170D01*
X75696489Y-47714527D01*
X75500255Y-47867262D01*
X75331833Y-48050217D01*
X75195828Y-48258389D01*
X75095935Y-48486123D01*
X75034893Y-48727174D01*
X75034892Y-48727179D01*
X75014357Y-48975000D01*
X75034892Y-49222821D01*
X75034892Y-49222824D01*
X75035415Y-49229125D01*
X75028147Y-49282896D01*
X74998940Y-49328625D01*
X71843631Y-52483933D01*
X71836108Y-52490869D01*
X71797157Y-52523954D01*
X71750617Y-52585177D01*
X71748517Y-52587863D01*
X71700015Y-52648202D01*
X71688713Y-52666424D01*
X71656198Y-52736700D01*
X71654726Y-52739772D01*
X71620332Y-52809123D01*
X71613211Y-52829353D01*
X71596566Y-52904970D01*
X71595788Y-52908289D01*
X71577104Y-52983420D01*
X71574500Y-53004690D01*
X71574500Y-53082097D01*
X71574454Y-53085509D01*
X71572356Y-53162925D01*
X71574500Y-53185466D01*
X71574500Y-54505877D01*
X71564909Y-54554095D01*
X71537595Y-54594972D01*
X69674971Y-56457595D01*
X69634094Y-56484909D01*
X69585876Y-56494500D01*
X67221218Y-56494500D01*
X67161248Y-56479314D01*
X67115735Y-56437415D01*
X67088165Y-56395216D01*
X66919744Y-56212262D01*
X66723510Y-56059527D01*
X66723509Y-56059526D01*
X66504810Y-55941172D01*
X66504809Y-55941171D01*
X66504806Y-55941170D01*
X66348012Y-55887343D01*
X66269614Y-55860429D01*
X66024335Y-55819500D01*
X65775665Y-55819500D01*
X65530386Y-55860429D01*
X65530383Y-55860429D01*
X65530383Y-55860430D01*
X65295193Y-55941170D01*
X65076489Y-56059527D01*
X64880255Y-56212262D01*
X64711833Y-56395217D01*
X64575828Y-56603389D01*
X64475935Y-56831123D01*
X64427248Y-57023385D01*
X64414892Y-57072179D01*
X64400444Y-57246546D01*
X64396145Y-57298428D01*
X64394357Y-57320000D01*
X64414892Y-57567821D01*
X64414892Y-57567824D01*
X64414893Y-57567825D01*
X64475935Y-57808876D01*
X64475936Y-57808879D01*
X64475937Y-57808881D01*
X64513842Y-57895297D01*
X64575828Y-58036610D01*
X64711833Y-58244782D01*
X64836746Y-58380474D01*
X64880256Y-58427738D01*
X65076491Y-58580474D01*
X65295190Y-58698828D01*
X65530386Y-58779571D01*
X65775665Y-58820500D01*
X66024332Y-58820500D01*
X66024335Y-58820500D01*
X66269614Y-58779571D01*
X66504810Y-58698828D01*
X66723509Y-58580474D01*
X66919744Y-58427738D01*
X67088164Y-58244785D01*
X67115733Y-58202585D01*
X67161248Y-58160686D01*
X67221218Y-58145500D01*
X69941328Y-58145500D01*
X69951553Y-58145916D01*
X69957331Y-58146386D01*
X70002485Y-58150063D01*
X70078718Y-58139676D01*
X70082062Y-58139267D01*
X70142887Y-58132652D01*
X70159039Y-58130896D01*
X70179891Y-58126009D01*
X70180395Y-58125823D01*
X70180400Y-58125823D01*
X70252583Y-58099303D01*
X70255773Y-58098180D01*
X70328662Y-58073622D01*
X70328667Y-58073618D01*
X70329171Y-58073449D01*
X70348489Y-58064192D01*
X70348936Y-58063906D01*
X70348942Y-58063904D01*
X70413759Y-58022473D01*
X70416579Y-58020722D01*
X70482517Y-57981050D01*
X70482523Y-57981043D01*
X70482982Y-57980768D01*
X70499854Y-57967579D01*
X70506747Y-57960686D01*
X70554639Y-57912792D01*
X70556972Y-57910521D01*
X70612875Y-57857569D01*
X70612877Y-57857565D01*
X70613262Y-57857201D01*
X70627685Y-57839746D01*
X72956369Y-55511062D01*
X72963884Y-55504135D01*
X73002843Y-55471044D01*
X73049412Y-55409783D01*
X73051454Y-55407170D01*
X73099653Y-55347209D01*
X73099653Y-55347207D01*
X73099991Y-55346788D01*
X73111284Y-55328582D01*
X73140635Y-55265138D01*
X73143801Y-55258293D01*
X73145268Y-55255234D01*
X73147206Y-55251328D01*
X73179433Y-55186350D01*
X73179433Y-55186349D01*
X73179668Y-55185876D01*
X73186784Y-55165666D01*
X73186899Y-55165141D01*
X73186901Y-55165138D01*
X73203445Y-55089970D01*
X73204194Y-55086774D01*
X73222766Y-55012100D01*
X73222766Y-55012098D01*
X73222897Y-55011572D01*
X73225500Y-54990321D01*
X73225500Y-54912903D01*
X73225546Y-54909491D01*
X73227643Y-54832074D01*
X73225500Y-54809534D01*
X73225500Y-53489123D01*
X73235091Y-53440905D01*
X73262402Y-53400030D01*
X74850757Y-51811674D01*
X74907657Y-51778954D01*
X74973298Y-51779293D01*
X75029860Y-51812602D01*
X75061993Y-51869840D01*
X75095937Y-52003881D01*
X75121658Y-52062518D01*
X75195828Y-52231610D01*
X75331833Y-52439782D01*
X75442073Y-52559534D01*
X75500256Y-52622738D01*
X75578220Y-52683420D01*
X75580979Y-52685567D01*
X75616786Y-52729660D01*
X75629589Y-52784998D01*
X75616787Y-52840337D01*
X75580981Y-52884430D01*
X75500256Y-52947261D01*
X75331833Y-53130217D01*
X75195828Y-53338389D01*
X75095935Y-53566123D01*
X75034893Y-53807174D01*
X75034892Y-53807179D01*
X75014357Y-54055000D01*
X75034892Y-54302821D01*
X75034892Y-54302824D01*
X75035415Y-54309125D01*
X75028147Y-54362896D01*
X74998940Y-54408625D01*
X72488631Y-56918933D01*
X72481108Y-56925869D01*
X72442157Y-56958954D01*
X72395617Y-57020177D01*
X72393517Y-57022863D01*
X72345015Y-57083202D01*
X72333713Y-57101424D01*
X72301198Y-57171700D01*
X72299726Y-57174772D01*
X72265332Y-57244123D01*
X72258211Y-57264353D01*
X72258098Y-57264862D01*
X72258099Y-57264862D01*
X72241791Y-57338950D01*
X72241566Y-57339970D01*
X72240788Y-57343289D01*
X72222104Y-57418420D01*
X72219500Y-57439690D01*
X72219500Y-57517097D01*
X72219454Y-57520509D01*
X72217356Y-57597925D01*
X72219500Y-57620466D01*
X72219500Y-58527512D01*
X72203435Y-58589078D01*
X72159336Y-58634943D01*
X72055087Y-58698828D01*
X72022882Y-58718563D01*
X71825037Y-58887537D01*
X71656059Y-59085386D01*
X71520113Y-59307229D01*
X71420543Y-59547615D01*
X71359803Y-59800613D01*
X71339389Y-60060000D01*
X71359803Y-60319386D01*
X71420543Y-60572384D01*
X71520113Y-60812770D01*
X71608906Y-60957665D01*
X71627450Y-61021026D01*
X71611409Y-61085066D01*
X71565187Y-61132204D01*
X71501474Y-61149500D01*
X70877875Y-61149500D01*
X70862290Y-61148532D01*
X70858637Y-61148076D01*
X70840145Y-61145771D01*
X70755381Y-61149278D01*
X70752624Y-61149392D01*
X70747418Y-61149500D01*
X70720005Y-61149500D01*
X70692687Y-61151762D01*
X70687498Y-61152084D01*
X70599970Y-61155705D01*
X70578117Y-61160287D01*
X70562670Y-61162537D01*
X70540439Y-61164379D01*
X70455507Y-61185886D01*
X70450435Y-61187059D01*
X70364702Y-61205035D01*
X70343900Y-61213151D01*
X70329043Y-61217910D01*
X70307408Y-61223389D01*
X70227184Y-61258578D01*
X70222377Y-61260569D01*
X70140760Y-61292418D01*
X70121591Y-61303840D01*
X70107715Y-61310983D01*
X70087274Y-61319949D01*
X70013915Y-61367877D01*
X70009499Y-61370633D01*
X69934257Y-61415468D01*
X69917224Y-61429893D01*
X69904722Y-61439216D01*
X69886031Y-61451428D01*
X69821583Y-61510756D01*
X69817686Y-61514197D01*
X69796762Y-61531920D01*
X69777382Y-61551299D01*
X69773629Y-61554900D01*
X69709172Y-61614238D01*
X69695461Y-61631853D01*
X69685128Y-61643553D01*
X65989094Y-65339587D01*
X65932610Y-65372199D01*
X65867388Y-65372199D01*
X65810904Y-65339587D01*
X62014872Y-61543555D01*
X62004535Y-61531851D01*
X61998720Y-61524380D01*
X61990825Y-61514236D01*
X61926345Y-61454878D01*
X61922636Y-61451319D01*
X61903239Y-61431922D01*
X61882312Y-61414197D01*
X61878435Y-61410773D01*
X61813968Y-61351428D01*
X61795283Y-61339220D01*
X61782768Y-61329888D01*
X61765740Y-61315466D01*
X61690486Y-61270624D01*
X61686070Y-61267867D01*
X61625845Y-61228521D01*
X61612728Y-61219951D01*
X61612726Y-61219950D01*
X61592287Y-61210984D01*
X61578407Y-61203839D01*
X61559238Y-61192417D01*
X61559237Y-61192416D01*
X61559236Y-61192416D01*
X61477603Y-61160562D01*
X61472793Y-61158570D01*
X61466264Y-61155706D01*
X61392591Y-61123390D01*
X61392589Y-61123389D01*
X61392586Y-61123388D01*
X61370967Y-61117914D01*
X61356098Y-61113151D01*
X61335298Y-61105035D01*
X61249569Y-61087060D01*
X61244497Y-61085887D01*
X61149445Y-61061818D01*
X61150218Y-61058764D01*
X61108360Y-61044073D01*
X61066310Y-60996495D01*
X61052803Y-60934451D01*
X61071267Y-60873700D01*
X61169888Y-60712767D01*
X61269457Y-60472384D01*
X61330197Y-60219386D01*
X61350611Y-59960000D01*
X61330197Y-59700614D01*
X61269457Y-59447616D01*
X61169888Y-59207233D01*
X61146831Y-59169607D01*
X61033940Y-58985386D01*
X60864962Y-58787537D01*
X60667117Y-58618563D01*
X60667115Y-58618561D01*
X60667113Y-58618560D01*
X60530663Y-58534943D01*
X60486565Y-58489078D01*
X60470500Y-58427512D01*
X60470500Y-57824123D01*
X60480091Y-57775905D01*
X60507405Y-57735028D01*
X61048256Y-57194177D01*
X62670922Y-55571509D01*
X62721575Y-55540613D01*
X62780754Y-55536325D01*
X62895662Y-55555500D01*
X62895665Y-55555500D01*
X63144332Y-55555500D01*
X63144335Y-55555500D01*
X63389614Y-55514571D01*
X63624810Y-55433828D01*
X63843509Y-55315474D01*
X64039744Y-55162738D01*
X64208164Y-54979785D01*
X64344173Y-54771607D01*
X64444063Y-54543881D01*
X64505108Y-54302821D01*
X64525643Y-54055000D01*
X67394357Y-54055000D01*
X67414892Y-54302821D01*
X67414892Y-54302824D01*
X67414893Y-54302825D01*
X67475935Y-54543876D01*
X67475936Y-54543879D01*
X67475937Y-54543881D01*
X67498348Y-54594972D01*
X67575828Y-54771610D01*
X67711833Y-54979782D01*
X67813306Y-55090011D01*
X67880256Y-55162738D01*
X68076491Y-55315474D01*
X68295190Y-55433828D01*
X68530386Y-55514571D01*
X68775665Y-55555500D01*
X69024332Y-55555500D01*
X69024335Y-55555500D01*
X69269614Y-55514571D01*
X69504810Y-55433828D01*
X69723509Y-55315474D01*
X69919744Y-55162738D01*
X70088164Y-54979785D01*
X70224173Y-54771607D01*
X70324063Y-54543881D01*
X70385108Y-54302821D01*
X70405643Y-54055000D01*
X70385108Y-53807179D01*
X70324063Y-53566119D01*
X70224173Y-53338393D01*
X70224172Y-53338391D01*
X70224171Y-53338389D01*
X70088166Y-53130217D01*
X69919744Y-52947262D01*
X69919740Y-52947259D01*
X69723509Y-52794526D01*
X69706847Y-52785509D01*
X69693911Y-52778508D01*
X69647536Y-52735271D01*
X69628090Y-52674923D01*
X69640495Y-52612745D01*
X69681612Y-52564481D01*
X69743983Y-52520808D01*
X69905810Y-52358981D01*
X70037087Y-52171498D01*
X70133813Y-51964070D01*
X70186082Y-51769000D01*
X67613918Y-51769000D01*
X67666186Y-51964070D01*
X67762912Y-52171498D01*
X67894189Y-52358981D01*
X68056016Y-52520808D01*
X68118388Y-52564481D01*
X68159505Y-52612745D01*
X68171910Y-52674923D01*
X68152464Y-52735271D01*
X68106089Y-52778508D01*
X68076492Y-52794525D01*
X67880255Y-52947262D01*
X67711833Y-53130217D01*
X67575828Y-53338389D01*
X67475935Y-53566123D01*
X67414893Y-53807174D01*
X67414892Y-53807179D01*
X67394357Y-54055000D01*
X64525643Y-54055000D01*
X64505108Y-53807179D01*
X64444063Y-53566119D01*
X64344173Y-53338393D01*
X64344172Y-53338391D01*
X64344171Y-53338389D01*
X64208166Y-53130217D01*
X64039742Y-52947260D01*
X63971436Y-52894095D01*
X63959018Y-52884430D01*
X63923213Y-52840339D01*
X63910410Y-52785000D01*
X63923213Y-52729661D01*
X63959020Y-52685568D01*
X63994559Y-52657907D01*
X64039744Y-52622738D01*
X64208164Y-52439785D01*
X64208173Y-52439772D01*
X64344171Y-52231610D01*
X64344170Y-52231610D01*
X64344173Y-52231607D01*
X64444063Y-52003881D01*
X64505108Y-51762821D01*
X64525643Y-51515000D01*
X64505108Y-51267179D01*
X64444063Y-51026119D01*
X64344173Y-50798393D01*
X64344172Y-50798391D01*
X64344171Y-50798389D01*
X64208166Y-50590217D01*
X64039742Y-50407260D01*
X63959020Y-50344432D01*
X63923213Y-50300339D01*
X63910410Y-50245000D01*
X63923213Y-50189661D01*
X63959020Y-50145568D01*
X64039744Y-50082738D01*
X64208164Y-49899785D01*
X64252702Y-49831615D01*
X67399500Y-49831615D01*
X67405913Y-49902195D01*
X67456522Y-50064607D01*
X67544528Y-50210186D01*
X67664813Y-50330471D01*
X67715155Y-50360903D01*
X67810394Y-50418478D01*
X67867833Y-50436376D01*
X67922092Y-50470305D01*
X67952685Y-50526514D01*
X67951720Y-50590503D01*
X67919444Y-50645764D01*
X67894187Y-50671020D01*
X67762912Y-50858501D01*
X67666186Y-51065929D01*
X67613917Y-51261000D01*
X70186082Y-51261000D01*
X70133813Y-51065929D01*
X70037087Y-50858501D01*
X69905810Y-50671018D01*
X69880557Y-50645765D01*
X69848280Y-50590504D01*
X69847314Y-50526515D01*
X69877907Y-50470305D01*
X69932163Y-50436377D01*
X69989606Y-50418478D01*
X70135185Y-50330472D01*
X70255472Y-50210185D01*
X70343478Y-50064606D01*
X70394086Y-49902196D01*
X70394086Y-49902195D01*
X70398064Y-49889430D01*
X70401530Y-49890510D01*
X70413313Y-49856978D01*
X70458747Y-49815514D01*
X70518397Y-49800500D01*
X71966328Y-49800500D01*
X71976553Y-49800916D01*
X71982331Y-49801386D01*
X72027485Y-49805063D01*
X72103718Y-49794676D01*
X72107062Y-49794267D01*
X72167887Y-49787652D01*
X72184039Y-49785896D01*
X72204891Y-49781009D01*
X72205395Y-49780823D01*
X72205400Y-49780823D01*
X72277583Y-49754303D01*
X72280773Y-49753180D01*
X72353662Y-49728622D01*
X72353667Y-49728618D01*
X72354171Y-49728449D01*
X72373489Y-49719192D01*
X72373936Y-49718906D01*
X72373942Y-49718904D01*
X72438759Y-49677473D01*
X72441579Y-49675722D01*
X72507517Y-49636050D01*
X72507523Y-49636043D01*
X72507982Y-49635768D01*
X72524854Y-49622579D01*
X72525233Y-49622200D01*
X72579639Y-49567792D01*
X72581972Y-49565521D01*
X72637875Y-49512569D01*
X72637877Y-49512565D01*
X72638262Y-49512201D01*
X72652685Y-49494746D01*
X77230923Y-44916509D01*
X77281576Y-44885613D01*
X77340755Y-44881325D01*
X77455662Y-44900500D01*
X77455665Y-44900500D01*
X77704332Y-44900500D01*
X77704335Y-44900500D01*
X77949614Y-44859571D01*
X78184810Y-44778828D01*
X78403509Y-44660474D01*
X78599744Y-44507738D01*
X78768164Y-44324785D01*
X78904173Y-44116607D01*
X79004063Y-43888881D01*
X79065108Y-43647821D01*
X79085643Y-43400000D01*
X79065108Y-43152179D01*
X79004063Y-42911119D01*
X78904173Y-42683393D01*
X78904172Y-42683391D01*
X78904171Y-42683389D01*
X78768166Y-42475217D01*
X78599744Y-42292262D01*
X78541039Y-42246570D01*
X78403509Y-42139526D01*
X78184810Y-42021172D01*
X78184809Y-42021171D01*
X78184806Y-42021170D01*
X77987930Y-41953583D01*
X77949614Y-41940429D01*
X77704335Y-41899500D01*
X77455665Y-41899500D01*
X77210386Y-41940429D01*
X77210383Y-41940429D01*
X77210383Y-41940430D01*
X76975193Y-42021170D01*
X76756489Y-42139527D01*
X76560255Y-42292262D01*
X76391833Y-42475217D01*
X76255828Y-42683389D01*
X76155935Y-42911123D01*
X76094893Y-43152174D01*
X76094892Y-43152179D01*
X76081641Y-43312100D01*
X76074357Y-43400000D01*
X76095414Y-43654125D01*
X76088146Y-43707896D01*
X76058939Y-43753625D01*
X71699971Y-48112595D01*
X71659094Y-48139909D01*
X71610876Y-48149500D01*
X70518397Y-48149500D01*
X70458747Y-48134486D01*
X70413313Y-48093022D01*
X70401530Y-48059489D01*
X70398064Y-48060570D01*
X70393749Y-48046723D01*
X70343478Y-47885394D01*
X70308706Y-47827875D01*
X70255471Y-47739813D01*
X70135186Y-47619528D01*
X69989607Y-47531522D01*
X69827195Y-47480913D01*
X69763028Y-47475082D01*
X69756616Y-47474500D01*
X68043384Y-47474500D01*
X68037505Y-47475034D01*
X67972804Y-47480913D01*
X67810392Y-47531522D01*
X67664813Y-47619528D01*
X67544528Y-47739813D01*
X67456522Y-47885392D01*
X67405913Y-48047804D01*
X67399500Y-48118385D01*
X67399500Y-49831615D01*
X64252702Y-49831615D01*
X64344173Y-49691607D01*
X64444063Y-49463881D01*
X64505108Y-49222821D01*
X64525643Y-48975000D01*
X64505108Y-48727179D01*
X64444063Y-48486119D01*
X64344173Y-48258393D01*
X64344172Y-48258391D01*
X64344171Y-48258389D01*
X64208166Y-48050217D01*
X64039744Y-47867262D01*
X63915810Y-47770800D01*
X63843509Y-47714526D01*
X63624810Y-47596172D01*
X63624809Y-47596171D01*
X63624806Y-47596170D01*
X63436491Y-47531522D01*
X63389614Y-47515429D01*
X63144335Y-47474500D01*
X62895665Y-47474500D01*
X62650386Y-47515429D01*
X62650383Y-47515429D01*
X62650383Y-47515430D01*
X62415193Y-47596170D01*
X62196489Y-47714527D01*
X62000255Y-47867262D01*
X61831833Y-48050217D01*
X61695828Y-48258389D01*
X61595935Y-48486123D01*
X61534893Y-48727174D01*
X61534892Y-48727179D01*
X61514357Y-48975000D01*
X61534892Y-49222821D01*
X61534892Y-49222824D01*
X61535415Y-49229125D01*
X61528147Y-49282896D01*
X61498940Y-49328625D01*
X58643631Y-52183933D01*
X58636108Y-52190869D01*
X58597157Y-52223954D01*
X58550617Y-52285177D01*
X58548517Y-52287863D01*
X58500015Y-52348202D01*
X58488713Y-52366424D01*
X58456198Y-52436700D01*
X58454726Y-52439772D01*
X58420332Y-52509123D01*
X58413211Y-52529353D01*
X58396566Y-52604970D01*
X58395788Y-52608289D01*
X58377104Y-52683420D01*
X58374500Y-52704690D01*
X58374500Y-52782097D01*
X58374454Y-52785509D01*
X58372356Y-52862925D01*
X58374500Y-52885466D01*
X58374500Y-54605877D01*
X58364909Y-54654095D01*
X58337595Y-54694972D01*
X56774971Y-56257595D01*
X56734094Y-56284909D01*
X56685876Y-56294500D01*
X54021218Y-56294500D01*
X53961248Y-56279314D01*
X53915735Y-56237415D01*
X53888165Y-56195216D01*
X53719744Y-56012262D01*
X53604900Y-55922875D01*
X53523509Y-55859526D01*
X53304810Y-55741172D01*
X53304809Y-55741171D01*
X53304806Y-55741170D01*
X53148012Y-55687343D01*
X53069614Y-55660429D01*
X52824335Y-55619500D01*
X52575665Y-55619500D01*
X52330386Y-55660429D01*
X52330383Y-55660429D01*
X52330383Y-55660430D01*
X52095193Y-55741170D01*
X51876489Y-55859527D01*
X51680255Y-56012262D01*
X51511833Y-56195217D01*
X51375828Y-56403389D01*
X51275935Y-56631123D01*
X51214893Y-56872174D01*
X51214892Y-56872179D01*
X51194357Y-57120000D01*
X51214892Y-57367821D01*
X51214892Y-57367824D01*
X51214893Y-57367825D01*
X51275935Y-57608876D01*
X51275936Y-57608879D01*
X51275937Y-57608881D01*
X51293191Y-57648217D01*
X51375828Y-57836610D01*
X51511833Y-58044782D01*
X51608750Y-58150062D01*
X51680256Y-58227738D01*
X51876491Y-58380474D01*
X52095190Y-58498828D01*
X52330386Y-58579571D01*
X52575665Y-58620500D01*
X52824332Y-58620500D01*
X52824335Y-58620500D01*
X53069614Y-58579571D01*
X53304810Y-58498828D01*
X53523509Y-58380474D01*
X53719744Y-58227738D01*
X53888164Y-58044785D01*
X53902741Y-58022473D01*
X53915735Y-58002585D01*
X53961248Y-57960686D01*
X54021218Y-57945500D01*
X57041328Y-57945500D01*
X57051553Y-57945916D01*
X57057331Y-57946386D01*
X57102485Y-57950063D01*
X57178718Y-57939676D01*
X57182062Y-57939267D01*
X57242887Y-57932652D01*
X57259039Y-57930896D01*
X57279891Y-57926009D01*
X57280395Y-57925823D01*
X57280400Y-57925823D01*
X57352583Y-57899303D01*
X57355773Y-57898180D01*
X57428662Y-57873622D01*
X57428667Y-57873618D01*
X57429171Y-57873449D01*
X57448489Y-57864192D01*
X57448936Y-57863906D01*
X57448942Y-57863904D01*
X57513759Y-57822473D01*
X57516579Y-57820722D01*
X57582517Y-57781050D01*
X57582523Y-57781043D01*
X57582982Y-57780768D01*
X57599854Y-57767579D01*
X57638581Y-57728851D01*
X57654639Y-57712792D01*
X57656972Y-57710521D01*
X57712875Y-57657569D01*
X57712877Y-57657565D01*
X57713262Y-57657201D01*
X57727685Y-57639746D01*
X59756369Y-55611062D01*
X59763884Y-55604135D01*
X59802843Y-55571044D01*
X59849412Y-55509783D01*
X59851454Y-55507170D01*
X59899653Y-55447209D01*
X59899653Y-55447207D01*
X59899991Y-55446788D01*
X59911284Y-55428582D01*
X59935439Y-55376369D01*
X59943801Y-55358293D01*
X59945268Y-55355234D01*
X59949249Y-55347209D01*
X59979433Y-55286350D01*
X59979433Y-55286349D01*
X59979668Y-55285876D01*
X59986784Y-55265666D01*
X59986899Y-55265141D01*
X59986901Y-55265138D01*
X60003445Y-55189970D01*
X60004194Y-55186774D01*
X60022766Y-55112100D01*
X60022766Y-55112098D01*
X60022897Y-55111572D01*
X60025500Y-55090321D01*
X60025500Y-55012903D01*
X60025546Y-55009491D01*
X60027233Y-54947209D01*
X60027629Y-54932608D01*
X60027628Y-54932605D01*
X60027643Y-54932074D01*
X60025500Y-54909534D01*
X60025500Y-53189123D01*
X60035091Y-53140905D01*
X60062402Y-53100030D01*
X61350757Y-51811674D01*
X61407657Y-51778954D01*
X61473298Y-51779293D01*
X61529860Y-51812602D01*
X61561993Y-51869840D01*
X61595937Y-52003881D01*
X61621658Y-52062518D01*
X61695828Y-52231610D01*
X61831833Y-52439782D01*
X61968151Y-52587863D01*
X62000256Y-52622738D01*
X62045441Y-52657907D01*
X62080980Y-52685568D01*
X62116786Y-52729661D01*
X62129589Y-52785000D01*
X62116786Y-52840339D01*
X62080982Y-52884430D01*
X62073406Y-52890326D01*
X62000255Y-52947262D01*
X61831833Y-53130217D01*
X61695828Y-53338389D01*
X61595935Y-53566123D01*
X61534893Y-53807174D01*
X61534892Y-53807179D01*
X61514357Y-54055000D01*
X61534892Y-54302821D01*
X61534892Y-54302824D01*
X61535415Y-54309125D01*
X61528147Y-54362896D01*
X61498940Y-54408625D01*
X59088631Y-56818933D01*
X59081108Y-56825869D01*
X59042157Y-56858954D01*
X58995617Y-56920177D01*
X58993517Y-56922863D01*
X58945015Y-56983202D01*
X58933713Y-57001424D01*
X58901198Y-57071700D01*
X58899726Y-57074772D01*
X58865332Y-57144123D01*
X58858211Y-57164353D01*
X58841566Y-57239970D01*
X58840788Y-57243289D01*
X58822104Y-57318420D01*
X58819500Y-57339690D01*
X58819500Y-57417097D01*
X58819454Y-57420509D01*
X58817356Y-57497925D01*
X58819500Y-57520466D01*
X58819500Y-58427512D01*
X58803435Y-58489078D01*
X58759336Y-58534943D01*
X58634043Y-58611723D01*
X58622882Y-58618563D01*
X58425037Y-58787537D01*
X58256059Y-58985386D01*
X58120113Y-59207229D01*
X58020543Y-59447615D01*
X57959803Y-59700613D01*
X57939389Y-59960000D01*
X57959803Y-60219386D01*
X58020543Y-60472384D01*
X58120113Y-60712770D01*
X58208906Y-60857665D01*
X58227450Y-60921026D01*
X58211409Y-60985066D01*
X58165187Y-61032204D01*
X58101474Y-61049500D01*
X57577875Y-61049500D01*
X57562290Y-61048532D01*
X57558637Y-61048076D01*
X57540145Y-61045771D01*
X57455381Y-61049278D01*
X57452624Y-61049392D01*
X57447418Y-61049500D01*
X57420005Y-61049500D01*
X57392687Y-61051762D01*
X57387498Y-61052084D01*
X57299970Y-61055705D01*
X57278117Y-61060287D01*
X57262670Y-61062537D01*
X57240439Y-61064379D01*
X57155507Y-61085886D01*
X57150435Y-61087059D01*
X57064701Y-61105035D01*
X57043907Y-61113149D01*
X57029040Y-61117912D01*
X57007407Y-61123390D01*
X56927173Y-61158583D01*
X56922364Y-61160575D01*
X56840760Y-61192417D01*
X56821589Y-61203841D01*
X56807713Y-61210984D01*
X56805170Y-61212100D01*
X56787267Y-61219953D01*
X56713911Y-61267879D01*
X56709495Y-61270636D01*
X56634256Y-61315469D01*
X56617224Y-61329893D01*
X56604722Y-61339216D01*
X56586031Y-61351428D01*
X56521583Y-61410756D01*
X56517686Y-61414197D01*
X56496762Y-61431920D01*
X56477382Y-61451299D01*
X56473629Y-61454900D01*
X56409172Y-61514238D01*
X56395461Y-61531853D01*
X56385128Y-61543553D01*
X52789094Y-65139587D01*
X52732610Y-65172199D01*
X52667388Y-65172199D01*
X52610904Y-65139587D01*
X49474872Y-62003555D01*
X49464535Y-61991851D01*
X49450825Y-61974236D01*
X49386345Y-61914878D01*
X49382636Y-61911319D01*
X49363239Y-61891922D01*
X49342312Y-61874197D01*
X49338435Y-61870773D01*
X49273968Y-61811428D01*
X49255283Y-61799220D01*
X49242768Y-61789888D01*
X49225740Y-61775466D01*
X49150486Y-61730624D01*
X49146070Y-61727867D01*
X49072726Y-61679950D01*
X49052287Y-61670984D01*
X49038407Y-61663839D01*
X49019238Y-61652417D01*
X49019237Y-61652416D01*
X49019236Y-61652416D01*
X48937603Y-61620562D01*
X48932793Y-61618570D01*
X48922917Y-61614238D01*
X48852591Y-61583390D01*
X48852589Y-61583389D01*
X48852586Y-61583388D01*
X48830967Y-61577914D01*
X48816098Y-61573151D01*
X48795298Y-61565035D01*
X48709569Y-61547060D01*
X48704497Y-61545887D01*
X48619560Y-61524379D01*
X48597329Y-61522537D01*
X48581882Y-61520287D01*
X48560029Y-61515705D01*
X48472500Y-61512084D01*
X48467311Y-61511762D01*
X48439995Y-61509500D01*
X48439990Y-61509500D01*
X48412582Y-61509500D01*
X48407375Y-61509392D01*
X48404512Y-61509273D01*
X48319854Y-61505771D01*
X48300917Y-61508132D01*
X48297709Y-61508532D01*
X48282125Y-61509500D01*
X48188526Y-61509500D01*
X48124813Y-61492204D01*
X48078591Y-61445066D01*
X48062550Y-61381026D01*
X48081094Y-61317665D01*
X48105867Y-61277239D01*
X48169888Y-61172767D01*
X48269457Y-60932384D01*
X48330197Y-60679386D01*
X48350611Y-60420000D01*
X48330197Y-60160614D01*
X48269457Y-59907616D01*
X48169888Y-59667233D01*
X48169886Y-59667229D01*
X48033940Y-59445386D01*
X47864962Y-59247537D01*
X47667117Y-59078563D01*
X47667115Y-59078561D01*
X47667113Y-59078560D01*
X47530663Y-58994943D01*
X47486565Y-58949078D01*
X47470500Y-58887512D01*
X47470500Y-57824123D01*
X47480091Y-57775905D01*
X47507405Y-57735028D01*
X48048256Y-57194177D01*
X49670922Y-55571509D01*
X49721575Y-55540613D01*
X49780754Y-55536325D01*
X49895662Y-55555500D01*
X49895665Y-55555500D01*
X50144332Y-55555500D01*
X50144335Y-55555500D01*
X50389614Y-55514571D01*
X50624810Y-55433828D01*
X50843509Y-55315474D01*
X51039744Y-55162738D01*
X51208164Y-54979785D01*
X51344173Y-54771607D01*
X51444063Y-54543881D01*
X51505108Y-54302821D01*
X51525643Y-54055000D01*
X53894357Y-54055000D01*
X53914892Y-54302821D01*
X53914892Y-54302824D01*
X53914893Y-54302825D01*
X53975935Y-54543876D01*
X53975936Y-54543879D01*
X53975937Y-54543881D01*
X53998348Y-54594972D01*
X54075828Y-54771610D01*
X54211833Y-54979782D01*
X54313306Y-55090011D01*
X54380256Y-55162738D01*
X54576491Y-55315474D01*
X54795190Y-55433828D01*
X55030386Y-55514571D01*
X55275665Y-55555500D01*
X55524332Y-55555500D01*
X55524335Y-55555500D01*
X55769614Y-55514571D01*
X56004810Y-55433828D01*
X56223509Y-55315474D01*
X56419744Y-55162738D01*
X56588164Y-54979785D01*
X56724173Y-54771607D01*
X56824063Y-54543881D01*
X56885108Y-54302821D01*
X56905643Y-54055000D01*
X56885108Y-53807179D01*
X56824063Y-53566119D01*
X56724173Y-53338393D01*
X56724172Y-53338391D01*
X56724171Y-53338389D01*
X56588166Y-53130217D01*
X56419744Y-52947262D01*
X56419740Y-52947259D01*
X56223509Y-52794526D01*
X56206847Y-52785509D01*
X56193911Y-52778508D01*
X56147536Y-52735271D01*
X56128090Y-52674923D01*
X56140495Y-52612745D01*
X56181612Y-52564481D01*
X56243983Y-52520808D01*
X56405810Y-52358981D01*
X56537087Y-52171498D01*
X56633813Y-51964070D01*
X56686082Y-51769000D01*
X54113918Y-51769000D01*
X54166186Y-51964070D01*
X54262912Y-52171498D01*
X54394189Y-52358981D01*
X54556016Y-52520808D01*
X54618388Y-52564481D01*
X54659505Y-52612745D01*
X54671910Y-52674923D01*
X54652464Y-52735271D01*
X54606089Y-52778508D01*
X54576492Y-52794525D01*
X54380255Y-52947262D01*
X54211833Y-53130217D01*
X54075828Y-53338389D01*
X53975935Y-53566123D01*
X53914893Y-53807174D01*
X53914892Y-53807179D01*
X53894357Y-54055000D01*
X51525643Y-54055000D01*
X51505108Y-53807179D01*
X51444063Y-53566119D01*
X51344173Y-53338393D01*
X51344172Y-53338391D01*
X51344171Y-53338389D01*
X51208166Y-53130217D01*
X51039742Y-52947260D01*
X50971436Y-52894095D01*
X50959018Y-52884430D01*
X50923213Y-52840339D01*
X50910410Y-52785000D01*
X50923213Y-52729661D01*
X50959020Y-52685568D01*
X50994559Y-52657907D01*
X51039744Y-52622738D01*
X51208164Y-52439785D01*
X51208173Y-52439772D01*
X51344171Y-52231610D01*
X51344170Y-52231610D01*
X51344173Y-52231607D01*
X51444063Y-52003881D01*
X51505108Y-51762821D01*
X51525643Y-51515000D01*
X51505108Y-51267179D01*
X51444063Y-51026119D01*
X51344173Y-50798393D01*
X51344172Y-50798391D01*
X51344171Y-50798389D01*
X51208166Y-50590217D01*
X51039742Y-50407260D01*
X50959020Y-50344432D01*
X50923213Y-50300339D01*
X50910410Y-50245000D01*
X50923213Y-50189661D01*
X50959020Y-50145568D01*
X51039744Y-50082738D01*
X51208164Y-49899785D01*
X51344173Y-49691607D01*
X51444063Y-49463881D01*
X51505108Y-49222821D01*
X51525643Y-48975000D01*
X51505108Y-48727179D01*
X51444063Y-48486119D01*
X51344173Y-48258393D01*
X51344172Y-48258391D01*
X51344171Y-48258389D01*
X51208166Y-48050217D01*
X51039744Y-47867262D01*
X50915810Y-47770800D01*
X50843509Y-47714526D01*
X50624810Y-47596172D01*
X50624809Y-47596171D01*
X50624806Y-47596170D01*
X50436491Y-47531522D01*
X50389614Y-47515429D01*
X50144335Y-47474500D01*
X49895665Y-47474500D01*
X49650386Y-47515429D01*
X49650383Y-47515429D01*
X49650383Y-47515430D01*
X49415193Y-47596170D01*
X49196489Y-47714527D01*
X49000255Y-47867262D01*
X48831833Y-48050217D01*
X48695828Y-48258389D01*
X48595935Y-48486123D01*
X48534893Y-48727174D01*
X48534892Y-48727179D01*
X48514357Y-48975000D01*
X48534892Y-49222821D01*
X48534892Y-49222824D01*
X48535415Y-49229125D01*
X48528147Y-49282896D01*
X48498940Y-49328625D01*
X45643631Y-52183933D01*
X45636108Y-52190869D01*
X45597157Y-52223954D01*
X45550617Y-52285177D01*
X45548517Y-52287863D01*
X45500015Y-52348202D01*
X45488713Y-52366424D01*
X45456198Y-52436700D01*
X45454726Y-52439772D01*
X45420332Y-52509123D01*
X45413211Y-52529353D01*
X45396566Y-52604970D01*
X45395788Y-52608289D01*
X45377104Y-52683420D01*
X45374500Y-52704690D01*
X45374500Y-52782097D01*
X45374454Y-52785509D01*
X45372356Y-52862925D01*
X45374500Y-52885466D01*
X45374500Y-54105877D01*
X45364909Y-54154095D01*
X45337595Y-54194972D01*
X43274971Y-56257595D01*
X43234094Y-56284909D01*
X43185876Y-56294500D01*
X41521218Y-56294500D01*
X41461248Y-56279314D01*
X41415735Y-56237415D01*
X41388165Y-56195216D01*
X41219744Y-56012262D01*
X41104900Y-55922875D01*
X41023509Y-55859526D01*
X40804810Y-55741172D01*
X40804809Y-55741171D01*
X40804806Y-55741170D01*
X40648012Y-55687343D01*
X40569614Y-55660429D01*
X40324335Y-55619500D01*
X40075665Y-55619500D01*
X39830386Y-55660429D01*
X39830383Y-55660429D01*
X39830383Y-55660430D01*
X39595193Y-55741170D01*
X39376489Y-55859527D01*
X39180255Y-56012262D01*
X39011833Y-56195217D01*
X38875828Y-56403389D01*
X38775935Y-56631123D01*
X38714893Y-56872174D01*
X38714892Y-56872179D01*
X38694357Y-57120000D01*
X38714892Y-57367821D01*
X38714892Y-57367824D01*
X38714893Y-57367825D01*
X38775935Y-57608876D01*
X38775936Y-57608879D01*
X38775937Y-57608881D01*
X38793191Y-57648217D01*
X38875828Y-57836610D01*
X39011833Y-58044782D01*
X39108750Y-58150062D01*
X39180256Y-58227738D01*
X39376491Y-58380474D01*
X39595190Y-58498828D01*
X39830386Y-58579571D01*
X40075665Y-58620500D01*
X40324332Y-58620500D01*
X40324335Y-58620500D01*
X40569614Y-58579571D01*
X40804810Y-58498828D01*
X41023509Y-58380474D01*
X41219744Y-58227738D01*
X41388164Y-58044785D01*
X41402741Y-58022473D01*
X41415735Y-58002585D01*
X41461248Y-57960686D01*
X41521218Y-57945500D01*
X43541328Y-57945500D01*
X43551553Y-57945916D01*
X43557331Y-57946386D01*
X43602485Y-57950063D01*
X43678718Y-57939676D01*
X43682062Y-57939267D01*
X43742887Y-57932652D01*
X43759039Y-57930896D01*
X43779891Y-57926009D01*
X43780395Y-57925823D01*
X43780400Y-57925823D01*
X43852583Y-57899303D01*
X43855773Y-57898180D01*
X43928662Y-57873622D01*
X43928667Y-57873618D01*
X43929171Y-57873449D01*
X43948489Y-57864192D01*
X43948936Y-57863906D01*
X43948942Y-57863904D01*
X44013759Y-57822473D01*
X44016579Y-57820722D01*
X44082517Y-57781050D01*
X44082523Y-57781043D01*
X44082982Y-57780768D01*
X44099854Y-57767579D01*
X44138581Y-57728851D01*
X44154639Y-57712792D01*
X44156972Y-57710521D01*
X44212875Y-57657569D01*
X44212877Y-57657565D01*
X44213262Y-57657201D01*
X44227685Y-57639746D01*
X46756369Y-55111062D01*
X46763884Y-55104135D01*
X46767799Y-55100810D01*
X46802843Y-55071044D01*
X46849412Y-55009783D01*
X46851454Y-55007170D01*
X46899653Y-54947209D01*
X46899653Y-54947207D01*
X46899991Y-54946788D01*
X46911284Y-54928582D01*
X46943791Y-54858316D01*
X46945268Y-54855234D01*
X46956755Y-54832074D01*
X46979433Y-54786350D01*
X46979433Y-54786347D01*
X46979670Y-54785871D01*
X46986784Y-54765667D01*
X46986899Y-54765140D01*
X46986901Y-54765138D01*
X47003444Y-54689980D01*
X47004195Y-54686775D01*
X47022766Y-54612099D01*
X47022766Y-54612095D01*
X47022897Y-54611569D01*
X47025500Y-54590321D01*
X47025500Y-54512903D01*
X47025546Y-54509491D01*
X47027643Y-54432074D01*
X47025500Y-54409534D01*
X47025500Y-53189123D01*
X47035091Y-53140905D01*
X47062402Y-53100030D01*
X48350757Y-51811674D01*
X48407657Y-51778954D01*
X48473298Y-51779293D01*
X48529860Y-51812602D01*
X48561993Y-51869840D01*
X48595937Y-52003881D01*
X48621658Y-52062518D01*
X48695828Y-52231610D01*
X48831833Y-52439782D01*
X48968151Y-52587863D01*
X49000256Y-52622738D01*
X49045441Y-52657907D01*
X49080980Y-52685568D01*
X49116786Y-52729661D01*
X49129589Y-52785000D01*
X49116786Y-52840339D01*
X49080982Y-52884430D01*
X49073406Y-52890326D01*
X49000255Y-52947262D01*
X48831833Y-53130217D01*
X48695828Y-53338389D01*
X48595935Y-53566123D01*
X48534893Y-53807174D01*
X48534892Y-53807179D01*
X48514357Y-54055000D01*
X48534892Y-54302821D01*
X48534892Y-54302824D01*
X48535415Y-54309125D01*
X48528147Y-54362896D01*
X48498940Y-54408625D01*
X46088631Y-56818933D01*
X46081108Y-56825869D01*
X46042157Y-56858954D01*
X45995617Y-56920177D01*
X45993517Y-56922863D01*
X45945015Y-56983202D01*
X45933713Y-57001424D01*
X45901198Y-57071700D01*
X45899726Y-57074772D01*
X45865332Y-57144123D01*
X45858211Y-57164353D01*
X45841566Y-57239970D01*
X45840788Y-57243289D01*
X45822104Y-57318420D01*
X45819500Y-57339690D01*
X45819500Y-57417097D01*
X45819454Y-57420509D01*
X45817356Y-57497925D01*
X45819500Y-57520466D01*
X45819500Y-58887512D01*
X45803435Y-58949078D01*
X45759336Y-58994943D01*
X45634043Y-59071723D01*
X45622882Y-59078563D01*
X45425037Y-59247537D01*
X45256059Y-59445386D01*
X45120113Y-59667229D01*
X45020543Y-59907615D01*
X44959803Y-60160613D01*
X44939389Y-60420000D01*
X44959803Y-60679386D01*
X45020543Y-60932384D01*
X45120113Y-61172770D01*
X45208906Y-61317665D01*
X45227450Y-61381026D01*
X45211409Y-61445066D01*
X45165187Y-61492204D01*
X45101474Y-61509500D01*
X44242875Y-61509500D01*
X44227290Y-61508532D01*
X44223637Y-61508076D01*
X44205145Y-61505771D01*
X44120381Y-61509278D01*
X44117624Y-61509392D01*
X44112418Y-61509500D01*
X44085005Y-61509500D01*
X44057687Y-61511762D01*
X44052498Y-61512084D01*
X43964970Y-61515705D01*
X43943117Y-61520287D01*
X43927670Y-61522537D01*
X43905439Y-61524379D01*
X43820507Y-61545886D01*
X43815435Y-61547059D01*
X43729701Y-61565035D01*
X43708907Y-61573149D01*
X43694040Y-61577912D01*
X43672407Y-61583390D01*
X43592173Y-61618583D01*
X43587364Y-61620575D01*
X43505760Y-61652417D01*
X43486589Y-61663841D01*
X43472713Y-61670984D01*
X43461593Y-61675862D01*
X43452267Y-61679953D01*
X43378911Y-61727879D01*
X43374495Y-61730636D01*
X43299256Y-61775469D01*
X43282224Y-61789893D01*
X43269722Y-61799216D01*
X43251031Y-61811428D01*
X43186583Y-61870756D01*
X43182686Y-61874197D01*
X43161762Y-61891920D01*
X43142382Y-61911299D01*
X43138629Y-61914900D01*
X43074172Y-61974238D01*
X43060461Y-61991853D01*
X43050128Y-62003553D01*
X42243553Y-62810128D01*
X42231853Y-62820461D01*
X42214238Y-62834172D01*
X42154900Y-62898629D01*
X42151299Y-62902382D01*
X42131920Y-62921762D01*
X42114197Y-62942686D01*
X42110756Y-62946583D01*
X42051428Y-63011031D01*
X42039216Y-63029722D01*
X42029893Y-63042224D01*
X42015469Y-63059256D01*
X41970636Y-63134495D01*
X41967879Y-63138911D01*
X41919953Y-63212267D01*
X41910986Y-63232710D01*
X41903841Y-63246589D01*
X41892417Y-63265760D01*
X41860575Y-63347364D01*
X41858583Y-63352173D01*
X41823390Y-63432407D01*
X41817912Y-63454040D01*
X41813149Y-63468907D01*
X41805035Y-63489700D01*
X41787055Y-63575452D01*
X41785882Y-63580525D01*
X41773281Y-63630286D01*
X41740231Y-63688450D01*
X39636088Y-65792595D01*
X39595211Y-65819909D01*
X39546993Y-65829500D01*
X37917875Y-65829500D01*
X37902290Y-65828532D01*
X37898637Y-65828076D01*
X37880145Y-65825771D01*
X37795381Y-65829278D01*
X37792624Y-65829392D01*
X37787418Y-65829500D01*
X37760005Y-65829500D01*
X37732687Y-65831762D01*
X37727498Y-65832084D01*
X37639970Y-65835705D01*
X37618117Y-65840287D01*
X37602670Y-65842537D01*
X37580439Y-65844379D01*
X37495507Y-65865886D01*
X37490435Y-65867059D01*
X37404702Y-65885035D01*
X37383900Y-65893151D01*
X37369043Y-65897910D01*
X37347408Y-65903389D01*
X37267184Y-65938578D01*
X37262377Y-65940569D01*
X37180760Y-65972418D01*
X37161591Y-65983840D01*
X37147715Y-65990983D01*
X37127274Y-65999949D01*
X37053915Y-66047877D01*
X37049499Y-66050633D01*
X36974257Y-66095468D01*
X36957224Y-66109893D01*
X36944722Y-66119216D01*
X36926031Y-66131428D01*
X36861583Y-66190756D01*
X36857686Y-66194197D01*
X36836762Y-66211920D01*
X36817382Y-66231299D01*
X36813629Y-66234900D01*
X36749172Y-66294238D01*
X36735461Y-66311853D01*
X36725128Y-66323553D01*
X33036088Y-70012595D01*
X32995211Y-70039909D01*
X32946993Y-70049500D01*
X32697062Y-70049500D01*
X32656152Y-70042673D01*
X32649614Y-70040429D01*
X32404335Y-69999500D01*
X32155665Y-69999500D01*
X31910386Y-70040429D01*
X31910383Y-70040429D01*
X31910383Y-70040430D01*
X31675193Y-70121170D01*
X31456489Y-70239527D01*
X31260255Y-70392262D01*
X31091833Y-70575217D01*
X30955828Y-70783389D01*
X30855935Y-71011123D01*
X30794893Y-71252174D01*
X30794892Y-71252179D01*
X30774357Y-71500000D01*
X30794892Y-71747821D01*
X30794892Y-71747824D01*
X30794893Y-71747825D01*
X30855935Y-71988876D01*
X30855936Y-71988879D01*
X30855937Y-71988881D01*
X30862400Y-72003615D01*
X30955828Y-72216610D01*
X31091833Y-72424782D01*
X31156543Y-72495076D01*
X31260256Y-72607738D01*
X31456491Y-72760474D01*
X31675190Y-72878828D01*
X31910386Y-72959571D01*
X32155665Y-73000500D01*
X32404332Y-73000500D01*
X32404335Y-73000500D01*
X32649614Y-72959571D01*
X32656152Y-72957326D01*
X32697062Y-72950500D01*
X33502125Y-72950500D01*
X33517709Y-72951467D01*
X33539853Y-72954228D01*
X33539853Y-72954227D01*
X33539854Y-72954228D01*
X33606582Y-72951468D01*
X33627375Y-72950607D01*
X33632582Y-72950500D01*
X33659995Y-72950500D01*
X33687312Y-72948236D01*
X33692489Y-72947914D01*
X33780031Y-72944294D01*
X33801875Y-72939713D01*
X33817329Y-72937462D01*
X33822489Y-72937034D01*
X33839563Y-72935620D01*
X33924492Y-72914112D01*
X33929523Y-72912948D01*
X34015299Y-72894964D01*
X34036098Y-72886847D01*
X34050958Y-72882087D01*
X34072591Y-72876610D01*
X34152866Y-72841396D01*
X34157613Y-72839432D01*
X34239238Y-72807583D01*
X34258411Y-72796157D01*
X34272282Y-72789016D01*
X34292728Y-72780049D01*
X34366082Y-72732122D01*
X34370469Y-72729383D01*
X34445740Y-72684533D01*
X34462768Y-72670110D01*
X34475282Y-72660779D01*
X34493969Y-72648571D01*
X34558444Y-72589217D01*
X34562322Y-72585793D01*
X34583239Y-72568078D01*
X34602636Y-72548679D01*
X34606373Y-72545095D01*
X34612007Y-72539909D01*
X34670825Y-72485764D01*
X34684535Y-72468147D01*
X34694863Y-72456452D01*
X36296651Y-70854664D01*
X36357441Y-70820981D01*
X36426845Y-70824653D01*
X36483744Y-70864565D01*
X36510825Y-70928573D01*
X36526317Y-71056164D01*
X36580954Y-71244792D01*
X36597090Y-71300497D01*
X36706139Y-71530312D01*
X36706140Y-71530313D01*
X36727197Y-71560820D01*
X36743795Y-71594910D01*
X36749500Y-71632395D01*
X36749500Y-73346993D01*
X36739909Y-73395211D01*
X36712595Y-73436089D01*
X36136087Y-74012596D01*
X36095210Y-74039909D01*
X36046992Y-74049500D01*
X32697062Y-74049500D01*
X32656152Y-74042673D01*
X32649614Y-74040429D01*
X32404335Y-73999500D01*
X32155665Y-73999500D01*
X31910386Y-74040429D01*
X31910383Y-74040429D01*
X31910383Y-74040430D01*
X31675193Y-74121170D01*
X31456489Y-74239527D01*
X31260255Y-74392262D01*
X31091833Y-74575217D01*
X30955828Y-74783389D01*
X30855935Y-75011123D01*
X30809007Y-75196440D01*
X30794892Y-75252179D01*
X30774357Y-75500000D01*
X30794892Y-75747821D01*
X30794892Y-75747824D01*
X30794893Y-75747825D01*
X30855935Y-75988876D01*
X30955828Y-76216610D01*
X31091833Y-76424782D01*
X31091836Y-76424785D01*
X31260256Y-76607738D01*
X31456491Y-76760474D01*
X31675190Y-76878828D01*
X31910386Y-76959571D01*
X32155665Y-77000500D01*
X32404332Y-77000500D01*
X32404335Y-77000500D01*
X32649614Y-76959571D01*
X32656152Y-76957326D01*
X32697062Y-76950500D01*
X36602125Y-76950500D01*
X36617707Y-76951467D01*
X36631215Y-76953151D01*
X36639089Y-76954133D01*
X36695298Y-76975622D01*
X36735130Y-77020729D01*
X36749500Y-77079165D01*
X36749500Y-77371074D01*
X36732619Y-77434074D01*
X36646984Y-77582397D01*
X36556781Y-77820240D01*
X36505900Y-78069477D01*
X36495657Y-78323648D01*
X36526317Y-78576164D01*
X36559460Y-78690585D01*
X36597090Y-78820497D01*
X36691512Y-79019488D01*
X36703447Y-79081107D01*
X36684171Y-79140843D01*
X36638467Y-79183866D01*
X36577677Y-79199500D01*
X21126500Y-79199500D01*
X21063500Y-79182619D01*
X21017381Y-79136500D01*
X21000500Y-79073500D01*
X21000500Y-76787832D01*
X21019615Y-76721111D01*
X21071161Y-76674635D01*
X21139498Y-76662504D01*
X21203889Y-76688399D01*
X21296491Y-76760474D01*
X21515190Y-76878828D01*
X21750386Y-76959571D01*
X21995665Y-77000500D01*
X22244332Y-77000500D01*
X22244335Y-77000500D01*
X22489614Y-76959571D01*
X22724810Y-76878828D01*
X22943509Y-76760474D01*
X23139744Y-76607738D01*
X23308164Y-76424785D01*
X23444173Y-76216607D01*
X23544063Y-75988881D01*
X23605108Y-75747821D01*
X23625643Y-75500000D01*
X23605108Y-75252179D01*
X23605105Y-75252170D01*
X23604584Y-75245873D01*
X23611852Y-75192101D01*
X23641057Y-75146374D01*
X25156369Y-73631062D01*
X25163884Y-73624135D01*
X25202843Y-73591044D01*
X25249412Y-73529783D01*
X25251454Y-73527170D01*
X25299653Y-73467209D01*
X25299653Y-73467207D01*
X25299991Y-73466788D01*
X25311284Y-73448582D01*
X25343791Y-73378316D01*
X25345268Y-73375234D01*
X25379668Y-73305876D01*
X25386784Y-73285666D01*
X25386899Y-73285141D01*
X25386901Y-73285138D01*
X25403445Y-73209970D01*
X25404194Y-73206774D01*
X25422766Y-73132100D01*
X25422766Y-73132098D01*
X25422897Y-73131572D01*
X25425500Y-73110321D01*
X25425500Y-73032903D01*
X25425546Y-73029491D01*
X25427643Y-72952074D01*
X25425500Y-72929534D01*
X25425500Y-67248668D01*
X25425916Y-67238440D01*
X25430063Y-67187513D01*
X25419682Y-67111328D01*
X25419274Y-67108002D01*
X25410954Y-67031495D01*
X25410953Y-67031493D01*
X25410895Y-67030956D01*
X25406007Y-67010102D01*
X25401057Y-66996629D01*
X25386040Y-66955751D01*
X25379309Y-66937429D01*
X25378176Y-66934211D01*
X25353453Y-66860837D01*
X25344192Y-66841509D01*
X25302478Y-66776249D01*
X25300695Y-66773375D01*
X25273913Y-66728862D01*
X25260778Y-66707030D01*
X25247574Y-66690140D01*
X25192846Y-66635412D01*
X25190465Y-66632967D01*
X25137204Y-66576739D01*
X25119746Y-66562312D01*
X25047405Y-66489971D01*
X25020091Y-66449094D01*
X25010500Y-66400876D01*
X25010500Y-65043385D01*
X25004086Y-64972804D01*
X24953477Y-64810392D01*
X24865471Y-64664813D01*
X24745186Y-64544528D01*
X24599607Y-64456522D01*
X24437195Y-64405913D01*
X24370093Y-64399816D01*
X24366616Y-64399500D01*
X24366615Y-64399500D01*
X24341500Y-64399500D01*
X24278500Y-64382619D01*
X24232381Y-64336500D01*
X24215500Y-64273500D01*
X24215500Y-63456320D01*
X24231565Y-63394754D01*
X24275664Y-63348888D01*
X24316870Y-63323636D01*
X24373659Y-63288836D01*
X24565224Y-63125224D01*
X24728836Y-62933659D01*
X24860466Y-62718859D01*
X24956873Y-62486111D01*
X25015683Y-62241148D01*
X25035449Y-61990000D01*
X25015683Y-61738852D01*
X24956873Y-61493889D01*
X24860466Y-61261141D01*
X24860115Y-61260569D01*
X24728836Y-61046341D01*
X24565224Y-60854775D01*
X24373658Y-60691163D01*
X24158862Y-60559535D01*
X23926111Y-60463127D01*
X23681148Y-60404317D01*
X23430000Y-60384551D01*
X23178851Y-60404317D01*
X22933888Y-60463127D01*
X22701137Y-60559535D01*
X22486341Y-60691163D01*
X22333330Y-60821847D01*
X22268763Y-60850848D01*
X22198749Y-60840462D01*
X22145381Y-60793967D01*
X22125500Y-60726036D01*
X22125500Y-59696307D01*
X22139061Y-59639443D01*
X22176825Y-59594820D01*
X22230663Y-59572042D01*
X22269324Y-59574673D01*
X22269488Y-59572876D01*
X22289263Y-59574673D01*
X22353384Y-59580500D01*
X24266615Y-59580500D01*
X24266616Y-59580500D01*
X24337196Y-59574086D01*
X24499606Y-59523478D01*
X24645185Y-59435472D01*
X24765472Y-59315185D01*
X24853478Y-59169606D01*
X24904086Y-59007196D01*
X24910500Y-58936616D01*
X24910500Y-57023384D01*
X24904086Y-56952804D01*
X24853478Y-56790394D01*
X24765472Y-56644815D01*
X24765471Y-56644813D01*
X24645186Y-56524528D01*
X24499607Y-56436522D01*
X24337195Y-56385913D01*
X24330098Y-56385269D01*
X24272027Y-56364903D01*
X24230528Y-56319462D01*
X24215500Y-56259786D01*
X24215500Y-55437935D01*
X24231566Y-55376369D01*
X24275663Y-55330503D01*
X24343659Y-55288836D01*
X24535224Y-55125224D01*
X24698836Y-54933659D01*
X24830466Y-54718859D01*
X24926873Y-54486111D01*
X24985683Y-54241148D01*
X25005449Y-53990000D01*
X24985683Y-53738852D01*
X24926873Y-53493889D01*
X24830466Y-53261141D01*
X24827433Y-53256192D01*
X24698836Y-53046341D01*
X24535224Y-52854775D01*
X24343658Y-52691163D01*
X24128862Y-52559535D01*
X23896111Y-52463127D01*
X23651148Y-52404317D01*
X23400000Y-52384551D01*
X23148851Y-52404317D01*
X22903888Y-52463127D01*
X22671137Y-52559535D01*
X22456341Y-52691163D01*
X22264775Y-52854775D01*
X22101163Y-53046341D01*
X21969535Y-53261137D01*
X21873127Y-53493888D01*
X21814317Y-53738851D01*
X21794551Y-53990000D01*
X21814317Y-54241148D01*
X21873127Y-54486111D01*
X21969535Y-54718862D01*
X22101163Y-54933658D01*
X22264775Y-55125224D01*
X22428594Y-55265138D01*
X22456341Y-55288836D01*
X22504336Y-55318247D01*
X22548435Y-55364113D01*
X22564500Y-55425679D01*
X22564500Y-56253500D01*
X22547619Y-56316500D01*
X22501500Y-56362619D01*
X22438500Y-56379500D01*
X22353384Y-56379500D01*
X22347505Y-56380034D01*
X22282804Y-56385913D01*
X22120392Y-56436522D01*
X21974813Y-56524528D01*
X21854528Y-56644813D01*
X21766522Y-56790392D01*
X21715913Y-56952804D01*
X21709500Y-57023385D01*
X21709500Y-57102581D01*
X21698791Y-57153414D01*
X21668485Y-57195605D01*
X21623733Y-57221984D01*
X21551338Y-57246378D01*
X21551337Y-57246378D01*
X21550840Y-57246546D01*
X21531493Y-57255817D01*
X21466250Y-57297519D01*
X21463353Y-57299316D01*
X21397034Y-57339219D01*
X21380134Y-57352432D01*
X21325389Y-57407175D01*
X21322948Y-57409551D01*
X21266741Y-57462794D01*
X21252314Y-57480251D01*
X21215594Y-57516971D01*
X21165437Y-57547709D01*
X21106790Y-57552325D01*
X21052440Y-57529813D01*
X21014233Y-57485079D01*
X21000500Y-57427876D01*
X21000500Y-32304000D01*
X26249500Y-32304000D01*
X26249500Y-32700503D01*
X26260106Y-32804328D01*
X26315840Y-32972522D01*
X26408867Y-33123342D01*
X26534157Y-33248632D01*
X26684977Y-33341659D01*
X26853171Y-33397393D01*
X26956997Y-33408000D01*
X27478500Y-33408000D01*
X27478500Y-32304000D01*
X27986500Y-32304000D01*
X27986500Y-33408000D01*
X28508003Y-33408000D01*
X28611828Y-33397393D01*
X28780022Y-33341659D01*
X28930842Y-33248632D01*
X29056132Y-33123342D01*
X29149159Y-32972522D01*
X29204893Y-32804328D01*
X29215500Y-32700503D01*
X29215500Y-32304000D01*
X27986500Y-32304000D01*
X27478500Y-32304000D01*
X26249500Y-32304000D01*
X21000500Y-32304000D01*
X21000500Y-20926500D01*
X21017381Y-20863500D01*
X21063500Y-20817381D01*
X21126500Y-20800500D01*
X25027876Y-20800500D01*
X25085079Y-20814233D01*
G37*
%TD.AperFunction*%
D26*
X19800000Y-19600000D02*
X80600000Y-19600000D01*
X80600000Y-80600000D01*
X19800000Y-80600000D01*
X19800000Y-19600000D01*
M02*
