M48
; DRILL file {KiCad 7.0.1} date Thu 30 Mar 2023 09:50:57 PM -03
; FORMAT={-:-/ absolute / metric / decimal}
; #@! TF.CreationDate,2023-03-30T21:50:57-03:00
; #@! TF.GenerationSoftware,Kicad,Pcbnew,7.0.1
; #@! TF.FileFunction,Plated,1,2,PTH
FMAT,2
METRIC
; #@! TA.AperFunction,Plated,PTH,ComponentDrill
T1C0.800
; #@! TA.AperFunction,Plated,PTH,ComponentDrill
T2C0.900
; #@! TA.AperFunction,Plated,PTH,ComponentDrill
T3C0.950
; #@! TA.AperFunction,Plated,PTH,ComponentDrill
T4C1.000
; #@! TA.AperFunction,Plated,PTH,ComponentDrill
T5C1.100
%
G90
G05
T1
X22.12Y-71.5
X22.12Y-75.5
X23.4Y-44.475
X23.4Y-47.015
X23.4Y-49.555
X31.02Y-44.475
X31.02Y-47.015
X31.02Y-49.555
X32.28Y-71.5
X32.28Y-75.5
X35.9Y-24.42
X35.9Y-34.58
X39.59Y-44.79
X40.2Y-57.12
X40.2Y-67.28
X41.07Y-31.85
X41.07Y-39.47
X41.44Y-25.8
X41.44Y-28.3
X42.34Y-49.595
X42.34Y-52.135
X42.34Y-54.675
X43.61Y-31.85
X43.61Y-39.47
X46.15Y-31.85
X46.15Y-39.47
X46.83Y-27.2
X48.69Y-31.85
X48.69Y-39.47
X49.75Y-44.79
X49.96Y-49.595
X49.96Y-52.135
X49.96Y-54.675
X51.23Y-31.85
X51.23Y-39.47
X51.73Y-27.2
X52.7Y-57.12
X52.7Y-67.28
X53.57Y-44.56
X53.77Y-31.85
X53.77Y-39.47
X55.34Y-49.595
X55.34Y-52.135
X55.34Y-54.675
X56.31Y-31.85
X56.31Y-39.47
X57.34Y-25.71
X57.34Y-28.21
X58.85Y-31.85
X58.85Y-39.47
X61.39Y-31.85
X61.39Y-39.47
X62.96Y-49.595
X62.96Y-52.135
X62.96Y-54.675
X63.73Y-44.56
X65.9Y-57.32
X65.9Y-67.48
X67.51Y-44.81
X68.84Y-49.595
X68.84Y-52.135
X68.84Y-54.675
X76.46Y-49.595
X76.46Y-52.135
X76.46Y-54.675
X77.67Y-44.81
T2
X23.33Y-54.01
X23.41Y-58.02
X23.41Y-62.03
X23.41Y-65.88
X30.95Y-54.01
X31.03Y-58.02
X31.03Y-62.03
X31.03Y-65.88
T3
X27.732Y-24.55
X27.732Y-27.05
X27.732Y-29.55
X27.732Y-32.05
X72.667Y-24.55
X72.667Y-27.05
X72.667Y-29.55
X72.667Y-32.05
T4
X38.2Y-70.74
X38.2Y-78.26
X43.2Y-70.74
X43.2Y-78.26
X55.7Y-70.74
X55.7Y-78.26
X60.7Y-70.74
X60.7Y-78.26
X65.7Y-70.74
X65.7Y-78.26
X70.7Y-70.74
X70.7Y-78.26
X75.7Y-70.74
X75.7Y-78.26
T5
X46.645Y-60.42
X46.645Y-62.96
X46.645Y-65.5
X59.645Y-59.96
X59.645Y-62.5
X59.645Y-65.04
X73.045Y-60.06
X73.045Y-62.6
X73.045Y-65.14
T0
M30
