%TF.GenerationSoftware,KiCad,Pcbnew,7.0.1*%
%TF.CreationDate,2023-03-28T23:12:08-03:00*%
%TF.ProjectId,CeilingFanControl,4365696c-696e-4674-9661-6e436f6e7472,rev?*%
%TF.SameCoordinates,Original*%
%TF.FileFunction,Drillmap*%
%TF.FilePolarity,Positive*%
%FSLAX45Y45*%
G04 Gerber Fmt 4.5, Leading zero omitted, Abs format (unit mm)*
G04 Created by KiCad (PCBNEW 7.0.1) date 2023-03-28 23:12:08*
%MOMM*%
%LPD*%
G01*
G04 APERTURE LIST*
%ADD10C,0.200000*%
%ADD11C,0.080000*%
%ADD12C,0.090000*%
%ADD13C,0.095000*%
%ADD14C,0.100000*%
%ADD15C,0.110000*%
G04 APERTURE END LIST*
D10*
X1980000Y-1960000D02*
X8060000Y-1960000D01*
X8060000Y-8060000D01*
X1980000Y-8060000D01*
X1980000Y-1960000D01*
D11*
X2172000Y-7110000D02*
X2252000Y-7190000D01*
X2252000Y-7110000D02*
X2172000Y-7190000D01*
X2172000Y-7510000D02*
X2252000Y-7590000D01*
X2252000Y-7510000D02*
X2172000Y-7590000D01*
X2300000Y-4407500D02*
X2380000Y-4487500D01*
X2380000Y-4407500D02*
X2300000Y-4487500D01*
X2300000Y-4661500D02*
X2380000Y-4741500D01*
X2380000Y-4661500D02*
X2300000Y-4741500D01*
X2300000Y-4915500D02*
X2380000Y-4995500D01*
X2380000Y-4915500D02*
X2300000Y-4995500D01*
X3062000Y-4407500D02*
X3142000Y-4487500D01*
X3142000Y-4407500D02*
X3062000Y-4487500D01*
X3062000Y-4661500D02*
X3142000Y-4741500D01*
X3142000Y-4661500D02*
X3062000Y-4741500D01*
X3062000Y-4915500D02*
X3142000Y-4995500D01*
X3142000Y-4915500D02*
X3062000Y-4995500D01*
X3188000Y-7110000D02*
X3268000Y-7190000D01*
X3268000Y-7110000D02*
X3188000Y-7190000D01*
X3188000Y-7510000D02*
X3268000Y-7590000D01*
X3268000Y-7510000D02*
X3188000Y-7590000D01*
X3550000Y-2402000D02*
X3630000Y-2482000D01*
X3630000Y-2402000D02*
X3550000Y-2482000D01*
X3550000Y-3418000D02*
X3630000Y-3498000D01*
X3630000Y-3418000D02*
X3550000Y-3498000D01*
X3922000Y-4300000D02*
X4002000Y-4380000D01*
X4002000Y-4300000D02*
X3922000Y-4380000D01*
X3980000Y-5672000D02*
X4060000Y-5752000D01*
X4060000Y-5672000D02*
X3980000Y-5752000D01*
X3980000Y-6688000D02*
X4060000Y-6768000D01*
X4060000Y-6688000D02*
X3980000Y-6768000D01*
X4065000Y-3008000D02*
X4145000Y-3088000D01*
X4145000Y-3008000D02*
X4065000Y-3088000D01*
X4065000Y-3770000D02*
X4145000Y-3850000D01*
X4145000Y-3770000D02*
X4065000Y-3850000D01*
X4080000Y-2340000D02*
X4160000Y-2420000D01*
X4160000Y-2340000D02*
X4080000Y-2420000D01*
X4080000Y-2590000D02*
X4160000Y-2670000D01*
X4160000Y-2590000D02*
X4080000Y-2670000D01*
X4200000Y-4857500D02*
X4280000Y-4937500D01*
X4280000Y-4857500D02*
X4200000Y-4937500D01*
X4200000Y-5111500D02*
X4280000Y-5191500D01*
X4280000Y-5111500D02*
X4200000Y-5191500D01*
X4200000Y-5365500D02*
X4280000Y-5445500D01*
X4280000Y-5365500D02*
X4200000Y-5445500D01*
X4319000Y-3008000D02*
X4399000Y-3088000D01*
X4399000Y-3008000D02*
X4319000Y-3088000D01*
X4319000Y-3770000D02*
X4399000Y-3850000D01*
X4399000Y-3770000D02*
X4319000Y-3850000D01*
X4573000Y-3008000D02*
X4653000Y-3088000D01*
X4653000Y-3008000D02*
X4573000Y-3088000D01*
X4573000Y-3770000D02*
X4653000Y-3850000D01*
X4653000Y-3770000D02*
X4573000Y-3850000D01*
X4635000Y-2490000D02*
X4715000Y-2570000D01*
X4715000Y-2490000D02*
X4635000Y-2570000D01*
X4827000Y-3008000D02*
X4907000Y-3088000D01*
X4907000Y-3008000D02*
X4827000Y-3088000D01*
X4827000Y-3770000D02*
X4907000Y-3850000D01*
X4907000Y-3770000D02*
X4827000Y-3850000D01*
X4938000Y-4300000D02*
X5018000Y-4380000D01*
X5018000Y-4300000D02*
X4938000Y-4380000D01*
X4962000Y-4857500D02*
X5042000Y-4937500D01*
X5042000Y-4857500D02*
X4962000Y-4937500D01*
X4962000Y-5111500D02*
X5042000Y-5191500D01*
X5042000Y-5111500D02*
X4962000Y-5191500D01*
X4962000Y-5365500D02*
X5042000Y-5445500D01*
X5042000Y-5365500D02*
X4962000Y-5445500D01*
X5081000Y-3008000D02*
X5161000Y-3088000D01*
X5161000Y-3008000D02*
X5081000Y-3088000D01*
X5081000Y-3770000D02*
X5161000Y-3850000D01*
X5161000Y-3770000D02*
X5081000Y-3850000D01*
X5125000Y-2490000D02*
X5205000Y-2570000D01*
X5205000Y-2490000D02*
X5125000Y-2570000D01*
X5230000Y-5672000D02*
X5310000Y-5752000D01*
X5310000Y-5672000D02*
X5230000Y-5752000D01*
X5230000Y-6688000D02*
X5310000Y-6768000D01*
X5310000Y-6688000D02*
X5230000Y-6768000D01*
X5322000Y-4300000D02*
X5402000Y-4380000D01*
X5402000Y-4300000D02*
X5322000Y-4380000D01*
X5335000Y-3008000D02*
X5415000Y-3088000D01*
X5415000Y-3008000D02*
X5335000Y-3088000D01*
X5335000Y-3770000D02*
X5415000Y-3850000D01*
X5415000Y-3770000D02*
X5335000Y-3850000D01*
X5500000Y-4857500D02*
X5580000Y-4937500D01*
X5580000Y-4857500D02*
X5500000Y-4937500D01*
X5500000Y-5111500D02*
X5580000Y-5191500D01*
X5580000Y-5111500D02*
X5500000Y-5191500D01*
X5500000Y-5365500D02*
X5580000Y-5445500D01*
X5580000Y-5365500D02*
X5500000Y-5445500D01*
X5589000Y-3008000D02*
X5669000Y-3088000D01*
X5669000Y-3008000D02*
X5589000Y-3088000D01*
X5589000Y-3770000D02*
X5669000Y-3850000D01*
X5669000Y-3770000D02*
X5589000Y-3850000D01*
X5680000Y-2340000D02*
X5760000Y-2420000D01*
X5760000Y-2340000D02*
X5680000Y-2420000D01*
X5680000Y-2590000D02*
X5760000Y-2670000D01*
X5760000Y-2590000D02*
X5680000Y-2670000D01*
X5843000Y-3008000D02*
X5923000Y-3088000D01*
X5923000Y-3008000D02*
X5843000Y-3088000D01*
X5843000Y-3770000D02*
X5923000Y-3850000D01*
X5923000Y-3770000D02*
X5843000Y-3850000D01*
X6097000Y-3008000D02*
X6177000Y-3088000D01*
X6177000Y-3008000D02*
X6097000Y-3088000D01*
X6097000Y-3770000D02*
X6177000Y-3850000D01*
X6177000Y-3770000D02*
X6097000Y-3850000D01*
X6262000Y-4857500D02*
X6342000Y-4937500D01*
X6342000Y-4857500D02*
X6262000Y-4937500D01*
X6262000Y-5111500D02*
X6342000Y-5191500D01*
X6342000Y-5111500D02*
X6262000Y-5191500D01*
X6262000Y-5365500D02*
X6342000Y-5445500D01*
X6342000Y-5365500D02*
X6262000Y-5445500D01*
X6338000Y-4300000D02*
X6418000Y-4380000D01*
X6418000Y-4300000D02*
X6338000Y-4380000D01*
X6550000Y-5692000D02*
X6630000Y-5772000D01*
X6630000Y-5692000D02*
X6550000Y-5772000D01*
X6550000Y-6708000D02*
X6630000Y-6788000D01*
X6630000Y-6708000D02*
X6550000Y-6788000D01*
X6702000Y-4300000D02*
X6782000Y-4380000D01*
X6782000Y-4300000D02*
X6702000Y-4380000D01*
X6850000Y-4857500D02*
X6930000Y-4937500D01*
X6930000Y-4857500D02*
X6850000Y-4937500D01*
X6850000Y-5111500D02*
X6930000Y-5191500D01*
X6930000Y-5111500D02*
X6850000Y-5191500D01*
X6850000Y-5365500D02*
X6930000Y-5445500D01*
X6930000Y-5365500D02*
X6850000Y-5445500D01*
X7612000Y-4857500D02*
X7692000Y-4937500D01*
X7692000Y-4857500D02*
X7612000Y-4937500D01*
X7612000Y-5111500D02*
X7692000Y-5191500D01*
X7692000Y-5111500D02*
X7612000Y-5191500D01*
X7612000Y-5365500D02*
X7692000Y-5445500D01*
X7692000Y-5365500D02*
X7612000Y-5445500D01*
X7718000Y-4300000D02*
X7798000Y-4380000D01*
X7798000Y-4300000D02*
X7718000Y-4380000D01*
D12*
X2376000Y-5798000D02*
G75*
G03*
X2376000Y-5798000I-45000J0D01*
G01*
X2385000Y-5399000D02*
G75*
G03*
X2385000Y-5399000I-45000J0D01*
G01*
X2386000Y-6600000D02*
G75*
G03*
X2386000Y-6600000I-45000J0D01*
G01*
X2388000Y-6199000D02*
G75*
G03*
X2388000Y-6199000I-45000J0D01*
G01*
X3138000Y-5798000D02*
G75*
G03*
X3138000Y-5798000I-45000J0D01*
G01*
X3147000Y-5399000D02*
G75*
G03*
X3147000Y-5399000I-45000J0D01*
G01*
X3148000Y-6600000D02*
G75*
G03*
X3148000Y-6600000I-45000J0D01*
G01*
X3150000Y-6199000D02*
G75*
G03*
X3150000Y-6199000I-45000J0D01*
G01*
D13*
X2773250Y-2407500D02*
X2773250Y-2502500D01*
X2725750Y-2455000D02*
X2820750Y-2455000D01*
X2773250Y-2657500D02*
X2773250Y-2752500D01*
X2725750Y-2705000D02*
X2820750Y-2705000D01*
X2773250Y-2907500D02*
X2773250Y-3002500D01*
X2725750Y-2955000D02*
X2820750Y-2955000D01*
X2773250Y-3157500D02*
X2773250Y-3252500D01*
X2725750Y-3205000D02*
X2820750Y-3205000D01*
X7266750Y-2407500D02*
X7266750Y-2502500D01*
X7219250Y-2455000D02*
X7314250Y-2455000D01*
X7266750Y-2657500D02*
X7266750Y-2752500D01*
X7219250Y-2705000D02*
X7314250Y-2705000D01*
X7266750Y-2907500D02*
X7266750Y-3002500D01*
X7219250Y-2955000D02*
X7314250Y-2955000D01*
X7266750Y-3157500D02*
X7266750Y-3252500D01*
X7219250Y-3205000D02*
X7314250Y-3205000D01*
D14*
X3855356Y-7109356D02*
X3855356Y-7038644D01*
X3784644Y-7038644D01*
X3784644Y-7109356D01*
X3855356Y-7109356D01*
X3855356Y-7861356D02*
X3855356Y-7790644D01*
X3784644Y-7790644D01*
X3784644Y-7861356D01*
X3855356Y-7861356D01*
X4355356Y-7109356D02*
X4355356Y-7038644D01*
X4284644Y-7038644D01*
X4284644Y-7109356D01*
X4355356Y-7109356D01*
X4355356Y-7861356D02*
X4355356Y-7790644D01*
X4284644Y-7790644D01*
X4284644Y-7861356D01*
X4355356Y-7861356D01*
X5605356Y-7109356D02*
X5605356Y-7038644D01*
X5534644Y-7038644D01*
X5534644Y-7109356D01*
X5605356Y-7109356D01*
X5605356Y-7861356D02*
X5605356Y-7790644D01*
X5534644Y-7790644D01*
X5534644Y-7861356D01*
X5605356Y-7861356D01*
X6105356Y-7109356D02*
X6105356Y-7038644D01*
X6034644Y-7038644D01*
X6034644Y-7109356D01*
X6105356Y-7109356D01*
X6105356Y-7861356D02*
X6105356Y-7790644D01*
X6034644Y-7790644D01*
X6034644Y-7861356D01*
X6105356Y-7861356D01*
X6605356Y-7109356D02*
X6605356Y-7038644D01*
X6534644Y-7038644D01*
X6534644Y-7109356D01*
X6605356Y-7109356D01*
X6605356Y-7861356D02*
X6605356Y-7790644D01*
X6534644Y-7790644D01*
X6534644Y-7861356D01*
X6605356Y-7861356D01*
X7105356Y-7109356D02*
X7105356Y-7038644D01*
X7034644Y-7038644D01*
X7034644Y-7109356D01*
X7105356Y-7109356D01*
X7105356Y-7861356D02*
X7105356Y-7790644D01*
X7034644Y-7790644D01*
X7034644Y-7861356D01*
X7105356Y-7861356D01*
X7605356Y-7109356D02*
X7605356Y-7038644D01*
X7534644Y-7038644D01*
X7534644Y-7109356D01*
X7605356Y-7109356D01*
X7605356Y-7861356D02*
X7605356Y-7790644D01*
X7534644Y-7790644D01*
X7534644Y-7861356D01*
X7605356Y-7861356D01*
D15*
X4664500Y-6097000D02*
X4719500Y-6042000D01*
X4664500Y-5987000D01*
X4609500Y-6042000D01*
X4664500Y-6097000D01*
X4664500Y-6351000D02*
X4719500Y-6296000D01*
X4664500Y-6241000D01*
X4609500Y-6296000D01*
X4664500Y-6351000D01*
X4664500Y-6605000D02*
X4719500Y-6550000D01*
X4664500Y-6495000D01*
X4609500Y-6550000D01*
X4664500Y-6605000D01*
X5964500Y-6051000D02*
X6019500Y-5996000D01*
X5964500Y-5941000D01*
X5909500Y-5996000D01*
X5964500Y-6051000D01*
X5964500Y-6305000D02*
X6019500Y-6250000D01*
X5964500Y-6195000D01*
X5909500Y-6250000D01*
X5964500Y-6305000D01*
X5964500Y-6559000D02*
X6019500Y-6504000D01*
X5964500Y-6449000D01*
X5909500Y-6504000D01*
X5964500Y-6559000D01*
X7304500Y-6061000D02*
X7359500Y-6006000D01*
X7304500Y-5951000D01*
X7249500Y-6006000D01*
X7304500Y-6061000D01*
X7304500Y-6315000D02*
X7359500Y-6260000D01*
X7304500Y-6205000D01*
X7249500Y-6260000D01*
X7304500Y-6315000D01*
X7304500Y-6569000D02*
X7359500Y-6514000D01*
X7304500Y-6459000D01*
X7249500Y-6514000D01*
X7304500Y-6569000D01*
D10*
X2217619Y-8382524D02*
X2217619Y-8182524D01*
X2217619Y-8182524D02*
X2265238Y-8182524D01*
X2265238Y-8182524D02*
X2293810Y-8192048D01*
X2293810Y-8192048D02*
X2312857Y-8211095D01*
X2312857Y-8211095D02*
X2322381Y-8230143D01*
X2322381Y-8230143D02*
X2331905Y-8268238D01*
X2331905Y-8268238D02*
X2331905Y-8296809D01*
X2331905Y-8296809D02*
X2322381Y-8334905D01*
X2322381Y-8334905D02*
X2312857Y-8353952D01*
X2312857Y-8353952D02*
X2293810Y-8373000D01*
X2293810Y-8373000D02*
X2265238Y-8382524D01*
X2265238Y-8382524D02*
X2217619Y-8382524D01*
X2417619Y-8382524D02*
X2417619Y-8249190D01*
X2417619Y-8287286D02*
X2427143Y-8268238D01*
X2427143Y-8268238D02*
X2436667Y-8258714D01*
X2436667Y-8258714D02*
X2455714Y-8249190D01*
X2455714Y-8249190D02*
X2474762Y-8249190D01*
X2541429Y-8382524D02*
X2541429Y-8249190D01*
X2541429Y-8182524D02*
X2531905Y-8192048D01*
X2531905Y-8192048D02*
X2541429Y-8201571D01*
X2541429Y-8201571D02*
X2550952Y-8192048D01*
X2550952Y-8192048D02*
X2541429Y-8182524D01*
X2541429Y-8182524D02*
X2541429Y-8201571D01*
X2665238Y-8382524D02*
X2646190Y-8373000D01*
X2646190Y-8373000D02*
X2636667Y-8353952D01*
X2636667Y-8353952D02*
X2636667Y-8182524D01*
X2770000Y-8382524D02*
X2750952Y-8373000D01*
X2750952Y-8373000D02*
X2741429Y-8353952D01*
X2741429Y-8353952D02*
X2741429Y-8182524D01*
X2998571Y-8382524D02*
X2998571Y-8182524D01*
X2998571Y-8182524D02*
X3065238Y-8325381D01*
X3065238Y-8325381D02*
X3131905Y-8182524D01*
X3131905Y-8182524D02*
X3131905Y-8382524D01*
X3312857Y-8382524D02*
X3312857Y-8277762D01*
X3312857Y-8277762D02*
X3303333Y-8258714D01*
X3303333Y-8258714D02*
X3284286Y-8249190D01*
X3284286Y-8249190D02*
X3246190Y-8249190D01*
X3246190Y-8249190D02*
X3227143Y-8258714D01*
X3312857Y-8373000D02*
X3293809Y-8382524D01*
X3293809Y-8382524D02*
X3246190Y-8382524D01*
X3246190Y-8382524D02*
X3227143Y-8373000D01*
X3227143Y-8373000D02*
X3217619Y-8353952D01*
X3217619Y-8353952D02*
X3217619Y-8334905D01*
X3217619Y-8334905D02*
X3227143Y-8315857D01*
X3227143Y-8315857D02*
X3246190Y-8306333D01*
X3246190Y-8306333D02*
X3293809Y-8306333D01*
X3293809Y-8306333D02*
X3312857Y-8296809D01*
X3408095Y-8249190D02*
X3408095Y-8449190D01*
X3408095Y-8258714D02*
X3427143Y-8249190D01*
X3427143Y-8249190D02*
X3465238Y-8249190D01*
X3465238Y-8249190D02*
X3484286Y-8258714D01*
X3484286Y-8258714D02*
X3493809Y-8268238D01*
X3493809Y-8268238D02*
X3503333Y-8287286D01*
X3503333Y-8287286D02*
X3503333Y-8344428D01*
X3503333Y-8344428D02*
X3493809Y-8363476D01*
X3493809Y-8363476D02*
X3484286Y-8373000D01*
X3484286Y-8373000D02*
X3465238Y-8382524D01*
X3465238Y-8382524D02*
X3427143Y-8382524D01*
X3427143Y-8382524D02*
X3408095Y-8373000D01*
X3589048Y-8363476D02*
X3598571Y-8373000D01*
X3598571Y-8373000D02*
X3589048Y-8382524D01*
X3589048Y-8382524D02*
X3579524Y-8373000D01*
X3579524Y-8373000D02*
X3589048Y-8363476D01*
X3589048Y-8363476D02*
X3589048Y-8382524D01*
X3589048Y-8258714D02*
X3598571Y-8268238D01*
X3598571Y-8268238D02*
X3589048Y-8277762D01*
X3589048Y-8277762D02*
X3579524Y-8268238D01*
X3579524Y-8268238D02*
X3589048Y-8258714D01*
X3589048Y-8258714D02*
X3589048Y-8277762D01*
D11*
X1890000Y-8670000D02*
X1970000Y-8750000D01*
X1970000Y-8670000D02*
X1890000Y-8750000D01*
D10*
X2255714Y-8602524D02*
X2274762Y-8602524D01*
X2274762Y-8602524D02*
X2293810Y-8612048D01*
X2293810Y-8612048D02*
X2303333Y-8621571D01*
X2303333Y-8621571D02*
X2312857Y-8640619D01*
X2312857Y-8640619D02*
X2322381Y-8678714D01*
X2322381Y-8678714D02*
X2322381Y-8726333D01*
X2322381Y-8726333D02*
X2312857Y-8764429D01*
X2312857Y-8764429D02*
X2303333Y-8783476D01*
X2303333Y-8783476D02*
X2293810Y-8793000D01*
X2293810Y-8793000D02*
X2274762Y-8802524D01*
X2274762Y-8802524D02*
X2255714Y-8802524D01*
X2255714Y-8802524D02*
X2236667Y-8793000D01*
X2236667Y-8793000D02*
X2227143Y-8783476D01*
X2227143Y-8783476D02*
X2217619Y-8764429D01*
X2217619Y-8764429D02*
X2208095Y-8726333D01*
X2208095Y-8726333D02*
X2208095Y-8678714D01*
X2208095Y-8678714D02*
X2217619Y-8640619D01*
X2217619Y-8640619D02*
X2227143Y-8621571D01*
X2227143Y-8621571D02*
X2236667Y-8612048D01*
X2236667Y-8612048D02*
X2255714Y-8602524D01*
X2408095Y-8783476D02*
X2417619Y-8793000D01*
X2417619Y-8793000D02*
X2408095Y-8802524D01*
X2408095Y-8802524D02*
X2398571Y-8793000D01*
X2398571Y-8793000D02*
X2408095Y-8783476D01*
X2408095Y-8783476D02*
X2408095Y-8802524D01*
X2531905Y-8688238D02*
X2512857Y-8678714D01*
X2512857Y-8678714D02*
X2503333Y-8669190D01*
X2503333Y-8669190D02*
X2493810Y-8650143D01*
X2493810Y-8650143D02*
X2493810Y-8640619D01*
X2493810Y-8640619D02*
X2503333Y-8621571D01*
X2503333Y-8621571D02*
X2512857Y-8612048D01*
X2512857Y-8612048D02*
X2531905Y-8602524D01*
X2531905Y-8602524D02*
X2570000Y-8602524D01*
X2570000Y-8602524D02*
X2589048Y-8612048D01*
X2589048Y-8612048D02*
X2598571Y-8621571D01*
X2598571Y-8621571D02*
X2608095Y-8640619D01*
X2608095Y-8640619D02*
X2608095Y-8650143D01*
X2608095Y-8650143D02*
X2598571Y-8669190D01*
X2598571Y-8669190D02*
X2589048Y-8678714D01*
X2589048Y-8678714D02*
X2570000Y-8688238D01*
X2570000Y-8688238D02*
X2531905Y-8688238D01*
X2531905Y-8688238D02*
X2512857Y-8697762D01*
X2512857Y-8697762D02*
X2503333Y-8707286D01*
X2503333Y-8707286D02*
X2493810Y-8726333D01*
X2493810Y-8726333D02*
X2493810Y-8764429D01*
X2493810Y-8764429D02*
X2503333Y-8783476D01*
X2503333Y-8783476D02*
X2512857Y-8793000D01*
X2512857Y-8793000D02*
X2531905Y-8802524D01*
X2531905Y-8802524D02*
X2570000Y-8802524D01*
X2570000Y-8802524D02*
X2589048Y-8793000D01*
X2589048Y-8793000D02*
X2598571Y-8783476D01*
X2598571Y-8783476D02*
X2608095Y-8764429D01*
X2608095Y-8764429D02*
X2608095Y-8726333D01*
X2608095Y-8726333D02*
X2598571Y-8707286D01*
X2598571Y-8707286D02*
X2589048Y-8697762D01*
X2589048Y-8697762D02*
X2570000Y-8688238D01*
X2731905Y-8602524D02*
X2750952Y-8602524D01*
X2750952Y-8602524D02*
X2770000Y-8612048D01*
X2770000Y-8612048D02*
X2779524Y-8621571D01*
X2779524Y-8621571D02*
X2789048Y-8640619D01*
X2789048Y-8640619D02*
X2798571Y-8678714D01*
X2798571Y-8678714D02*
X2798571Y-8726333D01*
X2798571Y-8726333D02*
X2789048Y-8764429D01*
X2789048Y-8764429D02*
X2779524Y-8783476D01*
X2779524Y-8783476D02*
X2770000Y-8793000D01*
X2770000Y-8793000D02*
X2750952Y-8802524D01*
X2750952Y-8802524D02*
X2731905Y-8802524D01*
X2731905Y-8802524D02*
X2712857Y-8793000D01*
X2712857Y-8793000D02*
X2703333Y-8783476D01*
X2703333Y-8783476D02*
X2693810Y-8764429D01*
X2693810Y-8764429D02*
X2684286Y-8726333D01*
X2684286Y-8726333D02*
X2684286Y-8678714D01*
X2684286Y-8678714D02*
X2693810Y-8640619D01*
X2693810Y-8640619D02*
X2703333Y-8621571D01*
X2703333Y-8621571D02*
X2712857Y-8612048D01*
X2712857Y-8612048D02*
X2731905Y-8602524D01*
X2922381Y-8602524D02*
X2941429Y-8602524D01*
X2941429Y-8602524D02*
X2960476Y-8612048D01*
X2960476Y-8612048D02*
X2970000Y-8621571D01*
X2970000Y-8621571D02*
X2979524Y-8640619D01*
X2979524Y-8640619D02*
X2989048Y-8678714D01*
X2989048Y-8678714D02*
X2989048Y-8726333D01*
X2989048Y-8726333D02*
X2979524Y-8764429D01*
X2979524Y-8764429D02*
X2970000Y-8783476D01*
X2970000Y-8783476D02*
X2960476Y-8793000D01*
X2960476Y-8793000D02*
X2941429Y-8802524D01*
X2941429Y-8802524D02*
X2922381Y-8802524D01*
X2922381Y-8802524D02*
X2903333Y-8793000D01*
X2903333Y-8793000D02*
X2893809Y-8783476D01*
X2893809Y-8783476D02*
X2884286Y-8764429D01*
X2884286Y-8764429D02*
X2874762Y-8726333D01*
X2874762Y-8726333D02*
X2874762Y-8678714D01*
X2874762Y-8678714D02*
X2884286Y-8640619D01*
X2884286Y-8640619D02*
X2893809Y-8621571D01*
X2893809Y-8621571D02*
X2903333Y-8612048D01*
X2903333Y-8612048D02*
X2922381Y-8602524D01*
X3074762Y-8802524D02*
X3074762Y-8669190D01*
X3074762Y-8688238D02*
X3084286Y-8678714D01*
X3084286Y-8678714D02*
X3103333Y-8669190D01*
X3103333Y-8669190D02*
X3131905Y-8669190D01*
X3131905Y-8669190D02*
X3150952Y-8678714D01*
X3150952Y-8678714D02*
X3160476Y-8697762D01*
X3160476Y-8697762D02*
X3160476Y-8802524D01*
X3160476Y-8697762D02*
X3170000Y-8678714D01*
X3170000Y-8678714D02*
X3189048Y-8669190D01*
X3189048Y-8669190D02*
X3217619Y-8669190D01*
X3217619Y-8669190D02*
X3236667Y-8678714D01*
X3236667Y-8678714D02*
X3246190Y-8697762D01*
X3246190Y-8697762D02*
X3246190Y-8802524D01*
X3341429Y-8802524D02*
X3341429Y-8669190D01*
X3341429Y-8688238D02*
X3350952Y-8678714D01*
X3350952Y-8678714D02*
X3370000Y-8669190D01*
X3370000Y-8669190D02*
X3398571Y-8669190D01*
X3398571Y-8669190D02*
X3417619Y-8678714D01*
X3417619Y-8678714D02*
X3427143Y-8697762D01*
X3427143Y-8697762D02*
X3427143Y-8802524D01*
X3427143Y-8697762D02*
X3436667Y-8678714D01*
X3436667Y-8678714D02*
X3455714Y-8669190D01*
X3455714Y-8669190D02*
X3484286Y-8669190D01*
X3484286Y-8669190D02*
X3503333Y-8678714D01*
X3503333Y-8678714D02*
X3512857Y-8697762D01*
X3512857Y-8697762D02*
X3512857Y-8802524D01*
X3903333Y-8593000D02*
X3731905Y-8850143D01*
X4160476Y-8602524D02*
X4179524Y-8602524D01*
X4179524Y-8602524D02*
X4198572Y-8612048D01*
X4198572Y-8612048D02*
X4208095Y-8621571D01*
X4208095Y-8621571D02*
X4217619Y-8640619D01*
X4217619Y-8640619D02*
X4227143Y-8678714D01*
X4227143Y-8678714D02*
X4227143Y-8726333D01*
X4227143Y-8726333D02*
X4217619Y-8764429D01*
X4217619Y-8764429D02*
X4208095Y-8783476D01*
X4208095Y-8783476D02*
X4198572Y-8793000D01*
X4198572Y-8793000D02*
X4179524Y-8802524D01*
X4179524Y-8802524D02*
X4160476Y-8802524D01*
X4160476Y-8802524D02*
X4141429Y-8793000D01*
X4141429Y-8793000D02*
X4131905Y-8783476D01*
X4131905Y-8783476D02*
X4122381Y-8764429D01*
X4122381Y-8764429D02*
X4112857Y-8726333D01*
X4112857Y-8726333D02*
X4112857Y-8678714D01*
X4112857Y-8678714D02*
X4122381Y-8640619D01*
X4122381Y-8640619D02*
X4131905Y-8621571D01*
X4131905Y-8621571D02*
X4141429Y-8612048D01*
X4141429Y-8612048D02*
X4160476Y-8602524D01*
X4312857Y-8783476D02*
X4322381Y-8793000D01*
X4322381Y-8793000D02*
X4312857Y-8802524D01*
X4312857Y-8802524D02*
X4303334Y-8793000D01*
X4303334Y-8793000D02*
X4312857Y-8783476D01*
X4312857Y-8783476D02*
X4312857Y-8802524D01*
X4446191Y-8602524D02*
X4465238Y-8602524D01*
X4465238Y-8602524D02*
X4484286Y-8612048D01*
X4484286Y-8612048D02*
X4493810Y-8621571D01*
X4493810Y-8621571D02*
X4503334Y-8640619D01*
X4503334Y-8640619D02*
X4512857Y-8678714D01*
X4512857Y-8678714D02*
X4512857Y-8726333D01*
X4512857Y-8726333D02*
X4503334Y-8764429D01*
X4503334Y-8764429D02*
X4493810Y-8783476D01*
X4493810Y-8783476D02*
X4484286Y-8793000D01*
X4484286Y-8793000D02*
X4465238Y-8802524D01*
X4465238Y-8802524D02*
X4446191Y-8802524D01*
X4446191Y-8802524D02*
X4427143Y-8793000D01*
X4427143Y-8793000D02*
X4417619Y-8783476D01*
X4417619Y-8783476D02*
X4408095Y-8764429D01*
X4408095Y-8764429D02*
X4398572Y-8726333D01*
X4398572Y-8726333D02*
X4398572Y-8678714D01*
X4398572Y-8678714D02*
X4408095Y-8640619D01*
X4408095Y-8640619D02*
X4417619Y-8621571D01*
X4417619Y-8621571D02*
X4427143Y-8612048D01*
X4427143Y-8612048D02*
X4446191Y-8602524D01*
X4579524Y-8602524D02*
X4703334Y-8602524D01*
X4703334Y-8602524D02*
X4636667Y-8678714D01*
X4636667Y-8678714D02*
X4665238Y-8678714D01*
X4665238Y-8678714D02*
X4684286Y-8688238D01*
X4684286Y-8688238D02*
X4693810Y-8697762D01*
X4693810Y-8697762D02*
X4703334Y-8716810D01*
X4703334Y-8716810D02*
X4703334Y-8764429D01*
X4703334Y-8764429D02*
X4693810Y-8783476D01*
X4693810Y-8783476D02*
X4684286Y-8793000D01*
X4684286Y-8793000D02*
X4665238Y-8802524D01*
X4665238Y-8802524D02*
X4608095Y-8802524D01*
X4608095Y-8802524D02*
X4589048Y-8793000D01*
X4589048Y-8793000D02*
X4579524Y-8783476D01*
X4893810Y-8802524D02*
X4779524Y-8802524D01*
X4836667Y-8802524D02*
X4836667Y-8602524D01*
X4836667Y-8602524D02*
X4817619Y-8631095D01*
X4817619Y-8631095D02*
X4798572Y-8650143D01*
X4798572Y-8650143D02*
X4779524Y-8659667D01*
X5074762Y-8602524D02*
X4979524Y-8602524D01*
X4979524Y-8602524D02*
X4970000Y-8697762D01*
X4970000Y-8697762D02*
X4979524Y-8688238D01*
X4979524Y-8688238D02*
X4998572Y-8678714D01*
X4998572Y-8678714D02*
X5046191Y-8678714D01*
X5046191Y-8678714D02*
X5065238Y-8688238D01*
X5065238Y-8688238D02*
X5074762Y-8697762D01*
X5074762Y-8697762D02*
X5084286Y-8716810D01*
X5084286Y-8716810D02*
X5084286Y-8764429D01*
X5084286Y-8764429D02*
X5074762Y-8783476D01*
X5074762Y-8783476D02*
X5065238Y-8793000D01*
X5065238Y-8793000D02*
X5046191Y-8802524D01*
X5046191Y-8802524D02*
X4998572Y-8802524D01*
X4998572Y-8802524D02*
X4979524Y-8793000D01*
X4979524Y-8793000D02*
X4970000Y-8783476D01*
X5160476Y-8602524D02*
X5160476Y-8640619D01*
X5236667Y-8602524D02*
X5236667Y-8640619D01*
X5531905Y-8878714D02*
X5522381Y-8869190D01*
X5522381Y-8869190D02*
X5503334Y-8840619D01*
X5503334Y-8840619D02*
X5493810Y-8821571D01*
X5493810Y-8821571D02*
X5484286Y-8793000D01*
X5484286Y-8793000D02*
X5474762Y-8745381D01*
X5474762Y-8745381D02*
X5474762Y-8707286D01*
X5474762Y-8707286D02*
X5484286Y-8659667D01*
X5484286Y-8659667D02*
X5493810Y-8631095D01*
X5493810Y-8631095D02*
X5503334Y-8612048D01*
X5503334Y-8612048D02*
X5522381Y-8583476D01*
X5522381Y-8583476D02*
X5531905Y-8573952D01*
X5693810Y-8602524D02*
X5655714Y-8602524D01*
X5655714Y-8602524D02*
X5636667Y-8612048D01*
X5636667Y-8612048D02*
X5627143Y-8621571D01*
X5627143Y-8621571D02*
X5608095Y-8650143D01*
X5608095Y-8650143D02*
X5598572Y-8688238D01*
X5598572Y-8688238D02*
X5598572Y-8764429D01*
X5598572Y-8764429D02*
X5608095Y-8783476D01*
X5608095Y-8783476D02*
X5617619Y-8793000D01*
X5617619Y-8793000D02*
X5636667Y-8802524D01*
X5636667Y-8802524D02*
X5674762Y-8802524D01*
X5674762Y-8802524D02*
X5693810Y-8793000D01*
X5693810Y-8793000D02*
X5703334Y-8783476D01*
X5703334Y-8783476D02*
X5712857Y-8764429D01*
X5712857Y-8764429D02*
X5712857Y-8716810D01*
X5712857Y-8716810D02*
X5703334Y-8697762D01*
X5703334Y-8697762D02*
X5693810Y-8688238D01*
X5693810Y-8688238D02*
X5674762Y-8678714D01*
X5674762Y-8678714D02*
X5636667Y-8678714D01*
X5636667Y-8678714D02*
X5617619Y-8688238D01*
X5617619Y-8688238D02*
X5608095Y-8697762D01*
X5608095Y-8697762D02*
X5598572Y-8716810D01*
X5884286Y-8602524D02*
X5846191Y-8602524D01*
X5846191Y-8602524D02*
X5827143Y-8612048D01*
X5827143Y-8612048D02*
X5817619Y-8621571D01*
X5817619Y-8621571D02*
X5798572Y-8650143D01*
X5798572Y-8650143D02*
X5789048Y-8688238D01*
X5789048Y-8688238D02*
X5789048Y-8764429D01*
X5789048Y-8764429D02*
X5798572Y-8783476D01*
X5798572Y-8783476D02*
X5808095Y-8793000D01*
X5808095Y-8793000D02*
X5827143Y-8802524D01*
X5827143Y-8802524D02*
X5865238Y-8802524D01*
X5865238Y-8802524D02*
X5884286Y-8793000D01*
X5884286Y-8793000D02*
X5893810Y-8783476D01*
X5893810Y-8783476D02*
X5903334Y-8764429D01*
X5903334Y-8764429D02*
X5903334Y-8716810D01*
X5903334Y-8716810D02*
X5893810Y-8697762D01*
X5893810Y-8697762D02*
X5884286Y-8688238D01*
X5884286Y-8688238D02*
X5865238Y-8678714D01*
X5865238Y-8678714D02*
X5827143Y-8678714D01*
X5827143Y-8678714D02*
X5808095Y-8688238D01*
X5808095Y-8688238D02*
X5798572Y-8697762D01*
X5798572Y-8697762D02*
X5789048Y-8716810D01*
X6141429Y-8802524D02*
X6141429Y-8602524D01*
X6227143Y-8802524D02*
X6227143Y-8697762D01*
X6227143Y-8697762D02*
X6217619Y-8678714D01*
X6217619Y-8678714D02*
X6198572Y-8669190D01*
X6198572Y-8669190D02*
X6170000Y-8669190D01*
X6170000Y-8669190D02*
X6150953Y-8678714D01*
X6150953Y-8678714D02*
X6141429Y-8688238D01*
X6350953Y-8802524D02*
X6331905Y-8793000D01*
X6331905Y-8793000D02*
X6322381Y-8783476D01*
X6322381Y-8783476D02*
X6312857Y-8764429D01*
X6312857Y-8764429D02*
X6312857Y-8707286D01*
X6312857Y-8707286D02*
X6322381Y-8688238D01*
X6322381Y-8688238D02*
X6331905Y-8678714D01*
X6331905Y-8678714D02*
X6350953Y-8669190D01*
X6350953Y-8669190D02*
X6379524Y-8669190D01*
X6379524Y-8669190D02*
X6398572Y-8678714D01*
X6398572Y-8678714D02*
X6408096Y-8688238D01*
X6408096Y-8688238D02*
X6417619Y-8707286D01*
X6417619Y-8707286D02*
X6417619Y-8764429D01*
X6417619Y-8764429D02*
X6408096Y-8783476D01*
X6408096Y-8783476D02*
X6398572Y-8793000D01*
X6398572Y-8793000D02*
X6379524Y-8802524D01*
X6379524Y-8802524D02*
X6350953Y-8802524D01*
X6531905Y-8802524D02*
X6512857Y-8793000D01*
X6512857Y-8793000D02*
X6503334Y-8773952D01*
X6503334Y-8773952D02*
X6503334Y-8602524D01*
X6684286Y-8793000D02*
X6665238Y-8802524D01*
X6665238Y-8802524D02*
X6627143Y-8802524D01*
X6627143Y-8802524D02*
X6608096Y-8793000D01*
X6608096Y-8793000D02*
X6598572Y-8773952D01*
X6598572Y-8773952D02*
X6598572Y-8697762D01*
X6598572Y-8697762D02*
X6608096Y-8678714D01*
X6608096Y-8678714D02*
X6627143Y-8669190D01*
X6627143Y-8669190D02*
X6665238Y-8669190D01*
X6665238Y-8669190D02*
X6684286Y-8678714D01*
X6684286Y-8678714D02*
X6693810Y-8697762D01*
X6693810Y-8697762D02*
X6693810Y-8716810D01*
X6693810Y-8716810D02*
X6598572Y-8735857D01*
X6770000Y-8793000D02*
X6789048Y-8802524D01*
X6789048Y-8802524D02*
X6827143Y-8802524D01*
X6827143Y-8802524D02*
X6846191Y-8793000D01*
X6846191Y-8793000D02*
X6855715Y-8773952D01*
X6855715Y-8773952D02*
X6855715Y-8764429D01*
X6855715Y-8764429D02*
X6846191Y-8745381D01*
X6846191Y-8745381D02*
X6827143Y-8735857D01*
X6827143Y-8735857D02*
X6798572Y-8735857D01*
X6798572Y-8735857D02*
X6779524Y-8726333D01*
X6779524Y-8726333D02*
X6770000Y-8707286D01*
X6770000Y-8707286D02*
X6770000Y-8697762D01*
X6770000Y-8697762D02*
X6779524Y-8678714D01*
X6779524Y-8678714D02*
X6798572Y-8669190D01*
X6798572Y-8669190D02*
X6827143Y-8669190D01*
X6827143Y-8669190D02*
X6846191Y-8678714D01*
X6922381Y-8878714D02*
X6931905Y-8869190D01*
X6931905Y-8869190D02*
X6950953Y-8840619D01*
X6950953Y-8840619D02*
X6960477Y-8821571D01*
X6960477Y-8821571D02*
X6970000Y-8793000D01*
X6970000Y-8793000D02*
X6979524Y-8745381D01*
X6979524Y-8745381D02*
X6979524Y-8707286D01*
X6979524Y-8707286D02*
X6970000Y-8659667D01*
X6970000Y-8659667D02*
X6960477Y-8631095D01*
X6960477Y-8631095D02*
X6950953Y-8612048D01*
X6950953Y-8612048D02*
X6931905Y-8583476D01*
X6931905Y-8583476D02*
X6922381Y-8573952D01*
D12*
X1970000Y-8974000D02*
G75*
G03*
X1970000Y-8974000I-45000J0D01*
G01*
D10*
X2255714Y-8866524D02*
X2274762Y-8866524D01*
X2274762Y-8866524D02*
X2293810Y-8876048D01*
X2293810Y-8876048D02*
X2303333Y-8885571D01*
X2303333Y-8885571D02*
X2312857Y-8904619D01*
X2312857Y-8904619D02*
X2322381Y-8942714D01*
X2322381Y-8942714D02*
X2322381Y-8990333D01*
X2322381Y-8990333D02*
X2312857Y-9028429D01*
X2312857Y-9028429D02*
X2303333Y-9047476D01*
X2303333Y-9047476D02*
X2293810Y-9057000D01*
X2293810Y-9057000D02*
X2274762Y-9066524D01*
X2274762Y-9066524D02*
X2255714Y-9066524D01*
X2255714Y-9066524D02*
X2236667Y-9057000D01*
X2236667Y-9057000D02*
X2227143Y-9047476D01*
X2227143Y-9047476D02*
X2217619Y-9028429D01*
X2217619Y-9028429D02*
X2208095Y-8990333D01*
X2208095Y-8990333D02*
X2208095Y-8942714D01*
X2208095Y-8942714D02*
X2217619Y-8904619D01*
X2217619Y-8904619D02*
X2227143Y-8885571D01*
X2227143Y-8885571D02*
X2236667Y-8876048D01*
X2236667Y-8876048D02*
X2255714Y-8866524D01*
X2408095Y-9047476D02*
X2417619Y-9057000D01*
X2417619Y-9057000D02*
X2408095Y-9066524D01*
X2408095Y-9066524D02*
X2398571Y-9057000D01*
X2398571Y-9057000D02*
X2408095Y-9047476D01*
X2408095Y-9047476D02*
X2408095Y-9066524D01*
X2512857Y-9066524D02*
X2550952Y-9066524D01*
X2550952Y-9066524D02*
X2570000Y-9057000D01*
X2570000Y-9057000D02*
X2579524Y-9047476D01*
X2579524Y-9047476D02*
X2598571Y-9018905D01*
X2598571Y-9018905D02*
X2608095Y-8980810D01*
X2608095Y-8980810D02*
X2608095Y-8904619D01*
X2608095Y-8904619D02*
X2598571Y-8885571D01*
X2598571Y-8885571D02*
X2589048Y-8876048D01*
X2589048Y-8876048D02*
X2570000Y-8866524D01*
X2570000Y-8866524D02*
X2531905Y-8866524D01*
X2531905Y-8866524D02*
X2512857Y-8876048D01*
X2512857Y-8876048D02*
X2503333Y-8885571D01*
X2503333Y-8885571D02*
X2493810Y-8904619D01*
X2493810Y-8904619D02*
X2493810Y-8952238D01*
X2493810Y-8952238D02*
X2503333Y-8971286D01*
X2503333Y-8971286D02*
X2512857Y-8980810D01*
X2512857Y-8980810D02*
X2531905Y-8990333D01*
X2531905Y-8990333D02*
X2570000Y-8990333D01*
X2570000Y-8990333D02*
X2589048Y-8980810D01*
X2589048Y-8980810D02*
X2598571Y-8971286D01*
X2598571Y-8971286D02*
X2608095Y-8952238D01*
X2731905Y-8866524D02*
X2750952Y-8866524D01*
X2750952Y-8866524D02*
X2770000Y-8876048D01*
X2770000Y-8876048D02*
X2779524Y-8885571D01*
X2779524Y-8885571D02*
X2789048Y-8904619D01*
X2789048Y-8904619D02*
X2798571Y-8942714D01*
X2798571Y-8942714D02*
X2798571Y-8990333D01*
X2798571Y-8990333D02*
X2789048Y-9028429D01*
X2789048Y-9028429D02*
X2779524Y-9047476D01*
X2779524Y-9047476D02*
X2770000Y-9057000D01*
X2770000Y-9057000D02*
X2750952Y-9066524D01*
X2750952Y-9066524D02*
X2731905Y-9066524D01*
X2731905Y-9066524D02*
X2712857Y-9057000D01*
X2712857Y-9057000D02*
X2703333Y-9047476D01*
X2703333Y-9047476D02*
X2693810Y-9028429D01*
X2693810Y-9028429D02*
X2684286Y-8990333D01*
X2684286Y-8990333D02*
X2684286Y-8942714D01*
X2684286Y-8942714D02*
X2693810Y-8904619D01*
X2693810Y-8904619D02*
X2703333Y-8885571D01*
X2703333Y-8885571D02*
X2712857Y-8876048D01*
X2712857Y-8876048D02*
X2731905Y-8866524D01*
X2922381Y-8866524D02*
X2941429Y-8866524D01*
X2941429Y-8866524D02*
X2960476Y-8876048D01*
X2960476Y-8876048D02*
X2970000Y-8885571D01*
X2970000Y-8885571D02*
X2979524Y-8904619D01*
X2979524Y-8904619D02*
X2989048Y-8942714D01*
X2989048Y-8942714D02*
X2989048Y-8990333D01*
X2989048Y-8990333D02*
X2979524Y-9028429D01*
X2979524Y-9028429D02*
X2970000Y-9047476D01*
X2970000Y-9047476D02*
X2960476Y-9057000D01*
X2960476Y-9057000D02*
X2941429Y-9066524D01*
X2941429Y-9066524D02*
X2922381Y-9066524D01*
X2922381Y-9066524D02*
X2903333Y-9057000D01*
X2903333Y-9057000D02*
X2893809Y-9047476D01*
X2893809Y-9047476D02*
X2884286Y-9028429D01*
X2884286Y-9028429D02*
X2874762Y-8990333D01*
X2874762Y-8990333D02*
X2874762Y-8942714D01*
X2874762Y-8942714D02*
X2884286Y-8904619D01*
X2884286Y-8904619D02*
X2893809Y-8885571D01*
X2893809Y-8885571D02*
X2903333Y-8876048D01*
X2903333Y-8876048D02*
X2922381Y-8866524D01*
X3074762Y-9066524D02*
X3074762Y-8933190D01*
X3074762Y-8952238D02*
X3084286Y-8942714D01*
X3084286Y-8942714D02*
X3103333Y-8933190D01*
X3103333Y-8933190D02*
X3131905Y-8933190D01*
X3131905Y-8933190D02*
X3150952Y-8942714D01*
X3150952Y-8942714D02*
X3160476Y-8961762D01*
X3160476Y-8961762D02*
X3160476Y-9066524D01*
X3160476Y-8961762D02*
X3170000Y-8942714D01*
X3170000Y-8942714D02*
X3189048Y-8933190D01*
X3189048Y-8933190D02*
X3217619Y-8933190D01*
X3217619Y-8933190D02*
X3236667Y-8942714D01*
X3236667Y-8942714D02*
X3246190Y-8961762D01*
X3246190Y-8961762D02*
X3246190Y-9066524D01*
X3341429Y-9066524D02*
X3341429Y-8933190D01*
X3341429Y-8952238D02*
X3350952Y-8942714D01*
X3350952Y-8942714D02*
X3370000Y-8933190D01*
X3370000Y-8933190D02*
X3398571Y-8933190D01*
X3398571Y-8933190D02*
X3417619Y-8942714D01*
X3417619Y-8942714D02*
X3427143Y-8961762D01*
X3427143Y-8961762D02*
X3427143Y-9066524D01*
X3427143Y-8961762D02*
X3436667Y-8942714D01*
X3436667Y-8942714D02*
X3455714Y-8933190D01*
X3455714Y-8933190D02*
X3484286Y-8933190D01*
X3484286Y-8933190D02*
X3503333Y-8942714D01*
X3503333Y-8942714D02*
X3512857Y-8961762D01*
X3512857Y-8961762D02*
X3512857Y-9066524D01*
X3903333Y-8857000D02*
X3731905Y-9114143D01*
X4160476Y-8866524D02*
X4179524Y-8866524D01*
X4179524Y-8866524D02*
X4198572Y-8876048D01*
X4198572Y-8876048D02*
X4208095Y-8885571D01*
X4208095Y-8885571D02*
X4217619Y-8904619D01*
X4217619Y-8904619D02*
X4227143Y-8942714D01*
X4227143Y-8942714D02*
X4227143Y-8990333D01*
X4227143Y-8990333D02*
X4217619Y-9028429D01*
X4217619Y-9028429D02*
X4208095Y-9047476D01*
X4208095Y-9047476D02*
X4198572Y-9057000D01*
X4198572Y-9057000D02*
X4179524Y-9066524D01*
X4179524Y-9066524D02*
X4160476Y-9066524D01*
X4160476Y-9066524D02*
X4141429Y-9057000D01*
X4141429Y-9057000D02*
X4131905Y-9047476D01*
X4131905Y-9047476D02*
X4122381Y-9028429D01*
X4122381Y-9028429D02*
X4112857Y-8990333D01*
X4112857Y-8990333D02*
X4112857Y-8942714D01*
X4112857Y-8942714D02*
X4122381Y-8904619D01*
X4122381Y-8904619D02*
X4131905Y-8885571D01*
X4131905Y-8885571D02*
X4141429Y-8876048D01*
X4141429Y-8876048D02*
X4160476Y-8866524D01*
X4312857Y-9047476D02*
X4322381Y-9057000D01*
X4322381Y-9057000D02*
X4312857Y-9066524D01*
X4312857Y-9066524D02*
X4303334Y-9057000D01*
X4303334Y-9057000D02*
X4312857Y-9047476D01*
X4312857Y-9047476D02*
X4312857Y-9066524D01*
X4446191Y-8866524D02*
X4465238Y-8866524D01*
X4465238Y-8866524D02*
X4484286Y-8876048D01*
X4484286Y-8876048D02*
X4493810Y-8885571D01*
X4493810Y-8885571D02*
X4503334Y-8904619D01*
X4503334Y-8904619D02*
X4512857Y-8942714D01*
X4512857Y-8942714D02*
X4512857Y-8990333D01*
X4512857Y-8990333D02*
X4503334Y-9028429D01*
X4503334Y-9028429D02*
X4493810Y-9047476D01*
X4493810Y-9047476D02*
X4484286Y-9057000D01*
X4484286Y-9057000D02*
X4465238Y-9066524D01*
X4465238Y-9066524D02*
X4446191Y-9066524D01*
X4446191Y-9066524D02*
X4427143Y-9057000D01*
X4427143Y-9057000D02*
X4417619Y-9047476D01*
X4417619Y-9047476D02*
X4408095Y-9028429D01*
X4408095Y-9028429D02*
X4398572Y-8990333D01*
X4398572Y-8990333D02*
X4398572Y-8942714D01*
X4398572Y-8942714D02*
X4408095Y-8904619D01*
X4408095Y-8904619D02*
X4417619Y-8885571D01*
X4417619Y-8885571D02*
X4427143Y-8876048D01*
X4427143Y-8876048D02*
X4446191Y-8866524D01*
X4579524Y-8866524D02*
X4703334Y-8866524D01*
X4703334Y-8866524D02*
X4636667Y-8942714D01*
X4636667Y-8942714D02*
X4665238Y-8942714D01*
X4665238Y-8942714D02*
X4684286Y-8952238D01*
X4684286Y-8952238D02*
X4693810Y-8961762D01*
X4693810Y-8961762D02*
X4703334Y-8980810D01*
X4703334Y-8980810D02*
X4703334Y-9028429D01*
X4703334Y-9028429D02*
X4693810Y-9047476D01*
X4693810Y-9047476D02*
X4684286Y-9057000D01*
X4684286Y-9057000D02*
X4665238Y-9066524D01*
X4665238Y-9066524D02*
X4608095Y-9066524D01*
X4608095Y-9066524D02*
X4589048Y-9057000D01*
X4589048Y-9057000D02*
X4579524Y-9047476D01*
X4884286Y-8866524D02*
X4789048Y-8866524D01*
X4789048Y-8866524D02*
X4779524Y-8961762D01*
X4779524Y-8961762D02*
X4789048Y-8952238D01*
X4789048Y-8952238D02*
X4808095Y-8942714D01*
X4808095Y-8942714D02*
X4855715Y-8942714D01*
X4855715Y-8942714D02*
X4874762Y-8952238D01*
X4874762Y-8952238D02*
X4884286Y-8961762D01*
X4884286Y-8961762D02*
X4893810Y-8980810D01*
X4893810Y-8980810D02*
X4893810Y-9028429D01*
X4893810Y-9028429D02*
X4884286Y-9047476D01*
X4884286Y-9047476D02*
X4874762Y-9057000D01*
X4874762Y-9057000D02*
X4855715Y-9066524D01*
X4855715Y-9066524D02*
X4808095Y-9066524D01*
X4808095Y-9066524D02*
X4789048Y-9057000D01*
X4789048Y-9057000D02*
X4779524Y-9047476D01*
X5065238Y-8933190D02*
X5065238Y-9066524D01*
X5017619Y-8857000D02*
X4970000Y-8999857D01*
X4970000Y-8999857D02*
X5093810Y-8999857D01*
X5160476Y-8866524D02*
X5160476Y-8904619D01*
X5236667Y-8866524D02*
X5236667Y-8904619D01*
X5531905Y-9142714D02*
X5522381Y-9133190D01*
X5522381Y-9133190D02*
X5503334Y-9104619D01*
X5503334Y-9104619D02*
X5493810Y-9085571D01*
X5493810Y-9085571D02*
X5484286Y-9057000D01*
X5484286Y-9057000D02*
X5474762Y-9009381D01*
X5474762Y-9009381D02*
X5474762Y-8971286D01*
X5474762Y-8971286D02*
X5484286Y-8923667D01*
X5484286Y-8923667D02*
X5493810Y-8895095D01*
X5493810Y-8895095D02*
X5503334Y-8876048D01*
X5503334Y-8876048D02*
X5522381Y-8847476D01*
X5522381Y-8847476D02*
X5531905Y-8837952D01*
X5636667Y-8952238D02*
X5617619Y-8942714D01*
X5617619Y-8942714D02*
X5608095Y-8933190D01*
X5608095Y-8933190D02*
X5598572Y-8914143D01*
X5598572Y-8914143D02*
X5598572Y-8904619D01*
X5598572Y-8904619D02*
X5608095Y-8885571D01*
X5608095Y-8885571D02*
X5617619Y-8876048D01*
X5617619Y-8876048D02*
X5636667Y-8866524D01*
X5636667Y-8866524D02*
X5674762Y-8866524D01*
X5674762Y-8866524D02*
X5693810Y-8876048D01*
X5693810Y-8876048D02*
X5703334Y-8885571D01*
X5703334Y-8885571D02*
X5712857Y-8904619D01*
X5712857Y-8904619D02*
X5712857Y-8914143D01*
X5712857Y-8914143D02*
X5703334Y-8933190D01*
X5703334Y-8933190D02*
X5693810Y-8942714D01*
X5693810Y-8942714D02*
X5674762Y-8952238D01*
X5674762Y-8952238D02*
X5636667Y-8952238D01*
X5636667Y-8952238D02*
X5617619Y-8961762D01*
X5617619Y-8961762D02*
X5608095Y-8971286D01*
X5608095Y-8971286D02*
X5598572Y-8990333D01*
X5598572Y-8990333D02*
X5598572Y-9028429D01*
X5598572Y-9028429D02*
X5608095Y-9047476D01*
X5608095Y-9047476D02*
X5617619Y-9057000D01*
X5617619Y-9057000D02*
X5636667Y-9066524D01*
X5636667Y-9066524D02*
X5674762Y-9066524D01*
X5674762Y-9066524D02*
X5693810Y-9057000D01*
X5693810Y-9057000D02*
X5703334Y-9047476D01*
X5703334Y-9047476D02*
X5712857Y-9028429D01*
X5712857Y-9028429D02*
X5712857Y-8990333D01*
X5712857Y-8990333D02*
X5703334Y-8971286D01*
X5703334Y-8971286D02*
X5693810Y-8961762D01*
X5693810Y-8961762D02*
X5674762Y-8952238D01*
X5950953Y-9066524D02*
X5950953Y-8866524D01*
X6036667Y-9066524D02*
X6036667Y-8961762D01*
X6036667Y-8961762D02*
X6027143Y-8942714D01*
X6027143Y-8942714D02*
X6008096Y-8933190D01*
X6008096Y-8933190D02*
X5979524Y-8933190D01*
X5979524Y-8933190D02*
X5960476Y-8942714D01*
X5960476Y-8942714D02*
X5950953Y-8952238D01*
X6160476Y-9066524D02*
X6141429Y-9057000D01*
X6141429Y-9057000D02*
X6131905Y-9047476D01*
X6131905Y-9047476D02*
X6122381Y-9028429D01*
X6122381Y-9028429D02*
X6122381Y-8971286D01*
X6122381Y-8971286D02*
X6131905Y-8952238D01*
X6131905Y-8952238D02*
X6141429Y-8942714D01*
X6141429Y-8942714D02*
X6160476Y-8933190D01*
X6160476Y-8933190D02*
X6189048Y-8933190D01*
X6189048Y-8933190D02*
X6208096Y-8942714D01*
X6208096Y-8942714D02*
X6217619Y-8952238D01*
X6217619Y-8952238D02*
X6227143Y-8971286D01*
X6227143Y-8971286D02*
X6227143Y-9028429D01*
X6227143Y-9028429D02*
X6217619Y-9047476D01*
X6217619Y-9047476D02*
X6208096Y-9057000D01*
X6208096Y-9057000D02*
X6189048Y-9066524D01*
X6189048Y-9066524D02*
X6160476Y-9066524D01*
X6341429Y-9066524D02*
X6322381Y-9057000D01*
X6322381Y-9057000D02*
X6312857Y-9037952D01*
X6312857Y-9037952D02*
X6312857Y-8866524D01*
X6493810Y-9057000D02*
X6474762Y-9066524D01*
X6474762Y-9066524D02*
X6436667Y-9066524D01*
X6436667Y-9066524D02*
X6417619Y-9057000D01*
X6417619Y-9057000D02*
X6408096Y-9037952D01*
X6408096Y-9037952D02*
X6408096Y-8961762D01*
X6408096Y-8961762D02*
X6417619Y-8942714D01*
X6417619Y-8942714D02*
X6436667Y-8933190D01*
X6436667Y-8933190D02*
X6474762Y-8933190D01*
X6474762Y-8933190D02*
X6493810Y-8942714D01*
X6493810Y-8942714D02*
X6503334Y-8961762D01*
X6503334Y-8961762D02*
X6503334Y-8980810D01*
X6503334Y-8980810D02*
X6408096Y-8999857D01*
X6579524Y-9057000D02*
X6598572Y-9066524D01*
X6598572Y-9066524D02*
X6636667Y-9066524D01*
X6636667Y-9066524D02*
X6655715Y-9057000D01*
X6655715Y-9057000D02*
X6665238Y-9037952D01*
X6665238Y-9037952D02*
X6665238Y-9028429D01*
X6665238Y-9028429D02*
X6655715Y-9009381D01*
X6655715Y-9009381D02*
X6636667Y-8999857D01*
X6636667Y-8999857D02*
X6608096Y-8999857D01*
X6608096Y-8999857D02*
X6589048Y-8990333D01*
X6589048Y-8990333D02*
X6579524Y-8971286D01*
X6579524Y-8971286D02*
X6579524Y-8961762D01*
X6579524Y-8961762D02*
X6589048Y-8942714D01*
X6589048Y-8942714D02*
X6608096Y-8933190D01*
X6608096Y-8933190D02*
X6636667Y-8933190D01*
X6636667Y-8933190D02*
X6655715Y-8942714D01*
X6731905Y-9142714D02*
X6741429Y-9133190D01*
X6741429Y-9133190D02*
X6760477Y-9104619D01*
X6760477Y-9104619D02*
X6770000Y-9085571D01*
X6770000Y-9085571D02*
X6779524Y-9057000D01*
X6779524Y-9057000D02*
X6789048Y-9009381D01*
X6789048Y-9009381D02*
X6789048Y-8971286D01*
X6789048Y-8971286D02*
X6779524Y-8923667D01*
X6779524Y-8923667D02*
X6770000Y-8895095D01*
X6770000Y-8895095D02*
X6760477Y-8876048D01*
X6760477Y-8876048D02*
X6741429Y-8847476D01*
X6741429Y-8847476D02*
X6731905Y-8837952D01*
D13*
X1922500Y-9190500D02*
X1922500Y-9285500D01*
X1875000Y-9238000D02*
X1970000Y-9238000D01*
D10*
X2255714Y-9130524D02*
X2274762Y-9130524D01*
X2274762Y-9130524D02*
X2293810Y-9140048D01*
X2293810Y-9140048D02*
X2303333Y-9149571D01*
X2303333Y-9149571D02*
X2312857Y-9168619D01*
X2312857Y-9168619D02*
X2322381Y-9206714D01*
X2322381Y-9206714D02*
X2322381Y-9254333D01*
X2322381Y-9254333D02*
X2312857Y-9292429D01*
X2312857Y-9292429D02*
X2303333Y-9311476D01*
X2303333Y-9311476D02*
X2293810Y-9321000D01*
X2293810Y-9321000D02*
X2274762Y-9330524D01*
X2274762Y-9330524D02*
X2255714Y-9330524D01*
X2255714Y-9330524D02*
X2236667Y-9321000D01*
X2236667Y-9321000D02*
X2227143Y-9311476D01*
X2227143Y-9311476D02*
X2217619Y-9292429D01*
X2217619Y-9292429D02*
X2208095Y-9254333D01*
X2208095Y-9254333D02*
X2208095Y-9206714D01*
X2208095Y-9206714D02*
X2217619Y-9168619D01*
X2217619Y-9168619D02*
X2227143Y-9149571D01*
X2227143Y-9149571D02*
X2236667Y-9140048D01*
X2236667Y-9140048D02*
X2255714Y-9130524D01*
X2408095Y-9311476D02*
X2417619Y-9321000D01*
X2417619Y-9321000D02*
X2408095Y-9330524D01*
X2408095Y-9330524D02*
X2398571Y-9321000D01*
X2398571Y-9321000D02*
X2408095Y-9311476D01*
X2408095Y-9311476D02*
X2408095Y-9330524D01*
X2512857Y-9330524D02*
X2550952Y-9330524D01*
X2550952Y-9330524D02*
X2570000Y-9321000D01*
X2570000Y-9321000D02*
X2579524Y-9311476D01*
X2579524Y-9311476D02*
X2598571Y-9282905D01*
X2598571Y-9282905D02*
X2608095Y-9244810D01*
X2608095Y-9244810D02*
X2608095Y-9168619D01*
X2608095Y-9168619D02*
X2598571Y-9149571D01*
X2598571Y-9149571D02*
X2589048Y-9140048D01*
X2589048Y-9140048D02*
X2570000Y-9130524D01*
X2570000Y-9130524D02*
X2531905Y-9130524D01*
X2531905Y-9130524D02*
X2512857Y-9140048D01*
X2512857Y-9140048D02*
X2503333Y-9149571D01*
X2503333Y-9149571D02*
X2493810Y-9168619D01*
X2493810Y-9168619D02*
X2493810Y-9216238D01*
X2493810Y-9216238D02*
X2503333Y-9235286D01*
X2503333Y-9235286D02*
X2512857Y-9244810D01*
X2512857Y-9244810D02*
X2531905Y-9254333D01*
X2531905Y-9254333D02*
X2570000Y-9254333D01*
X2570000Y-9254333D02*
X2589048Y-9244810D01*
X2589048Y-9244810D02*
X2598571Y-9235286D01*
X2598571Y-9235286D02*
X2608095Y-9216238D01*
X2789048Y-9130524D02*
X2693810Y-9130524D01*
X2693810Y-9130524D02*
X2684286Y-9225762D01*
X2684286Y-9225762D02*
X2693810Y-9216238D01*
X2693810Y-9216238D02*
X2712857Y-9206714D01*
X2712857Y-9206714D02*
X2760476Y-9206714D01*
X2760476Y-9206714D02*
X2779524Y-9216238D01*
X2779524Y-9216238D02*
X2789048Y-9225762D01*
X2789048Y-9225762D02*
X2798571Y-9244810D01*
X2798571Y-9244810D02*
X2798571Y-9292429D01*
X2798571Y-9292429D02*
X2789048Y-9311476D01*
X2789048Y-9311476D02*
X2779524Y-9321000D01*
X2779524Y-9321000D02*
X2760476Y-9330524D01*
X2760476Y-9330524D02*
X2712857Y-9330524D01*
X2712857Y-9330524D02*
X2693810Y-9321000D01*
X2693810Y-9321000D02*
X2684286Y-9311476D01*
X2922381Y-9130524D02*
X2941429Y-9130524D01*
X2941429Y-9130524D02*
X2960476Y-9140048D01*
X2960476Y-9140048D02*
X2970000Y-9149571D01*
X2970000Y-9149571D02*
X2979524Y-9168619D01*
X2979524Y-9168619D02*
X2989048Y-9206714D01*
X2989048Y-9206714D02*
X2989048Y-9254333D01*
X2989048Y-9254333D02*
X2979524Y-9292429D01*
X2979524Y-9292429D02*
X2970000Y-9311476D01*
X2970000Y-9311476D02*
X2960476Y-9321000D01*
X2960476Y-9321000D02*
X2941429Y-9330524D01*
X2941429Y-9330524D02*
X2922381Y-9330524D01*
X2922381Y-9330524D02*
X2903333Y-9321000D01*
X2903333Y-9321000D02*
X2893809Y-9311476D01*
X2893809Y-9311476D02*
X2884286Y-9292429D01*
X2884286Y-9292429D02*
X2874762Y-9254333D01*
X2874762Y-9254333D02*
X2874762Y-9206714D01*
X2874762Y-9206714D02*
X2884286Y-9168619D01*
X2884286Y-9168619D02*
X2893809Y-9149571D01*
X2893809Y-9149571D02*
X2903333Y-9140048D01*
X2903333Y-9140048D02*
X2922381Y-9130524D01*
X3074762Y-9330524D02*
X3074762Y-9197190D01*
X3074762Y-9216238D02*
X3084286Y-9206714D01*
X3084286Y-9206714D02*
X3103333Y-9197190D01*
X3103333Y-9197190D02*
X3131905Y-9197190D01*
X3131905Y-9197190D02*
X3150952Y-9206714D01*
X3150952Y-9206714D02*
X3160476Y-9225762D01*
X3160476Y-9225762D02*
X3160476Y-9330524D01*
X3160476Y-9225762D02*
X3170000Y-9206714D01*
X3170000Y-9206714D02*
X3189048Y-9197190D01*
X3189048Y-9197190D02*
X3217619Y-9197190D01*
X3217619Y-9197190D02*
X3236667Y-9206714D01*
X3236667Y-9206714D02*
X3246190Y-9225762D01*
X3246190Y-9225762D02*
X3246190Y-9330524D01*
X3341429Y-9330524D02*
X3341429Y-9197190D01*
X3341429Y-9216238D02*
X3350952Y-9206714D01*
X3350952Y-9206714D02*
X3370000Y-9197190D01*
X3370000Y-9197190D02*
X3398571Y-9197190D01*
X3398571Y-9197190D02*
X3417619Y-9206714D01*
X3417619Y-9206714D02*
X3427143Y-9225762D01*
X3427143Y-9225762D02*
X3427143Y-9330524D01*
X3427143Y-9225762D02*
X3436667Y-9206714D01*
X3436667Y-9206714D02*
X3455714Y-9197190D01*
X3455714Y-9197190D02*
X3484286Y-9197190D01*
X3484286Y-9197190D02*
X3503333Y-9206714D01*
X3503333Y-9206714D02*
X3512857Y-9225762D01*
X3512857Y-9225762D02*
X3512857Y-9330524D01*
X3903333Y-9121000D02*
X3731905Y-9378143D01*
X4160476Y-9130524D02*
X4179524Y-9130524D01*
X4179524Y-9130524D02*
X4198572Y-9140048D01*
X4198572Y-9140048D02*
X4208095Y-9149571D01*
X4208095Y-9149571D02*
X4217619Y-9168619D01*
X4217619Y-9168619D02*
X4227143Y-9206714D01*
X4227143Y-9206714D02*
X4227143Y-9254333D01*
X4227143Y-9254333D02*
X4217619Y-9292429D01*
X4217619Y-9292429D02*
X4208095Y-9311476D01*
X4208095Y-9311476D02*
X4198572Y-9321000D01*
X4198572Y-9321000D02*
X4179524Y-9330524D01*
X4179524Y-9330524D02*
X4160476Y-9330524D01*
X4160476Y-9330524D02*
X4141429Y-9321000D01*
X4141429Y-9321000D02*
X4131905Y-9311476D01*
X4131905Y-9311476D02*
X4122381Y-9292429D01*
X4122381Y-9292429D02*
X4112857Y-9254333D01*
X4112857Y-9254333D02*
X4112857Y-9206714D01*
X4112857Y-9206714D02*
X4122381Y-9168619D01*
X4122381Y-9168619D02*
X4131905Y-9149571D01*
X4131905Y-9149571D02*
X4141429Y-9140048D01*
X4141429Y-9140048D02*
X4160476Y-9130524D01*
X4312857Y-9311476D02*
X4322381Y-9321000D01*
X4322381Y-9321000D02*
X4312857Y-9330524D01*
X4312857Y-9330524D02*
X4303334Y-9321000D01*
X4303334Y-9321000D02*
X4312857Y-9311476D01*
X4312857Y-9311476D02*
X4312857Y-9330524D01*
X4446191Y-9130524D02*
X4465238Y-9130524D01*
X4465238Y-9130524D02*
X4484286Y-9140048D01*
X4484286Y-9140048D02*
X4493810Y-9149571D01*
X4493810Y-9149571D02*
X4503334Y-9168619D01*
X4503334Y-9168619D02*
X4512857Y-9206714D01*
X4512857Y-9206714D02*
X4512857Y-9254333D01*
X4512857Y-9254333D02*
X4503334Y-9292429D01*
X4503334Y-9292429D02*
X4493810Y-9311476D01*
X4493810Y-9311476D02*
X4484286Y-9321000D01*
X4484286Y-9321000D02*
X4465238Y-9330524D01*
X4465238Y-9330524D02*
X4446191Y-9330524D01*
X4446191Y-9330524D02*
X4427143Y-9321000D01*
X4427143Y-9321000D02*
X4417619Y-9311476D01*
X4417619Y-9311476D02*
X4408095Y-9292429D01*
X4408095Y-9292429D02*
X4398572Y-9254333D01*
X4398572Y-9254333D02*
X4398572Y-9206714D01*
X4398572Y-9206714D02*
X4408095Y-9168619D01*
X4408095Y-9168619D02*
X4417619Y-9149571D01*
X4417619Y-9149571D02*
X4427143Y-9140048D01*
X4427143Y-9140048D02*
X4446191Y-9130524D01*
X4579524Y-9130524D02*
X4703334Y-9130524D01*
X4703334Y-9130524D02*
X4636667Y-9206714D01*
X4636667Y-9206714D02*
X4665238Y-9206714D01*
X4665238Y-9206714D02*
X4684286Y-9216238D01*
X4684286Y-9216238D02*
X4693810Y-9225762D01*
X4693810Y-9225762D02*
X4703334Y-9244810D01*
X4703334Y-9244810D02*
X4703334Y-9292429D01*
X4703334Y-9292429D02*
X4693810Y-9311476D01*
X4693810Y-9311476D02*
X4684286Y-9321000D01*
X4684286Y-9321000D02*
X4665238Y-9330524D01*
X4665238Y-9330524D02*
X4608095Y-9330524D01*
X4608095Y-9330524D02*
X4589048Y-9321000D01*
X4589048Y-9321000D02*
X4579524Y-9311476D01*
X4770000Y-9130524D02*
X4903334Y-9130524D01*
X4903334Y-9130524D02*
X4817619Y-9330524D01*
X5065238Y-9197190D02*
X5065238Y-9330524D01*
X5017619Y-9121000D02*
X4970000Y-9263857D01*
X4970000Y-9263857D02*
X5093810Y-9263857D01*
X5160476Y-9130524D02*
X5160476Y-9168619D01*
X5236667Y-9130524D02*
X5236667Y-9168619D01*
X5531905Y-9406714D02*
X5522381Y-9397190D01*
X5522381Y-9397190D02*
X5503334Y-9368619D01*
X5503334Y-9368619D02*
X5493810Y-9349571D01*
X5493810Y-9349571D02*
X5484286Y-9321000D01*
X5484286Y-9321000D02*
X5474762Y-9273381D01*
X5474762Y-9273381D02*
X5474762Y-9235286D01*
X5474762Y-9235286D02*
X5484286Y-9187667D01*
X5484286Y-9187667D02*
X5493810Y-9159095D01*
X5493810Y-9159095D02*
X5503334Y-9140048D01*
X5503334Y-9140048D02*
X5522381Y-9111476D01*
X5522381Y-9111476D02*
X5531905Y-9101952D01*
X5636667Y-9216238D02*
X5617619Y-9206714D01*
X5617619Y-9206714D02*
X5608095Y-9197190D01*
X5608095Y-9197190D02*
X5598572Y-9178143D01*
X5598572Y-9178143D02*
X5598572Y-9168619D01*
X5598572Y-9168619D02*
X5608095Y-9149571D01*
X5608095Y-9149571D02*
X5617619Y-9140048D01*
X5617619Y-9140048D02*
X5636667Y-9130524D01*
X5636667Y-9130524D02*
X5674762Y-9130524D01*
X5674762Y-9130524D02*
X5693810Y-9140048D01*
X5693810Y-9140048D02*
X5703334Y-9149571D01*
X5703334Y-9149571D02*
X5712857Y-9168619D01*
X5712857Y-9168619D02*
X5712857Y-9178143D01*
X5712857Y-9178143D02*
X5703334Y-9197190D01*
X5703334Y-9197190D02*
X5693810Y-9206714D01*
X5693810Y-9206714D02*
X5674762Y-9216238D01*
X5674762Y-9216238D02*
X5636667Y-9216238D01*
X5636667Y-9216238D02*
X5617619Y-9225762D01*
X5617619Y-9225762D02*
X5608095Y-9235286D01*
X5608095Y-9235286D02*
X5598572Y-9254333D01*
X5598572Y-9254333D02*
X5598572Y-9292429D01*
X5598572Y-9292429D02*
X5608095Y-9311476D01*
X5608095Y-9311476D02*
X5617619Y-9321000D01*
X5617619Y-9321000D02*
X5636667Y-9330524D01*
X5636667Y-9330524D02*
X5674762Y-9330524D01*
X5674762Y-9330524D02*
X5693810Y-9321000D01*
X5693810Y-9321000D02*
X5703334Y-9311476D01*
X5703334Y-9311476D02*
X5712857Y-9292429D01*
X5712857Y-9292429D02*
X5712857Y-9254333D01*
X5712857Y-9254333D02*
X5703334Y-9235286D01*
X5703334Y-9235286D02*
X5693810Y-9225762D01*
X5693810Y-9225762D02*
X5674762Y-9216238D01*
X5950953Y-9330524D02*
X5950953Y-9130524D01*
X6036667Y-9330524D02*
X6036667Y-9225762D01*
X6036667Y-9225762D02*
X6027143Y-9206714D01*
X6027143Y-9206714D02*
X6008096Y-9197190D01*
X6008096Y-9197190D02*
X5979524Y-9197190D01*
X5979524Y-9197190D02*
X5960476Y-9206714D01*
X5960476Y-9206714D02*
X5950953Y-9216238D01*
X6160476Y-9330524D02*
X6141429Y-9321000D01*
X6141429Y-9321000D02*
X6131905Y-9311476D01*
X6131905Y-9311476D02*
X6122381Y-9292429D01*
X6122381Y-9292429D02*
X6122381Y-9235286D01*
X6122381Y-9235286D02*
X6131905Y-9216238D01*
X6131905Y-9216238D02*
X6141429Y-9206714D01*
X6141429Y-9206714D02*
X6160476Y-9197190D01*
X6160476Y-9197190D02*
X6189048Y-9197190D01*
X6189048Y-9197190D02*
X6208096Y-9206714D01*
X6208096Y-9206714D02*
X6217619Y-9216238D01*
X6217619Y-9216238D02*
X6227143Y-9235286D01*
X6227143Y-9235286D02*
X6227143Y-9292429D01*
X6227143Y-9292429D02*
X6217619Y-9311476D01*
X6217619Y-9311476D02*
X6208096Y-9321000D01*
X6208096Y-9321000D02*
X6189048Y-9330524D01*
X6189048Y-9330524D02*
X6160476Y-9330524D01*
X6341429Y-9330524D02*
X6322381Y-9321000D01*
X6322381Y-9321000D02*
X6312857Y-9301952D01*
X6312857Y-9301952D02*
X6312857Y-9130524D01*
X6493810Y-9321000D02*
X6474762Y-9330524D01*
X6474762Y-9330524D02*
X6436667Y-9330524D01*
X6436667Y-9330524D02*
X6417619Y-9321000D01*
X6417619Y-9321000D02*
X6408096Y-9301952D01*
X6408096Y-9301952D02*
X6408096Y-9225762D01*
X6408096Y-9225762D02*
X6417619Y-9206714D01*
X6417619Y-9206714D02*
X6436667Y-9197190D01*
X6436667Y-9197190D02*
X6474762Y-9197190D01*
X6474762Y-9197190D02*
X6493810Y-9206714D01*
X6493810Y-9206714D02*
X6503334Y-9225762D01*
X6503334Y-9225762D02*
X6503334Y-9244810D01*
X6503334Y-9244810D02*
X6408096Y-9263857D01*
X6579524Y-9321000D02*
X6598572Y-9330524D01*
X6598572Y-9330524D02*
X6636667Y-9330524D01*
X6636667Y-9330524D02*
X6655715Y-9321000D01*
X6655715Y-9321000D02*
X6665238Y-9301952D01*
X6665238Y-9301952D02*
X6665238Y-9292429D01*
X6665238Y-9292429D02*
X6655715Y-9273381D01*
X6655715Y-9273381D02*
X6636667Y-9263857D01*
X6636667Y-9263857D02*
X6608096Y-9263857D01*
X6608096Y-9263857D02*
X6589048Y-9254333D01*
X6589048Y-9254333D02*
X6579524Y-9235286D01*
X6579524Y-9235286D02*
X6579524Y-9225762D01*
X6579524Y-9225762D02*
X6589048Y-9206714D01*
X6589048Y-9206714D02*
X6608096Y-9197190D01*
X6608096Y-9197190D02*
X6636667Y-9197190D01*
X6636667Y-9197190D02*
X6655715Y-9206714D01*
X6731905Y-9406714D02*
X6741429Y-9397190D01*
X6741429Y-9397190D02*
X6760477Y-9368619D01*
X6760477Y-9368619D02*
X6770000Y-9349571D01*
X6770000Y-9349571D02*
X6779524Y-9321000D01*
X6779524Y-9321000D02*
X6789048Y-9273381D01*
X6789048Y-9273381D02*
X6789048Y-9235286D01*
X6789048Y-9235286D02*
X6779524Y-9187667D01*
X6779524Y-9187667D02*
X6770000Y-9159095D01*
X6770000Y-9159095D02*
X6760477Y-9140048D01*
X6760477Y-9140048D02*
X6741429Y-9111476D01*
X6741429Y-9111476D02*
X6731905Y-9101952D01*
D14*
X1955356Y-9537356D02*
X1955356Y-9466644D01*
X1884644Y-9466644D01*
X1884644Y-9537356D01*
X1955356Y-9537356D01*
D10*
X2322381Y-9594524D02*
X2208095Y-9594524D01*
X2265238Y-9594524D02*
X2265238Y-9394524D01*
X2265238Y-9394524D02*
X2246190Y-9423095D01*
X2246190Y-9423095D02*
X2227143Y-9442143D01*
X2227143Y-9442143D02*
X2208095Y-9451667D01*
X2408095Y-9575476D02*
X2417619Y-9585000D01*
X2417619Y-9585000D02*
X2408095Y-9594524D01*
X2408095Y-9594524D02*
X2398571Y-9585000D01*
X2398571Y-9585000D02*
X2408095Y-9575476D01*
X2408095Y-9575476D02*
X2408095Y-9594524D01*
X2541429Y-9394524D02*
X2560476Y-9394524D01*
X2560476Y-9394524D02*
X2579524Y-9404048D01*
X2579524Y-9404048D02*
X2589048Y-9413571D01*
X2589048Y-9413571D02*
X2598571Y-9432619D01*
X2598571Y-9432619D02*
X2608095Y-9470714D01*
X2608095Y-9470714D02*
X2608095Y-9518333D01*
X2608095Y-9518333D02*
X2598571Y-9556429D01*
X2598571Y-9556429D02*
X2589048Y-9575476D01*
X2589048Y-9575476D02*
X2579524Y-9585000D01*
X2579524Y-9585000D02*
X2560476Y-9594524D01*
X2560476Y-9594524D02*
X2541429Y-9594524D01*
X2541429Y-9594524D02*
X2522381Y-9585000D01*
X2522381Y-9585000D02*
X2512857Y-9575476D01*
X2512857Y-9575476D02*
X2503333Y-9556429D01*
X2503333Y-9556429D02*
X2493810Y-9518333D01*
X2493810Y-9518333D02*
X2493810Y-9470714D01*
X2493810Y-9470714D02*
X2503333Y-9432619D01*
X2503333Y-9432619D02*
X2512857Y-9413571D01*
X2512857Y-9413571D02*
X2522381Y-9404048D01*
X2522381Y-9404048D02*
X2541429Y-9394524D01*
X2731905Y-9394524D02*
X2750952Y-9394524D01*
X2750952Y-9394524D02*
X2770000Y-9404048D01*
X2770000Y-9404048D02*
X2779524Y-9413571D01*
X2779524Y-9413571D02*
X2789048Y-9432619D01*
X2789048Y-9432619D02*
X2798571Y-9470714D01*
X2798571Y-9470714D02*
X2798571Y-9518333D01*
X2798571Y-9518333D02*
X2789048Y-9556429D01*
X2789048Y-9556429D02*
X2779524Y-9575476D01*
X2779524Y-9575476D02*
X2770000Y-9585000D01*
X2770000Y-9585000D02*
X2750952Y-9594524D01*
X2750952Y-9594524D02*
X2731905Y-9594524D01*
X2731905Y-9594524D02*
X2712857Y-9585000D01*
X2712857Y-9585000D02*
X2703333Y-9575476D01*
X2703333Y-9575476D02*
X2693810Y-9556429D01*
X2693810Y-9556429D02*
X2684286Y-9518333D01*
X2684286Y-9518333D02*
X2684286Y-9470714D01*
X2684286Y-9470714D02*
X2693810Y-9432619D01*
X2693810Y-9432619D02*
X2703333Y-9413571D01*
X2703333Y-9413571D02*
X2712857Y-9404048D01*
X2712857Y-9404048D02*
X2731905Y-9394524D01*
X2922381Y-9394524D02*
X2941429Y-9394524D01*
X2941429Y-9394524D02*
X2960476Y-9404048D01*
X2960476Y-9404048D02*
X2970000Y-9413571D01*
X2970000Y-9413571D02*
X2979524Y-9432619D01*
X2979524Y-9432619D02*
X2989048Y-9470714D01*
X2989048Y-9470714D02*
X2989048Y-9518333D01*
X2989048Y-9518333D02*
X2979524Y-9556429D01*
X2979524Y-9556429D02*
X2970000Y-9575476D01*
X2970000Y-9575476D02*
X2960476Y-9585000D01*
X2960476Y-9585000D02*
X2941429Y-9594524D01*
X2941429Y-9594524D02*
X2922381Y-9594524D01*
X2922381Y-9594524D02*
X2903333Y-9585000D01*
X2903333Y-9585000D02*
X2893809Y-9575476D01*
X2893809Y-9575476D02*
X2884286Y-9556429D01*
X2884286Y-9556429D02*
X2874762Y-9518333D01*
X2874762Y-9518333D02*
X2874762Y-9470714D01*
X2874762Y-9470714D02*
X2884286Y-9432619D01*
X2884286Y-9432619D02*
X2893809Y-9413571D01*
X2893809Y-9413571D02*
X2903333Y-9404048D01*
X2903333Y-9404048D02*
X2922381Y-9394524D01*
X3074762Y-9594524D02*
X3074762Y-9461190D01*
X3074762Y-9480238D02*
X3084286Y-9470714D01*
X3084286Y-9470714D02*
X3103333Y-9461190D01*
X3103333Y-9461190D02*
X3131905Y-9461190D01*
X3131905Y-9461190D02*
X3150952Y-9470714D01*
X3150952Y-9470714D02*
X3160476Y-9489762D01*
X3160476Y-9489762D02*
X3160476Y-9594524D01*
X3160476Y-9489762D02*
X3170000Y-9470714D01*
X3170000Y-9470714D02*
X3189048Y-9461190D01*
X3189048Y-9461190D02*
X3217619Y-9461190D01*
X3217619Y-9461190D02*
X3236667Y-9470714D01*
X3236667Y-9470714D02*
X3246190Y-9489762D01*
X3246190Y-9489762D02*
X3246190Y-9594524D01*
X3341429Y-9594524D02*
X3341429Y-9461190D01*
X3341429Y-9480238D02*
X3350952Y-9470714D01*
X3350952Y-9470714D02*
X3370000Y-9461190D01*
X3370000Y-9461190D02*
X3398571Y-9461190D01*
X3398571Y-9461190D02*
X3417619Y-9470714D01*
X3417619Y-9470714D02*
X3427143Y-9489762D01*
X3427143Y-9489762D02*
X3427143Y-9594524D01*
X3427143Y-9489762D02*
X3436667Y-9470714D01*
X3436667Y-9470714D02*
X3455714Y-9461190D01*
X3455714Y-9461190D02*
X3484286Y-9461190D01*
X3484286Y-9461190D02*
X3503333Y-9470714D01*
X3503333Y-9470714D02*
X3512857Y-9489762D01*
X3512857Y-9489762D02*
X3512857Y-9594524D01*
X3903333Y-9385000D02*
X3731905Y-9642143D01*
X4160476Y-9394524D02*
X4179524Y-9394524D01*
X4179524Y-9394524D02*
X4198572Y-9404048D01*
X4198572Y-9404048D02*
X4208095Y-9413571D01*
X4208095Y-9413571D02*
X4217619Y-9432619D01*
X4217619Y-9432619D02*
X4227143Y-9470714D01*
X4227143Y-9470714D02*
X4227143Y-9518333D01*
X4227143Y-9518333D02*
X4217619Y-9556429D01*
X4217619Y-9556429D02*
X4208095Y-9575476D01*
X4208095Y-9575476D02*
X4198572Y-9585000D01*
X4198572Y-9585000D02*
X4179524Y-9594524D01*
X4179524Y-9594524D02*
X4160476Y-9594524D01*
X4160476Y-9594524D02*
X4141429Y-9585000D01*
X4141429Y-9585000D02*
X4131905Y-9575476D01*
X4131905Y-9575476D02*
X4122381Y-9556429D01*
X4122381Y-9556429D02*
X4112857Y-9518333D01*
X4112857Y-9518333D02*
X4112857Y-9470714D01*
X4112857Y-9470714D02*
X4122381Y-9432619D01*
X4122381Y-9432619D02*
X4131905Y-9413571D01*
X4131905Y-9413571D02*
X4141429Y-9404048D01*
X4141429Y-9404048D02*
X4160476Y-9394524D01*
X4312857Y-9575476D02*
X4322381Y-9585000D01*
X4322381Y-9585000D02*
X4312857Y-9594524D01*
X4312857Y-9594524D02*
X4303334Y-9585000D01*
X4303334Y-9585000D02*
X4312857Y-9575476D01*
X4312857Y-9575476D02*
X4312857Y-9594524D01*
X4446191Y-9394524D02*
X4465238Y-9394524D01*
X4465238Y-9394524D02*
X4484286Y-9404048D01*
X4484286Y-9404048D02*
X4493810Y-9413571D01*
X4493810Y-9413571D02*
X4503334Y-9432619D01*
X4503334Y-9432619D02*
X4512857Y-9470714D01*
X4512857Y-9470714D02*
X4512857Y-9518333D01*
X4512857Y-9518333D02*
X4503334Y-9556429D01*
X4503334Y-9556429D02*
X4493810Y-9575476D01*
X4493810Y-9575476D02*
X4484286Y-9585000D01*
X4484286Y-9585000D02*
X4465238Y-9594524D01*
X4465238Y-9594524D02*
X4446191Y-9594524D01*
X4446191Y-9594524D02*
X4427143Y-9585000D01*
X4427143Y-9585000D02*
X4417619Y-9575476D01*
X4417619Y-9575476D02*
X4408095Y-9556429D01*
X4408095Y-9556429D02*
X4398572Y-9518333D01*
X4398572Y-9518333D02*
X4398572Y-9470714D01*
X4398572Y-9470714D02*
X4408095Y-9432619D01*
X4408095Y-9432619D02*
X4417619Y-9413571D01*
X4417619Y-9413571D02*
X4427143Y-9404048D01*
X4427143Y-9404048D02*
X4446191Y-9394524D01*
X4579524Y-9394524D02*
X4703334Y-9394524D01*
X4703334Y-9394524D02*
X4636667Y-9470714D01*
X4636667Y-9470714D02*
X4665238Y-9470714D01*
X4665238Y-9470714D02*
X4684286Y-9480238D01*
X4684286Y-9480238D02*
X4693810Y-9489762D01*
X4693810Y-9489762D02*
X4703334Y-9508810D01*
X4703334Y-9508810D02*
X4703334Y-9556429D01*
X4703334Y-9556429D02*
X4693810Y-9575476D01*
X4693810Y-9575476D02*
X4684286Y-9585000D01*
X4684286Y-9585000D02*
X4665238Y-9594524D01*
X4665238Y-9594524D02*
X4608095Y-9594524D01*
X4608095Y-9594524D02*
X4589048Y-9585000D01*
X4589048Y-9585000D02*
X4579524Y-9575476D01*
X4798572Y-9594524D02*
X4836667Y-9594524D01*
X4836667Y-9594524D02*
X4855715Y-9585000D01*
X4855715Y-9585000D02*
X4865238Y-9575476D01*
X4865238Y-9575476D02*
X4884286Y-9546905D01*
X4884286Y-9546905D02*
X4893810Y-9508810D01*
X4893810Y-9508810D02*
X4893810Y-9432619D01*
X4893810Y-9432619D02*
X4884286Y-9413571D01*
X4884286Y-9413571D02*
X4874762Y-9404048D01*
X4874762Y-9404048D02*
X4855715Y-9394524D01*
X4855715Y-9394524D02*
X4817619Y-9394524D01*
X4817619Y-9394524D02*
X4798572Y-9404048D01*
X4798572Y-9404048D02*
X4789048Y-9413571D01*
X4789048Y-9413571D02*
X4779524Y-9432619D01*
X4779524Y-9432619D02*
X4779524Y-9480238D01*
X4779524Y-9480238D02*
X4789048Y-9499286D01*
X4789048Y-9499286D02*
X4798572Y-9508810D01*
X4798572Y-9508810D02*
X4817619Y-9518333D01*
X4817619Y-9518333D02*
X4855715Y-9518333D01*
X4855715Y-9518333D02*
X4874762Y-9508810D01*
X4874762Y-9508810D02*
X4884286Y-9499286D01*
X4884286Y-9499286D02*
X4893810Y-9480238D01*
X5065238Y-9461190D02*
X5065238Y-9594524D01*
X5017619Y-9385000D02*
X4970000Y-9527857D01*
X4970000Y-9527857D02*
X5093810Y-9527857D01*
X5160476Y-9394524D02*
X5160476Y-9432619D01*
X5236667Y-9394524D02*
X5236667Y-9432619D01*
X5531905Y-9670714D02*
X5522381Y-9661190D01*
X5522381Y-9661190D02*
X5503334Y-9632619D01*
X5503334Y-9632619D02*
X5493810Y-9613571D01*
X5493810Y-9613571D02*
X5484286Y-9585000D01*
X5484286Y-9585000D02*
X5474762Y-9537381D01*
X5474762Y-9537381D02*
X5474762Y-9499286D01*
X5474762Y-9499286D02*
X5484286Y-9451667D01*
X5484286Y-9451667D02*
X5493810Y-9423095D01*
X5493810Y-9423095D02*
X5503334Y-9404048D01*
X5503334Y-9404048D02*
X5522381Y-9375476D01*
X5522381Y-9375476D02*
X5531905Y-9365952D01*
X5712857Y-9594524D02*
X5598572Y-9594524D01*
X5655714Y-9594524D02*
X5655714Y-9394524D01*
X5655714Y-9394524D02*
X5636667Y-9423095D01*
X5636667Y-9423095D02*
X5617619Y-9442143D01*
X5617619Y-9442143D02*
X5598572Y-9451667D01*
X5884286Y-9461190D02*
X5884286Y-9594524D01*
X5836667Y-9385000D02*
X5789048Y-9527857D01*
X5789048Y-9527857D02*
X5912857Y-9527857D01*
X6141429Y-9594524D02*
X6141429Y-9394524D01*
X6227143Y-9594524D02*
X6227143Y-9489762D01*
X6227143Y-9489762D02*
X6217619Y-9470714D01*
X6217619Y-9470714D02*
X6198572Y-9461190D01*
X6198572Y-9461190D02*
X6170000Y-9461190D01*
X6170000Y-9461190D02*
X6150953Y-9470714D01*
X6150953Y-9470714D02*
X6141429Y-9480238D01*
X6350953Y-9594524D02*
X6331905Y-9585000D01*
X6331905Y-9585000D02*
X6322381Y-9575476D01*
X6322381Y-9575476D02*
X6312857Y-9556429D01*
X6312857Y-9556429D02*
X6312857Y-9499286D01*
X6312857Y-9499286D02*
X6322381Y-9480238D01*
X6322381Y-9480238D02*
X6331905Y-9470714D01*
X6331905Y-9470714D02*
X6350953Y-9461190D01*
X6350953Y-9461190D02*
X6379524Y-9461190D01*
X6379524Y-9461190D02*
X6398572Y-9470714D01*
X6398572Y-9470714D02*
X6408096Y-9480238D01*
X6408096Y-9480238D02*
X6417619Y-9499286D01*
X6417619Y-9499286D02*
X6417619Y-9556429D01*
X6417619Y-9556429D02*
X6408096Y-9575476D01*
X6408096Y-9575476D02*
X6398572Y-9585000D01*
X6398572Y-9585000D02*
X6379524Y-9594524D01*
X6379524Y-9594524D02*
X6350953Y-9594524D01*
X6531905Y-9594524D02*
X6512857Y-9585000D01*
X6512857Y-9585000D02*
X6503334Y-9565952D01*
X6503334Y-9565952D02*
X6503334Y-9394524D01*
X6684286Y-9585000D02*
X6665238Y-9594524D01*
X6665238Y-9594524D02*
X6627143Y-9594524D01*
X6627143Y-9594524D02*
X6608096Y-9585000D01*
X6608096Y-9585000D02*
X6598572Y-9565952D01*
X6598572Y-9565952D02*
X6598572Y-9489762D01*
X6598572Y-9489762D02*
X6608096Y-9470714D01*
X6608096Y-9470714D02*
X6627143Y-9461190D01*
X6627143Y-9461190D02*
X6665238Y-9461190D01*
X6665238Y-9461190D02*
X6684286Y-9470714D01*
X6684286Y-9470714D02*
X6693810Y-9489762D01*
X6693810Y-9489762D02*
X6693810Y-9508810D01*
X6693810Y-9508810D02*
X6598572Y-9527857D01*
X6770000Y-9585000D02*
X6789048Y-9594524D01*
X6789048Y-9594524D02*
X6827143Y-9594524D01*
X6827143Y-9594524D02*
X6846191Y-9585000D01*
X6846191Y-9585000D02*
X6855715Y-9565952D01*
X6855715Y-9565952D02*
X6855715Y-9556429D01*
X6855715Y-9556429D02*
X6846191Y-9537381D01*
X6846191Y-9537381D02*
X6827143Y-9527857D01*
X6827143Y-9527857D02*
X6798572Y-9527857D01*
X6798572Y-9527857D02*
X6779524Y-9518333D01*
X6779524Y-9518333D02*
X6770000Y-9499286D01*
X6770000Y-9499286D02*
X6770000Y-9489762D01*
X6770000Y-9489762D02*
X6779524Y-9470714D01*
X6779524Y-9470714D02*
X6798572Y-9461190D01*
X6798572Y-9461190D02*
X6827143Y-9461190D01*
X6827143Y-9461190D02*
X6846191Y-9470714D01*
X6922381Y-9670714D02*
X6931905Y-9661190D01*
X6931905Y-9661190D02*
X6950953Y-9632619D01*
X6950953Y-9632619D02*
X6960477Y-9613571D01*
X6960477Y-9613571D02*
X6970000Y-9585000D01*
X6970000Y-9585000D02*
X6979524Y-9537381D01*
X6979524Y-9537381D02*
X6979524Y-9499286D01*
X6979524Y-9499286D02*
X6970000Y-9451667D01*
X6970000Y-9451667D02*
X6960477Y-9423095D01*
X6960477Y-9423095D02*
X6950953Y-9404048D01*
X6950953Y-9404048D02*
X6931905Y-9375476D01*
X6931905Y-9375476D02*
X6922381Y-9365952D01*
D15*
X1915000Y-9821000D02*
X1970000Y-9766000D01*
X1915000Y-9711000D01*
X1860000Y-9766000D01*
X1915000Y-9821000D01*
D10*
X2322381Y-9858524D02*
X2208095Y-9858524D01*
X2265238Y-9858524D02*
X2265238Y-9658524D01*
X2265238Y-9658524D02*
X2246190Y-9687095D01*
X2246190Y-9687095D02*
X2227143Y-9706143D01*
X2227143Y-9706143D02*
X2208095Y-9715667D01*
X2408095Y-9839476D02*
X2417619Y-9849000D01*
X2417619Y-9849000D02*
X2408095Y-9858524D01*
X2408095Y-9858524D02*
X2398571Y-9849000D01*
X2398571Y-9849000D02*
X2408095Y-9839476D01*
X2408095Y-9839476D02*
X2408095Y-9858524D01*
X2608095Y-9858524D02*
X2493810Y-9858524D01*
X2550952Y-9858524D02*
X2550952Y-9658524D01*
X2550952Y-9658524D02*
X2531905Y-9687095D01*
X2531905Y-9687095D02*
X2512857Y-9706143D01*
X2512857Y-9706143D02*
X2493810Y-9715667D01*
X2731905Y-9658524D02*
X2750952Y-9658524D01*
X2750952Y-9658524D02*
X2770000Y-9668048D01*
X2770000Y-9668048D02*
X2779524Y-9677571D01*
X2779524Y-9677571D02*
X2789048Y-9696619D01*
X2789048Y-9696619D02*
X2798571Y-9734714D01*
X2798571Y-9734714D02*
X2798571Y-9782333D01*
X2798571Y-9782333D02*
X2789048Y-9820429D01*
X2789048Y-9820429D02*
X2779524Y-9839476D01*
X2779524Y-9839476D02*
X2770000Y-9849000D01*
X2770000Y-9849000D02*
X2750952Y-9858524D01*
X2750952Y-9858524D02*
X2731905Y-9858524D01*
X2731905Y-9858524D02*
X2712857Y-9849000D01*
X2712857Y-9849000D02*
X2703333Y-9839476D01*
X2703333Y-9839476D02*
X2693810Y-9820429D01*
X2693810Y-9820429D02*
X2684286Y-9782333D01*
X2684286Y-9782333D02*
X2684286Y-9734714D01*
X2684286Y-9734714D02*
X2693810Y-9696619D01*
X2693810Y-9696619D02*
X2703333Y-9677571D01*
X2703333Y-9677571D02*
X2712857Y-9668048D01*
X2712857Y-9668048D02*
X2731905Y-9658524D01*
X2922381Y-9658524D02*
X2941429Y-9658524D01*
X2941429Y-9658524D02*
X2960476Y-9668048D01*
X2960476Y-9668048D02*
X2970000Y-9677571D01*
X2970000Y-9677571D02*
X2979524Y-9696619D01*
X2979524Y-9696619D02*
X2989048Y-9734714D01*
X2989048Y-9734714D02*
X2989048Y-9782333D01*
X2989048Y-9782333D02*
X2979524Y-9820429D01*
X2979524Y-9820429D02*
X2970000Y-9839476D01*
X2970000Y-9839476D02*
X2960476Y-9849000D01*
X2960476Y-9849000D02*
X2941429Y-9858524D01*
X2941429Y-9858524D02*
X2922381Y-9858524D01*
X2922381Y-9858524D02*
X2903333Y-9849000D01*
X2903333Y-9849000D02*
X2893809Y-9839476D01*
X2893809Y-9839476D02*
X2884286Y-9820429D01*
X2884286Y-9820429D02*
X2874762Y-9782333D01*
X2874762Y-9782333D02*
X2874762Y-9734714D01*
X2874762Y-9734714D02*
X2884286Y-9696619D01*
X2884286Y-9696619D02*
X2893809Y-9677571D01*
X2893809Y-9677571D02*
X2903333Y-9668048D01*
X2903333Y-9668048D02*
X2922381Y-9658524D01*
X3074762Y-9858524D02*
X3074762Y-9725190D01*
X3074762Y-9744238D02*
X3084286Y-9734714D01*
X3084286Y-9734714D02*
X3103333Y-9725190D01*
X3103333Y-9725190D02*
X3131905Y-9725190D01*
X3131905Y-9725190D02*
X3150952Y-9734714D01*
X3150952Y-9734714D02*
X3160476Y-9753762D01*
X3160476Y-9753762D02*
X3160476Y-9858524D01*
X3160476Y-9753762D02*
X3170000Y-9734714D01*
X3170000Y-9734714D02*
X3189048Y-9725190D01*
X3189048Y-9725190D02*
X3217619Y-9725190D01*
X3217619Y-9725190D02*
X3236667Y-9734714D01*
X3236667Y-9734714D02*
X3246190Y-9753762D01*
X3246190Y-9753762D02*
X3246190Y-9858524D01*
X3341429Y-9858524D02*
X3341429Y-9725190D01*
X3341429Y-9744238D02*
X3350952Y-9734714D01*
X3350952Y-9734714D02*
X3370000Y-9725190D01*
X3370000Y-9725190D02*
X3398571Y-9725190D01*
X3398571Y-9725190D02*
X3417619Y-9734714D01*
X3417619Y-9734714D02*
X3427143Y-9753762D01*
X3427143Y-9753762D02*
X3427143Y-9858524D01*
X3427143Y-9753762D02*
X3436667Y-9734714D01*
X3436667Y-9734714D02*
X3455714Y-9725190D01*
X3455714Y-9725190D02*
X3484286Y-9725190D01*
X3484286Y-9725190D02*
X3503333Y-9734714D01*
X3503333Y-9734714D02*
X3512857Y-9753762D01*
X3512857Y-9753762D02*
X3512857Y-9858524D01*
X3903333Y-9649000D02*
X3731905Y-9906143D01*
X4160476Y-9658524D02*
X4179524Y-9658524D01*
X4179524Y-9658524D02*
X4198572Y-9668048D01*
X4198572Y-9668048D02*
X4208095Y-9677571D01*
X4208095Y-9677571D02*
X4217619Y-9696619D01*
X4217619Y-9696619D02*
X4227143Y-9734714D01*
X4227143Y-9734714D02*
X4227143Y-9782333D01*
X4227143Y-9782333D02*
X4217619Y-9820429D01*
X4217619Y-9820429D02*
X4208095Y-9839476D01*
X4208095Y-9839476D02*
X4198572Y-9849000D01*
X4198572Y-9849000D02*
X4179524Y-9858524D01*
X4179524Y-9858524D02*
X4160476Y-9858524D01*
X4160476Y-9858524D02*
X4141429Y-9849000D01*
X4141429Y-9849000D02*
X4131905Y-9839476D01*
X4131905Y-9839476D02*
X4122381Y-9820429D01*
X4122381Y-9820429D02*
X4112857Y-9782333D01*
X4112857Y-9782333D02*
X4112857Y-9734714D01*
X4112857Y-9734714D02*
X4122381Y-9696619D01*
X4122381Y-9696619D02*
X4131905Y-9677571D01*
X4131905Y-9677571D02*
X4141429Y-9668048D01*
X4141429Y-9668048D02*
X4160476Y-9658524D01*
X4312857Y-9839476D02*
X4322381Y-9849000D01*
X4322381Y-9849000D02*
X4312857Y-9858524D01*
X4312857Y-9858524D02*
X4303334Y-9849000D01*
X4303334Y-9849000D02*
X4312857Y-9839476D01*
X4312857Y-9839476D02*
X4312857Y-9858524D01*
X4446191Y-9658524D02*
X4465238Y-9658524D01*
X4465238Y-9658524D02*
X4484286Y-9668048D01*
X4484286Y-9668048D02*
X4493810Y-9677571D01*
X4493810Y-9677571D02*
X4503334Y-9696619D01*
X4503334Y-9696619D02*
X4512857Y-9734714D01*
X4512857Y-9734714D02*
X4512857Y-9782333D01*
X4512857Y-9782333D02*
X4503334Y-9820429D01*
X4503334Y-9820429D02*
X4493810Y-9839476D01*
X4493810Y-9839476D02*
X4484286Y-9849000D01*
X4484286Y-9849000D02*
X4465238Y-9858524D01*
X4465238Y-9858524D02*
X4446191Y-9858524D01*
X4446191Y-9858524D02*
X4427143Y-9849000D01*
X4427143Y-9849000D02*
X4417619Y-9839476D01*
X4417619Y-9839476D02*
X4408095Y-9820429D01*
X4408095Y-9820429D02*
X4398572Y-9782333D01*
X4398572Y-9782333D02*
X4398572Y-9734714D01*
X4398572Y-9734714D02*
X4408095Y-9696619D01*
X4408095Y-9696619D02*
X4417619Y-9677571D01*
X4417619Y-9677571D02*
X4427143Y-9668048D01*
X4427143Y-9668048D02*
X4446191Y-9658524D01*
X4684286Y-9725190D02*
X4684286Y-9858524D01*
X4636667Y-9649000D02*
X4589048Y-9791857D01*
X4589048Y-9791857D02*
X4712857Y-9791857D01*
X4770000Y-9658524D02*
X4893810Y-9658524D01*
X4893810Y-9658524D02*
X4827143Y-9734714D01*
X4827143Y-9734714D02*
X4855715Y-9734714D01*
X4855715Y-9734714D02*
X4874762Y-9744238D01*
X4874762Y-9744238D02*
X4884286Y-9753762D01*
X4884286Y-9753762D02*
X4893810Y-9772810D01*
X4893810Y-9772810D02*
X4893810Y-9820429D01*
X4893810Y-9820429D02*
X4884286Y-9839476D01*
X4884286Y-9839476D02*
X4874762Y-9849000D01*
X4874762Y-9849000D02*
X4855715Y-9858524D01*
X4855715Y-9858524D02*
X4798572Y-9858524D01*
X4798572Y-9858524D02*
X4779524Y-9849000D01*
X4779524Y-9849000D02*
X4770000Y-9839476D01*
X4960476Y-9658524D02*
X5084286Y-9658524D01*
X5084286Y-9658524D02*
X5017619Y-9734714D01*
X5017619Y-9734714D02*
X5046191Y-9734714D01*
X5046191Y-9734714D02*
X5065238Y-9744238D01*
X5065238Y-9744238D02*
X5074762Y-9753762D01*
X5074762Y-9753762D02*
X5084286Y-9772810D01*
X5084286Y-9772810D02*
X5084286Y-9820429D01*
X5084286Y-9820429D02*
X5074762Y-9839476D01*
X5074762Y-9839476D02*
X5065238Y-9849000D01*
X5065238Y-9849000D02*
X5046191Y-9858524D01*
X5046191Y-9858524D02*
X4989048Y-9858524D01*
X4989048Y-9858524D02*
X4970000Y-9849000D01*
X4970000Y-9849000D02*
X4960476Y-9839476D01*
X5160476Y-9658524D02*
X5160476Y-9696619D01*
X5236667Y-9658524D02*
X5236667Y-9696619D01*
X5531905Y-9934714D02*
X5522381Y-9925190D01*
X5522381Y-9925190D02*
X5503334Y-9896619D01*
X5503334Y-9896619D02*
X5493810Y-9877571D01*
X5493810Y-9877571D02*
X5484286Y-9849000D01*
X5484286Y-9849000D02*
X5474762Y-9801381D01*
X5474762Y-9801381D02*
X5474762Y-9763286D01*
X5474762Y-9763286D02*
X5484286Y-9715667D01*
X5484286Y-9715667D02*
X5493810Y-9687095D01*
X5493810Y-9687095D02*
X5503334Y-9668048D01*
X5503334Y-9668048D02*
X5522381Y-9639476D01*
X5522381Y-9639476D02*
X5531905Y-9629952D01*
X5617619Y-9858524D02*
X5655714Y-9858524D01*
X5655714Y-9858524D02*
X5674762Y-9849000D01*
X5674762Y-9849000D02*
X5684286Y-9839476D01*
X5684286Y-9839476D02*
X5703334Y-9810905D01*
X5703334Y-9810905D02*
X5712857Y-9772810D01*
X5712857Y-9772810D02*
X5712857Y-9696619D01*
X5712857Y-9696619D02*
X5703334Y-9677571D01*
X5703334Y-9677571D02*
X5693810Y-9668048D01*
X5693810Y-9668048D02*
X5674762Y-9658524D01*
X5674762Y-9658524D02*
X5636667Y-9658524D01*
X5636667Y-9658524D02*
X5617619Y-9668048D01*
X5617619Y-9668048D02*
X5608095Y-9677571D01*
X5608095Y-9677571D02*
X5598572Y-9696619D01*
X5598572Y-9696619D02*
X5598572Y-9744238D01*
X5598572Y-9744238D02*
X5608095Y-9763286D01*
X5608095Y-9763286D02*
X5617619Y-9772810D01*
X5617619Y-9772810D02*
X5636667Y-9782333D01*
X5636667Y-9782333D02*
X5674762Y-9782333D01*
X5674762Y-9782333D02*
X5693810Y-9772810D01*
X5693810Y-9772810D02*
X5703334Y-9763286D01*
X5703334Y-9763286D02*
X5712857Y-9744238D01*
X5950953Y-9858524D02*
X5950953Y-9658524D01*
X6036667Y-9858524D02*
X6036667Y-9753762D01*
X6036667Y-9753762D02*
X6027143Y-9734714D01*
X6027143Y-9734714D02*
X6008096Y-9725190D01*
X6008096Y-9725190D02*
X5979524Y-9725190D01*
X5979524Y-9725190D02*
X5960476Y-9734714D01*
X5960476Y-9734714D02*
X5950953Y-9744238D01*
X6160476Y-9858524D02*
X6141429Y-9849000D01*
X6141429Y-9849000D02*
X6131905Y-9839476D01*
X6131905Y-9839476D02*
X6122381Y-9820429D01*
X6122381Y-9820429D02*
X6122381Y-9763286D01*
X6122381Y-9763286D02*
X6131905Y-9744238D01*
X6131905Y-9744238D02*
X6141429Y-9734714D01*
X6141429Y-9734714D02*
X6160476Y-9725190D01*
X6160476Y-9725190D02*
X6189048Y-9725190D01*
X6189048Y-9725190D02*
X6208096Y-9734714D01*
X6208096Y-9734714D02*
X6217619Y-9744238D01*
X6217619Y-9744238D02*
X6227143Y-9763286D01*
X6227143Y-9763286D02*
X6227143Y-9820429D01*
X6227143Y-9820429D02*
X6217619Y-9839476D01*
X6217619Y-9839476D02*
X6208096Y-9849000D01*
X6208096Y-9849000D02*
X6189048Y-9858524D01*
X6189048Y-9858524D02*
X6160476Y-9858524D01*
X6341429Y-9858524D02*
X6322381Y-9849000D01*
X6322381Y-9849000D02*
X6312857Y-9829952D01*
X6312857Y-9829952D02*
X6312857Y-9658524D01*
X6493810Y-9849000D02*
X6474762Y-9858524D01*
X6474762Y-9858524D02*
X6436667Y-9858524D01*
X6436667Y-9858524D02*
X6417619Y-9849000D01*
X6417619Y-9849000D02*
X6408096Y-9829952D01*
X6408096Y-9829952D02*
X6408096Y-9753762D01*
X6408096Y-9753762D02*
X6417619Y-9734714D01*
X6417619Y-9734714D02*
X6436667Y-9725190D01*
X6436667Y-9725190D02*
X6474762Y-9725190D01*
X6474762Y-9725190D02*
X6493810Y-9734714D01*
X6493810Y-9734714D02*
X6503334Y-9753762D01*
X6503334Y-9753762D02*
X6503334Y-9772810D01*
X6503334Y-9772810D02*
X6408096Y-9791857D01*
X6579524Y-9849000D02*
X6598572Y-9858524D01*
X6598572Y-9858524D02*
X6636667Y-9858524D01*
X6636667Y-9858524D02*
X6655715Y-9849000D01*
X6655715Y-9849000D02*
X6665238Y-9829952D01*
X6665238Y-9829952D02*
X6665238Y-9820429D01*
X6665238Y-9820429D02*
X6655715Y-9801381D01*
X6655715Y-9801381D02*
X6636667Y-9791857D01*
X6636667Y-9791857D02*
X6608096Y-9791857D01*
X6608096Y-9791857D02*
X6589048Y-9782333D01*
X6589048Y-9782333D02*
X6579524Y-9763286D01*
X6579524Y-9763286D02*
X6579524Y-9753762D01*
X6579524Y-9753762D02*
X6589048Y-9734714D01*
X6589048Y-9734714D02*
X6608096Y-9725190D01*
X6608096Y-9725190D02*
X6636667Y-9725190D01*
X6636667Y-9725190D02*
X6655715Y-9734714D01*
X6731905Y-9934714D02*
X6741429Y-9925190D01*
X6741429Y-9925190D02*
X6760477Y-9896619D01*
X6760477Y-9896619D02*
X6770000Y-9877571D01*
X6770000Y-9877571D02*
X6779524Y-9849000D01*
X6779524Y-9849000D02*
X6789048Y-9801381D01*
X6789048Y-9801381D02*
X6789048Y-9763286D01*
X6789048Y-9763286D02*
X6779524Y-9715667D01*
X6779524Y-9715667D02*
X6770000Y-9687095D01*
X6770000Y-9687095D02*
X6760477Y-9668048D01*
X6760477Y-9668048D02*
X6741429Y-9639476D01*
X6741429Y-9639476D02*
X6731905Y-9629952D01*
M02*
