M48
; DRILL file {KiCad 7.0.1} date Tue 28 Mar 2023 11:07:15 PM -03
; FORMAT={-:-/ absolute / inch / decimal}
; #@! TF.CreationDate,2023-03-28T23:07:15-03:00
; #@! TF.GenerationSoftware,Kicad,Pcbnew,7.0.1
; #@! TF.FileFunction,Plated,1,2,PTH
FMAT,2
INCH
; #@! TA.AperFunction,Plated,PTH,ComponentDrill
T1C0.0315
; #@! TA.AperFunction,Plated,PTH,ComponentDrill
T2C0.0354
; #@! TA.AperFunction,Plated,PTH,ComponentDrill
T3C0.0374
; #@! TA.AperFunction,Plated,PTH,ComponentDrill
T4C0.0394
; #@! TA.AperFunction,Plated,PTH,ComponentDrill
T5C0.0433
%
G90
G05
T1
X0.8709Y-2.815
X0.8709Y-2.9724
X0.9213Y-1.751
X0.9213Y-1.851
X0.9213Y-1.951
X1.2213Y-1.751
X1.2213Y-1.851
X1.2213Y-1.951
X1.2709Y-2.815
X1.2709Y-2.9724
X1.4134Y-0.9614
X1.4134Y-1.3614
X1.5598Y-1.7087
X1.5827Y-2.2488
X1.5827Y-2.6488
X1.6161Y-1.2
X1.6161Y-1.5
X1.622Y-0.937
X1.622Y-1.0354
X1.6693Y-1.9281
X1.6693Y-2.0281
X1.6693Y-2.1281
X1.7161Y-1.2
X1.7161Y-1.5
X1.8161Y-1.2
X1.8161Y-1.5
X1.8406Y-0.9961
X1.9161Y-1.2
X1.9161Y-1.5
X1.9598Y-1.7087
X1.9693Y-1.9281
X1.9693Y-2.0281
X1.9693Y-2.1281
X2.0161Y-1.2
X2.0161Y-1.5
X2.0335Y-0.9961
X2.0748Y-2.2488
X2.0748Y-2.6488
X2.111Y-1.7087
X2.1161Y-1.2
X2.1161Y-1.5
X2.1811Y-1.9281
X2.1811Y-2.0281
X2.1811Y-2.1281
X2.2161Y-1.2
X2.2161Y-1.5
X2.252Y-0.937
X2.252Y-1.0354
X2.3161Y-1.2
X2.3161Y-1.5
X2.4161Y-1.2
X2.4161Y-1.5
X2.4811Y-1.9281
X2.4811Y-2.0281
X2.4811Y-2.1281
X2.511Y-1.7087
X2.5945Y-2.2567
X2.5945Y-2.6567
X2.6543Y-1.7087
X2.7126Y-1.9281
X2.7126Y-2.0281
X2.7126Y-2.1281
X3.0126Y-1.9281
X3.0126Y-2.0281
X3.0126Y-2.1281
X3.0543Y-1.7087
T2
X0.9177Y-2.2827
X0.9213Y-2.1256
X0.9217Y-2.5984
X0.9224Y-2.4406
X1.2177Y-2.2827
X1.2213Y-2.1256
X1.2217Y-2.5984
X1.2224Y-2.4406
T3
X1.0918Y-0.9665
X1.0918Y-1.065
X1.0918Y-1.1634
X1.0918Y-1.2618
X2.8609Y-0.9665
X2.8609Y-1.065
X2.8609Y-1.1634
X2.8609Y-1.2618
T4
X1.5039Y-2.785
X1.5039Y-3.0811
X1.7008Y-2.785
X1.7008Y-3.0811
X2.1929Y-2.785
X2.1929Y-3.0811
X2.3898Y-2.785
X2.3898Y-3.0811
X2.5866Y-2.785
X2.5866Y-3.0811
X2.7835Y-2.785
X2.7835Y-3.0811
X2.9803Y-2.785
X2.9803Y-3.0811
T5
X1.8364Y-2.3787
X1.8364Y-2.4787
X1.8364Y-2.5787
X2.3482Y-2.3606
X2.3482Y-2.4606
X2.3482Y-2.5606
X2.8758Y-2.3646
X2.8758Y-2.4646
X2.8758Y-2.5646
T0
M30
