  0
SECTION
  2
HEADER
  9
$ANGBASE
  50
0.0
  9
$ANGDIR
  70
1
  9
$MEASUREMENT
  70
1
  0
ENDSEC
  0
SECTION
  2
TABLES
  0
TABLE
  2
LTYPE
  70
4
  0
LTYPE
  5
40F
  2
CONTINUOUS
  70
0
  3
Solid line
  72
65
  73
0
  40
0.0
  0
LTYPE
  5
410
  2
DASHDOT
 70
0
  3
Dash Dot ____ _ ____ _
 72
65
 73
4
 40
2.0
 49
1.25
 49
-0.25
 49
0.25
 49
-0.25
  0
LTYPE
  5
411
  2
DASHED
 70
0
  3
Dashed __ __ __ __ __
 72
65
 73
2
 40
0.75
 49
0.5
 49
-0.25
  0
LTYPE
  5
43B
  2
DOTTED
 70
0
  3
Dotted .  .  .  .
 72
65
 73
2
 40
0.2
 49
0.0
 49
-0.2
  0
ENDTAB
  0
TABLE
  2
STYLE
  70
4
  0
STYLE
  2
KICAD
  70
0
  40
0
  41
1
  42
1
  50
0
  71
0
  3
isocp.shx
  0
STYLE
  2
KICADB
  70
0
  40
0
  41
1
  42
1
  50
0
  71
0
  3
isocp.shx
  0
STYLE
  2
KICADI
  70
0
  40
0
  41
1
  42
1
  50
15
  71
0
  3
isocp.shx
  0
STYLE
  2
KICADBI
  70
0
  40
0
  41
1
  42
1
  50
15
  71
0
  3
isocp.shx
  0
ENDTAB
  0
TABLE
  2
LAYER
  70
1
  0
LAYER
  2
BLACK
  70
0
  62
7
  6
CONTINUOUS
  0
ENDTAB
  0
ENDSEC
  0
SECTION
  2
ENTITIES
0
LINE
8
BLACK
6
CONTINUOUS
10
80.6151
20
-19.5049
11
80.6309
21
-19.5049
0
LINE
8
BLACK
6
CONTINUOUS
10
80.6309
20
-19.5049
11
80.6437
21
-19.5142
0
LINE
8
BLACK
6
CONTINUOUS
10
80.6437
20
-19.5142
11
80.6588
21
-19.5191
0
LINE
8
BLACK
6
CONTINUOUS
10
80.6588
20
-19.5191
11
80.6681
21
-19.5319
0
LINE
8
BLACK
6
CONTINUOUS
10
80.6681
20
-19.5319
11
80.6809
21
-19.5412
0
LINE
8
BLACK
6
CONTINUOUS
10
80.6809
20
-19.5412
11
80.6858
21
-19.5563
0
LINE
8
BLACK
6
CONTINUOUS
10
80.6858
20
-19.5563
11
80.6951
21
-19.5691
0
LINE
8
BLACK
6
CONTINUOUS
10
80.6951
20
-19.5691
11
80.6951
21
-19.5849
0
LINE
8
BLACK
6
CONTINUOUS
10
80.6951
20
-19.5849
11
80.7
21
-19.6
0
LINE
8
BLACK
6
CONTINUOUS
10
80.7
20
-19.6
11
80.7
21
-80.6
0
LINE
8
BLACK
6
CONTINUOUS
10
80.7
20
-80.6
11
80.6951
21
-80.6151
0
LINE
8
BLACK
6
CONTINUOUS
10
80.6951
20
-80.6151
11
80.6951
21
-80.6309
0
LINE
8
BLACK
6
CONTINUOUS
10
80.6951
20
-80.6309
11
80.6858
21
-80.6437
0
LINE
8
BLACK
6
CONTINUOUS
10
80.6858
20
-80.6437
11
80.6809
21
-80.6588
0
LINE
8
BLACK
6
CONTINUOUS
10
80.6809
20
-80.6588
11
80.6681
21
-80.6681
0
LINE
8
BLACK
6
CONTINUOUS
10
80.6681
20
-80.6681
11
80.6588
21
-80.6809
0
LINE
8
BLACK
6
CONTINUOUS
10
80.6588
20
-80.6809
11
80.6437
21
-80.6858
0
LINE
8
BLACK
6
CONTINUOUS
10
80.6437
20
-80.6858
11
80.6309
21
-80.6951
0
LINE
8
BLACK
6
CONTINUOUS
10
80.6309
20
-80.6951
11
80.6151
21
-80.6951
0
LINE
8
BLACK
6
CONTINUOUS
10
80.6151
20
-80.6951
11
80.6
21
-80.7
0
LINE
8
BLACK
6
CONTINUOUS
10
80.6
20
-80.7
11
19.8
21
-80.7
0
LINE
8
BLACK
6
CONTINUOUS
10
19.8
20
-80.7
11
19.7849
21
-80.6951
0
LINE
8
BLACK
6
CONTINUOUS
10
19.7849
20
-80.6951
11
19.7691
21
-80.6951
0
LINE
8
BLACK
6
CONTINUOUS
10
19.7691
20
-80.6951
11
19.7563
21
-80.6858
0
LINE
8
BLACK
6
CONTINUOUS
10
19.7563
20
-80.6858
11
19.7412
21
-80.6809
0
LINE
8
BLACK
6
CONTINUOUS
10
19.7412
20
-80.6809
11
19.7319
21
-80.6681
0
LINE
8
BLACK
6
CONTINUOUS
10
19.7319
20
-80.6681
11
19.7191
21
-80.6588
0
LINE
8
BLACK
6
CONTINUOUS
10
19.7191
20
-80.6588
11
19.7142
21
-80.6437
0
LINE
8
BLACK
6
CONTINUOUS
10
19.7142
20
-80.6437
11
19.7049
21
-80.6309
0
LINE
8
BLACK
6
CONTINUOUS
10
19.7049
20
-80.6309
11
19.7049
21
-80.6151
0
LINE
8
BLACK
6
CONTINUOUS
10
19.7049
20
-80.6151
11
19.7
21
-80.6
0
LINE
8
BLACK
6
CONTINUOUS
10
19.7
20
-80.6
11
19.7
21
-19.6
0
LINE
8
BLACK
6
CONTINUOUS
10
19.7
20
-19.6
11
19.7049
21
-19.5849
0
LINE
8
BLACK
6
CONTINUOUS
10
19.7049
20
-19.5849
11
19.7049
21
-19.5691
0
LINE
8
BLACK
6
CONTINUOUS
10
19.7049
20
-19.5691
11
19.7142
21
-19.5563
0
LINE
8
BLACK
6
CONTINUOUS
10
19.7142
20
-19.5563
11
19.7191
21
-19.5412
0
LINE
8
BLACK
6
CONTINUOUS
10
19.7191
20
-19.5412
11
19.7319
21
-19.5319
0
LINE
8
BLACK
6
CONTINUOUS
10
19.7319
20
-19.5319
11
19.7412
21
-19.5191
0
LINE
8
BLACK
6
CONTINUOUS
10
19.7412
20
-19.5191
11
19.7563
21
-19.5142
0
LINE
8
BLACK
6
CONTINUOUS
10
19.7563
20
-19.5142
11
19.7691
21
-19.5049
0
LINE
8
BLACK
6
CONTINUOUS
10
19.7691
20
-19.5049
11
19.7849
21
-19.5049
0
LINE
8
BLACK
6
CONTINUOUS
10
19.7849
20
-19.5049
11
19.8
21
-19.5
0
LINE
8
BLACK
6
CONTINUOUS
10
19.8
20
-19.5
11
80.6
21
-19.5
0
LINE
8
BLACK
6
CONTINUOUS
10
80.6
20
-19.5
11
80.6151
21
-19.5049
0
LINE
8
BLACK
6
CONTINUOUS
10
19.9
20
-19.7
11
19.9
21
-80.5
0
LINE
8
BLACK
6
CONTINUOUS
10
19.9
20
-80.5
11
80.5
21
-80.5
0
LINE
8
BLACK
6
CONTINUOUS
10
80.5
20
-80.5
11
80.5
21
-19.7
0
LINE
8
BLACK
6
CONTINUOUS
10
80.5
20
-19.7
11
19.9
21
-19.7
  0
ENDSEC
  0
EOF
